M48
;GenerationSoftware,Autodesk,EAGLE,9.6.2*%
;CreationDate,2022-03-16T04:08:45Z*%
FMAT,2
ICI,OFF
METRIC,TZ,000.000
T4C0.356
T3C0.900
T2C1.000
T1C2.309
%
G90
M71
T1
X18688Y49360
X5188Y49360
X11938Y50160
X5442Y5504
X18942Y5504
X12192Y4704
T2
X25400Y9906
X25400Y17526
X25400Y32766
X25400Y30226
X25400Y27686
X25400Y25146
X25400Y22606
X25400Y20066
X25400Y37846
X25400Y14986
X45720Y9906
X45720Y12446
X45720Y14986
X45720Y17526
X45720Y20066
X45720Y22606
X45720Y25146
X45720Y27686
X45720Y30226
X45720Y32766
X45720Y35306
X45720Y37846
X25400Y35306
X25400Y12446
X25400Y40386
X25400Y42926
X25400Y45466
X25400Y48006
T3
X11292Y11004
X8792Y11004
X15592Y11004
X8792Y8504
X13492Y11004
X15592Y8504
X10892Y8504
X10638Y46360
X13238Y46360
X8538Y46360
X10638Y43860
X15338Y46360
X8538Y43860
X12838Y43860
X15338Y43860
X13492Y8504
T4
X40386Y13462
X40450Y16319
X40386Y25781
X40386Y22098
X33020Y35179
X6223Y40259
X13081Y38481
X13017Y40450
X10160Y31242
X16256Y31115
X27813Y26416
X12192Y26670
X33528Y31623
X12319Y28842
X11430Y19177
X29972Y8128
X30988Y38227
X27178Y11176
X30099Y36703
X10033Y25273
X10160Y30099
X5207Y24892
X4851Y21463
X33147Y21971
X33147Y26035
X34671Y39370
X38608Y39370
X40386Y35179
M30