G04 EAGLE Gerber RS-274X export*
G75*
%MOMM*%
%FSLAX34Y34*%
%LPD*%
%INBottom Copper*%
%IPPOS*%
%AMOC8*
5,1,8,0,0,1.08239X$1,22.5*%
G01*
%ADD10C,1.408000*%
%ADD11C,3.463000*%
%ADD12C,1.676400*%
%ADD13C,0.304800*%
%ADD14C,0.762000*%
%ADD15C,0.152400*%

G36*
X483582Y2555D02*
X483582Y2555D01*
X483708Y2562D01*
X483755Y2575D01*
X483803Y2581D01*
X483922Y2623D01*
X484043Y2658D01*
X484085Y2682D01*
X484131Y2698D01*
X484237Y2767D01*
X484347Y2828D01*
X484394Y2868D01*
X484424Y2887D01*
X484457Y2922D01*
X484534Y2987D01*
X488503Y6956D01*
X488582Y7055D01*
X488666Y7149D01*
X488690Y7191D01*
X488720Y7229D01*
X488774Y7343D01*
X488835Y7454D01*
X488848Y7501D01*
X488869Y7544D01*
X488895Y7668D01*
X488930Y7790D01*
X488935Y7850D01*
X488942Y7885D01*
X488941Y7933D01*
X488949Y8033D01*
X488949Y538067D01*
X488935Y538192D01*
X488928Y538318D01*
X488915Y538365D01*
X488909Y538413D01*
X488867Y538532D01*
X488832Y538653D01*
X488808Y538695D01*
X488792Y538741D01*
X488723Y538847D01*
X488662Y538957D01*
X488622Y539004D01*
X488603Y539034D01*
X488568Y539067D01*
X488503Y539144D01*
X484534Y543113D01*
X484435Y543192D01*
X484341Y543276D01*
X484299Y543300D01*
X484261Y543330D01*
X484147Y543384D01*
X484036Y543445D01*
X483989Y543458D01*
X483946Y543479D01*
X483822Y543505D01*
X483700Y543540D01*
X483640Y543545D01*
X483605Y543552D01*
X483557Y543551D01*
X483457Y543559D01*
X8033Y543559D01*
X7908Y543545D01*
X7782Y543538D01*
X7735Y543525D01*
X7687Y543519D01*
X7568Y543477D01*
X7447Y543442D01*
X7405Y543418D01*
X7359Y543402D01*
X7253Y543333D01*
X7143Y543272D01*
X7096Y543232D01*
X7066Y543213D01*
X7033Y543178D01*
X6956Y543113D01*
X2987Y539144D01*
X2908Y539045D01*
X2824Y538951D01*
X2800Y538909D01*
X2770Y538871D01*
X2716Y538757D01*
X2655Y538646D01*
X2642Y538599D01*
X2621Y538556D01*
X2595Y538432D01*
X2560Y538310D01*
X2555Y538250D01*
X2548Y538215D01*
X2549Y538167D01*
X2541Y538067D01*
X2541Y8033D01*
X2555Y7908D01*
X2562Y7782D01*
X2575Y7735D01*
X2581Y7687D01*
X2623Y7568D01*
X2658Y7447D01*
X2682Y7405D01*
X2698Y7359D01*
X2767Y7253D01*
X2828Y7143D01*
X2868Y7096D01*
X2887Y7066D01*
X2922Y7033D01*
X2987Y6956D01*
X6956Y2987D01*
X7055Y2908D01*
X7149Y2824D01*
X7191Y2800D01*
X7229Y2770D01*
X7343Y2716D01*
X7454Y2655D01*
X7501Y2642D01*
X7544Y2621D01*
X7668Y2595D01*
X7790Y2560D01*
X7850Y2555D01*
X7885Y2548D01*
X7933Y2549D01*
X8033Y2541D01*
X483457Y2541D01*
X483582Y2555D01*
G37*
%LPC*%
G36*
X298659Y75945D02*
X298659Y75945D01*
X296698Y76757D01*
X295197Y78258D01*
X294385Y80219D01*
X294385Y82341D01*
X295197Y84302D01*
X296698Y85803D01*
X298659Y86615D01*
X300874Y86615D01*
X300911Y86604D01*
X300987Y86600D01*
X301063Y86587D01*
X301161Y86592D01*
X301259Y86587D01*
X301334Y86601D01*
X301411Y86605D01*
X301505Y86632D01*
X301602Y86650D01*
X301672Y86680D01*
X301746Y86701D01*
X301831Y86749D01*
X301922Y86788D01*
X301983Y86834D01*
X302050Y86871D01*
X302163Y86968D01*
X302201Y86996D01*
X302214Y87011D01*
X302236Y87030D01*
X307147Y91941D01*
X307226Y92040D01*
X307310Y92134D01*
X307334Y92176D01*
X307364Y92214D01*
X307418Y92328D01*
X307479Y92439D01*
X307492Y92486D01*
X307513Y92529D01*
X307539Y92653D01*
X307574Y92774D01*
X307579Y92835D01*
X307586Y92870D01*
X307585Y92918D01*
X307593Y93018D01*
X307593Y362411D01*
X307582Y362511D01*
X307580Y362612D01*
X307562Y362684D01*
X307553Y362758D01*
X307520Y362852D01*
X307495Y362950D01*
X307461Y363016D01*
X307436Y363086D01*
X307381Y363170D01*
X307335Y363259D01*
X307287Y363316D01*
X307247Y363379D01*
X307175Y363448D01*
X307110Y363525D01*
X307050Y363569D01*
X306996Y363621D01*
X306910Y363672D01*
X306829Y363732D01*
X306761Y363761D01*
X306697Y363800D01*
X306601Y363830D01*
X306509Y363870D01*
X306436Y363883D01*
X306365Y363906D01*
X306265Y363914D01*
X306166Y363932D01*
X306092Y363928D01*
X306018Y363934D01*
X305918Y363919D01*
X305818Y363914D01*
X305747Y363893D01*
X305673Y363882D01*
X305580Y363845D01*
X305483Y363817D01*
X305418Y363781D01*
X305349Y363753D01*
X305267Y363696D01*
X305179Y363647D01*
X305103Y363582D01*
X305063Y363554D01*
X305039Y363528D01*
X304993Y363488D01*
X304914Y363389D01*
X304830Y363296D01*
X304806Y363253D01*
X304776Y363215D01*
X304722Y363101D01*
X304661Y362991D01*
X304648Y362944D01*
X304627Y362900D01*
X304601Y362777D01*
X304566Y362655D01*
X304561Y362594D01*
X304554Y362560D01*
X304555Y362512D01*
X304547Y362411D01*
X304547Y122243D01*
X302761Y120457D01*
X291777Y109473D01*
X277625Y109473D01*
X277549Y109464D01*
X277472Y109466D01*
X277376Y109445D01*
X277279Y109433D01*
X277207Y109408D01*
X277132Y109391D01*
X277043Y109349D01*
X276951Y109316D01*
X276886Y109274D01*
X276817Y109241D01*
X276740Y109180D01*
X276658Y109127D01*
X276604Y109072D01*
X276545Y109024D01*
X276484Y108947D01*
X276416Y108876D01*
X276378Y108814D01*
X274802Y107237D01*
X272841Y106425D01*
X270719Y106425D01*
X268758Y107237D01*
X267257Y108738D01*
X266445Y110699D01*
X266445Y112821D01*
X267257Y114782D01*
X268758Y116283D01*
X270719Y117095D01*
X272841Y117095D01*
X274802Y116283D01*
X276368Y114717D01*
X276387Y114683D01*
X276438Y114626D01*
X276482Y114563D01*
X276555Y114497D01*
X276621Y114425D01*
X276684Y114381D01*
X276741Y114330D01*
X276827Y114282D01*
X276907Y114226D01*
X276979Y114198D01*
X277046Y114161D01*
X277140Y114134D01*
X277232Y114098D01*
X277307Y114087D01*
X277381Y114066D01*
X277530Y114054D01*
X277576Y114048D01*
X277595Y114049D01*
X277625Y114047D01*
X289252Y114047D01*
X289377Y114061D01*
X289504Y114068D01*
X289550Y114081D01*
X289598Y114087D01*
X289717Y114129D01*
X289838Y114164D01*
X289881Y114188D01*
X289926Y114204D01*
X290033Y114273D01*
X290143Y114334D01*
X290189Y114374D01*
X290219Y114393D01*
X290253Y114428D01*
X290329Y114493D01*
X299527Y123691D01*
X299606Y123790D01*
X299690Y123884D01*
X299714Y123926D01*
X299744Y123964D01*
X299798Y124078D01*
X299859Y124189D01*
X299872Y124235D01*
X299893Y124279D01*
X299919Y124403D01*
X299954Y124524D01*
X299959Y124585D01*
X299966Y124620D01*
X299965Y124668D01*
X299973Y124768D01*
X299973Y360659D01*
X299965Y360735D01*
X299966Y360811D01*
X299945Y360908D01*
X299933Y361005D01*
X299908Y361077D01*
X299891Y361152D01*
X299849Y361241D01*
X299816Y361333D01*
X299774Y361398D01*
X299742Y361467D01*
X299680Y361543D01*
X299627Y361626D01*
X299572Y361679D01*
X299524Y361739D01*
X299447Y361800D01*
X299376Y361868D01*
X299311Y361908D01*
X299251Y361955D01*
X299118Y362023D01*
X299077Y362047D01*
X299059Y362053D01*
X299033Y362066D01*
X297968Y362507D01*
X297194Y363281D01*
X297095Y363360D01*
X297002Y363444D01*
X296959Y363468D01*
X296921Y363498D01*
X296807Y363552D01*
X296697Y363613D01*
X296650Y363626D01*
X296606Y363647D01*
X296483Y363673D01*
X296361Y363708D01*
X296300Y363713D01*
X296266Y363720D01*
X296218Y363719D01*
X296117Y363727D01*
X261020Y363727D01*
X260921Y363716D01*
X260820Y363714D01*
X260748Y363696D01*
X260674Y363687D01*
X260580Y363654D01*
X260482Y363629D01*
X260416Y363595D01*
X260346Y363570D01*
X260262Y363515D01*
X260172Y363469D01*
X260116Y363421D01*
X260053Y363381D01*
X259983Y363309D01*
X259907Y363244D01*
X259863Y363184D01*
X259811Y363130D01*
X259760Y363044D01*
X259700Y362963D01*
X259670Y362895D01*
X259632Y362831D01*
X259602Y362735D01*
X259562Y362643D01*
X259549Y362570D01*
X259526Y362499D01*
X259518Y362399D01*
X259500Y362300D01*
X259504Y362226D01*
X259498Y362152D01*
X259513Y362052D01*
X259518Y361952D01*
X259539Y361881D01*
X259550Y361807D01*
X259587Y361714D01*
X259615Y361617D01*
X259651Y361552D01*
X259678Y361483D01*
X259736Y361401D01*
X259785Y361313D01*
X259850Y361237D01*
X259877Y361197D01*
X259904Y361173D01*
X259943Y361127D01*
X262399Y358672D01*
X263907Y355031D01*
X263907Y351089D01*
X262399Y347448D01*
X259612Y344661D01*
X255971Y343153D01*
X252029Y343153D01*
X248388Y344661D01*
X245601Y347448D01*
X244093Y351089D01*
X244093Y355031D01*
X245601Y358672D01*
X248057Y361127D01*
X248119Y361205D01*
X248189Y361278D01*
X248227Y361342D01*
X248273Y361400D01*
X248316Y361491D01*
X248368Y361577D01*
X248390Y361648D01*
X248422Y361715D01*
X248443Y361813D01*
X248474Y361909D01*
X248480Y361983D01*
X248496Y362056D01*
X248494Y362156D01*
X248502Y362256D01*
X248491Y362330D01*
X248490Y362404D01*
X248465Y362501D01*
X248450Y362601D01*
X248423Y362670D01*
X248405Y362742D01*
X248359Y362831D01*
X248322Y362925D01*
X248279Y362986D01*
X248245Y363052D01*
X248180Y363128D01*
X248123Y363211D01*
X248067Y363261D01*
X248019Y363317D01*
X247938Y363377D01*
X247864Y363444D01*
X247799Y363480D01*
X247739Y363525D01*
X247647Y363564D01*
X247559Y363613D01*
X247487Y363633D01*
X247419Y363663D01*
X247320Y363680D01*
X247223Y363708D01*
X247123Y363716D01*
X247076Y363724D01*
X247040Y363722D01*
X246980Y363727D01*
X194379Y363727D01*
X192593Y365513D01*
X165869Y392237D01*
X165770Y392316D01*
X165676Y392400D01*
X165634Y392424D01*
X165596Y392454D01*
X165482Y392508D01*
X165371Y392569D01*
X165325Y392582D01*
X165281Y392603D01*
X165157Y392629D01*
X165036Y392664D01*
X164975Y392669D01*
X164940Y392676D01*
X164892Y392675D01*
X164792Y392683D01*
X133400Y392683D01*
X133350Y392678D01*
X133300Y392680D01*
X133178Y392658D01*
X133054Y392643D01*
X133007Y392626D01*
X132957Y392617D01*
X132843Y392568D01*
X132726Y392526D01*
X132684Y392499D01*
X132638Y392478D01*
X132538Y392404D01*
X132433Y392337D01*
X132398Y392301D01*
X132358Y392271D01*
X132278Y392176D01*
X132191Y392086D01*
X132165Y392043D01*
X132133Y392005D01*
X132076Y391894D01*
X132012Y391787D01*
X131997Y391739D01*
X131974Y391694D01*
X131944Y391574D01*
X131906Y391455D01*
X131902Y391405D01*
X131890Y391356D01*
X131888Y391232D01*
X131878Y391108D01*
X131885Y391058D01*
X131885Y391008D01*
X131911Y390886D01*
X131930Y390763D01*
X131948Y390716D01*
X131959Y390667D01*
X132013Y390555D01*
X132058Y390439D01*
X132087Y390398D01*
X132109Y390352D01*
X132186Y390255D01*
X132257Y390153D01*
X132295Y390119D01*
X132326Y390080D01*
X132424Y390003D01*
X132516Y389920D01*
X132560Y389895D01*
X132600Y389864D01*
X132818Y389753D01*
X133832Y389333D01*
X135333Y387832D01*
X136145Y385871D01*
X136145Y383749D01*
X135333Y381788D01*
X133832Y380287D01*
X131871Y379475D01*
X129749Y379475D01*
X127788Y380287D01*
X126222Y381853D01*
X126203Y381887D01*
X126152Y381944D01*
X126108Y382007D01*
X126035Y382073D01*
X125969Y382145D01*
X125906Y382189D01*
X125849Y382240D01*
X125763Y382288D01*
X125683Y382344D01*
X125611Y382372D01*
X125544Y382409D01*
X125450Y382436D01*
X125358Y382472D01*
X125283Y382483D01*
X125209Y382504D01*
X125060Y382516D01*
X125014Y382522D01*
X124995Y382521D01*
X124965Y382523D01*
X71443Y382523D01*
X59943Y394023D01*
X59943Y396745D01*
X59934Y396821D01*
X59936Y396898D01*
X59915Y396994D01*
X59903Y397091D01*
X59878Y397163D01*
X59861Y397238D01*
X59819Y397327D01*
X59786Y397419D01*
X59744Y397484D01*
X59711Y397553D01*
X59650Y397630D01*
X59597Y397712D01*
X59542Y397766D01*
X59494Y397825D01*
X59417Y397886D01*
X59346Y397954D01*
X59284Y397992D01*
X57707Y399568D01*
X56895Y401529D01*
X56895Y403651D01*
X57707Y405612D01*
X59208Y407113D01*
X61169Y407925D01*
X63291Y407925D01*
X65252Y407113D01*
X66753Y405612D01*
X67565Y403651D01*
X67565Y401529D01*
X66753Y399568D01*
X65187Y398002D01*
X65153Y397983D01*
X65096Y397932D01*
X65033Y397888D01*
X64967Y397815D01*
X64895Y397749D01*
X64851Y397686D01*
X64800Y397629D01*
X64752Y397543D01*
X64696Y397463D01*
X64668Y397391D01*
X64631Y397324D01*
X64604Y397230D01*
X64568Y397138D01*
X64557Y397063D01*
X64536Y396989D01*
X64524Y396840D01*
X64518Y396794D01*
X64519Y396775D01*
X64517Y396745D01*
X64517Y396548D01*
X64531Y396423D01*
X64538Y396296D01*
X64551Y396250D01*
X64557Y396202D01*
X64599Y396083D01*
X64634Y395962D01*
X64658Y395919D01*
X64674Y395874D01*
X64743Y395768D01*
X64804Y395657D01*
X64844Y395611D01*
X64863Y395581D01*
X64898Y395548D01*
X64963Y395471D01*
X72891Y387543D01*
X72990Y387464D01*
X73084Y387380D01*
X73126Y387356D01*
X73164Y387326D01*
X73278Y387272D01*
X73389Y387211D01*
X73436Y387198D01*
X73479Y387177D01*
X73603Y387151D01*
X73724Y387116D01*
X73785Y387111D01*
X73820Y387104D01*
X73868Y387105D01*
X73968Y387097D01*
X124965Y387097D01*
X125041Y387106D01*
X125118Y387104D01*
X125214Y387125D01*
X125311Y387137D01*
X125383Y387162D01*
X125458Y387179D01*
X125547Y387221D01*
X125639Y387254D01*
X125704Y387296D01*
X125773Y387329D01*
X125850Y387390D01*
X125932Y387443D01*
X125986Y387498D01*
X126045Y387546D01*
X126106Y387623D01*
X126174Y387694D01*
X126212Y387756D01*
X127788Y389333D01*
X128802Y389753D01*
X128846Y389777D01*
X128894Y389794D01*
X128998Y389862D01*
X129107Y389922D01*
X129144Y389956D01*
X129187Y389983D01*
X129273Y390073D01*
X129365Y390156D01*
X129394Y390198D01*
X129429Y390234D01*
X129493Y390341D01*
X129563Y390443D01*
X129582Y390490D01*
X129608Y390533D01*
X129646Y390651D01*
X129691Y390767D01*
X129699Y390817D01*
X129714Y390865D01*
X129724Y390989D01*
X129742Y391112D01*
X129738Y391162D01*
X129742Y391212D01*
X129724Y391335D01*
X129713Y391459D01*
X129698Y391507D01*
X129690Y391557D01*
X129644Y391673D01*
X129606Y391791D01*
X129580Y391834D01*
X129562Y391881D01*
X129491Y391983D01*
X129426Y392089D01*
X129391Y392126D01*
X129363Y392167D01*
X129270Y392250D01*
X129184Y392339D01*
X129141Y392367D01*
X129104Y392400D01*
X128995Y392461D01*
X128890Y392528D01*
X128843Y392544D01*
X128799Y392569D01*
X128679Y392603D01*
X128562Y392644D01*
X128512Y392650D01*
X128463Y392664D01*
X128220Y392683D01*
X104463Y392683D01*
X83093Y414053D01*
X83093Y429259D01*
X83085Y429335D01*
X83086Y429411D01*
X83065Y429508D01*
X83053Y429605D01*
X83028Y429677D01*
X83011Y429752D01*
X82969Y429841D01*
X82936Y429933D01*
X82894Y429998D01*
X82862Y430067D01*
X82800Y430143D01*
X82747Y430226D01*
X82692Y430279D01*
X82644Y430339D01*
X82567Y430400D01*
X82496Y430468D01*
X82431Y430508D01*
X82371Y430555D01*
X82238Y430623D01*
X82197Y430647D01*
X82179Y430653D01*
X82153Y430666D01*
X80528Y431339D01*
X78119Y433748D01*
X76815Y436896D01*
X76815Y440304D01*
X78119Y443452D01*
X80528Y445861D01*
X83676Y447165D01*
X87084Y447165D01*
X90232Y445861D01*
X92641Y443452D01*
X93945Y440304D01*
X93945Y436896D01*
X92641Y433748D01*
X90232Y431339D01*
X88607Y430666D01*
X88540Y430629D01*
X88469Y430601D01*
X88388Y430545D01*
X88302Y430497D01*
X88246Y430446D01*
X88183Y430402D01*
X88117Y430329D01*
X88044Y430263D01*
X88001Y430200D01*
X87950Y430143D01*
X87902Y430057D01*
X87846Y429976D01*
X87818Y429905D01*
X87781Y429838D01*
X87754Y429743D01*
X87718Y429652D01*
X87707Y429576D01*
X87686Y429503D01*
X87674Y429354D01*
X87667Y429307D01*
X87669Y429288D01*
X87667Y429259D01*
X87667Y416578D01*
X87681Y416453D01*
X87688Y416326D01*
X87701Y416280D01*
X87707Y416232D01*
X87749Y416113D01*
X87784Y415992D01*
X87808Y415949D01*
X87824Y415904D01*
X87893Y415798D01*
X87954Y415687D01*
X87994Y415641D01*
X88013Y415611D01*
X88048Y415578D01*
X88113Y415501D01*
X105911Y397703D01*
X106010Y397624D01*
X106104Y397540D01*
X106146Y397516D01*
X106184Y397486D01*
X106298Y397432D01*
X106409Y397371D01*
X106456Y397358D01*
X106499Y397337D01*
X106623Y397311D01*
X106744Y397276D01*
X106805Y397271D01*
X106840Y397264D01*
X106888Y397265D01*
X106988Y397257D01*
X126191Y397257D01*
X126291Y397268D01*
X126392Y397270D01*
X126464Y397288D01*
X126538Y397297D01*
X126632Y397330D01*
X126730Y397355D01*
X126796Y397389D01*
X126866Y397414D01*
X126950Y397469D01*
X127039Y397515D01*
X127096Y397563D01*
X127159Y397603D01*
X127228Y397675D01*
X127305Y397740D01*
X127349Y397800D01*
X127401Y397854D01*
X127452Y397940D01*
X127512Y398021D01*
X127541Y398089D01*
X127580Y398153D01*
X127610Y398249D01*
X127650Y398341D01*
X127663Y398414D01*
X127686Y398485D01*
X127694Y398585D01*
X127712Y398684D01*
X127708Y398758D01*
X127714Y398832D01*
X127699Y398932D01*
X127694Y399032D01*
X127673Y399103D01*
X127662Y399177D01*
X127625Y399270D01*
X127597Y399367D01*
X127561Y399432D01*
X127533Y399501D01*
X127476Y399583D01*
X127427Y399671D01*
X127362Y399747D01*
X127334Y399787D01*
X127308Y399811D01*
X127268Y399857D01*
X125652Y401473D01*
X124840Y403434D01*
X124840Y405649D01*
X124851Y405686D01*
X124855Y405762D01*
X124868Y405838D01*
X124863Y405936D01*
X124868Y406034D01*
X124854Y406109D01*
X124850Y406186D01*
X124823Y406280D01*
X124805Y406377D01*
X124775Y406447D01*
X124754Y406521D01*
X124706Y406606D01*
X124667Y406697D01*
X124621Y406758D01*
X124584Y406825D01*
X124487Y406938D01*
X124459Y406976D01*
X124444Y406989D01*
X124425Y407011D01*
X116593Y414843D01*
X114807Y416629D01*
X114807Y431237D01*
X114796Y431337D01*
X114794Y431438D01*
X114776Y431510D01*
X114767Y431584D01*
X114733Y431678D01*
X114709Y431776D01*
X114675Y431842D01*
X114650Y431912D01*
X114595Y431996D01*
X114549Y432085D01*
X114501Y432142D01*
X114461Y432205D01*
X114389Y432274D01*
X114324Y432351D01*
X114264Y432395D01*
X114210Y432447D01*
X114124Y432498D01*
X114043Y432558D01*
X113975Y432587D01*
X113911Y432626D01*
X113815Y432656D01*
X113723Y432696D01*
X113650Y432709D01*
X113579Y432732D01*
X113479Y432740D01*
X113380Y432758D01*
X113306Y432754D01*
X113232Y432760D01*
X113132Y432745D01*
X113032Y432740D01*
X112961Y432719D01*
X112887Y432708D01*
X112794Y432671D01*
X112697Y432643D01*
X112632Y432607D01*
X112563Y432579D01*
X112481Y432522D01*
X112393Y432473D01*
X112317Y432408D01*
X112277Y432380D01*
X112253Y432354D01*
X112207Y432315D01*
X111232Y431339D01*
X108084Y430035D01*
X104676Y430035D01*
X101528Y431339D01*
X99119Y433748D01*
X97815Y436896D01*
X97815Y440304D01*
X99119Y443452D01*
X101528Y445861D01*
X104676Y447165D01*
X108084Y447165D01*
X111232Y445861D01*
X112207Y444885D01*
X112286Y444823D01*
X112358Y444753D01*
X112422Y444715D01*
X112480Y444669D01*
X112571Y444626D01*
X112657Y444574D01*
X112728Y444552D01*
X112795Y444520D01*
X112893Y444499D01*
X112989Y444468D01*
X113063Y444462D01*
X113136Y444447D01*
X113236Y444448D01*
X113336Y444440D01*
X113410Y444451D01*
X113484Y444452D01*
X113581Y444477D01*
X113681Y444492D01*
X113750Y444519D01*
X113822Y444537D01*
X113911Y444583D01*
X114005Y444621D01*
X114066Y444663D01*
X114132Y444697D01*
X114208Y444762D01*
X114291Y444820D01*
X114341Y444875D01*
X114397Y444923D01*
X114457Y445004D01*
X114524Y445078D01*
X114560Y445143D01*
X114605Y445203D01*
X114644Y445295D01*
X114693Y445383D01*
X114713Y445455D01*
X114743Y445523D01*
X114760Y445622D01*
X114788Y445719D01*
X114796Y445819D01*
X114804Y445866D01*
X114802Y445902D01*
X114807Y445963D01*
X114807Y449511D01*
X124085Y458789D01*
X124132Y458848D01*
X124187Y458902D01*
X124240Y458985D01*
X124301Y459062D01*
X124334Y459131D01*
X124375Y459195D01*
X124408Y459288D01*
X124450Y459377D01*
X124466Y459451D01*
X124492Y459524D01*
X124503Y459621D01*
X124524Y459717D01*
X124522Y459794D01*
X124531Y459870D01*
X124519Y459968D01*
X124518Y460066D01*
X124499Y460140D01*
X124490Y460216D01*
X124444Y460358D01*
X124433Y460404D01*
X124424Y460421D01*
X124415Y460449D01*
X123815Y461896D01*
X123815Y465304D01*
X125119Y468452D01*
X127528Y470861D01*
X130676Y472165D01*
X134084Y472165D01*
X137232Y470861D01*
X139641Y468452D01*
X140945Y465304D01*
X140945Y461896D01*
X139641Y458748D01*
X137232Y456339D01*
X134084Y455035D01*
X130676Y455035D01*
X128875Y455781D01*
X128802Y455802D01*
X128731Y455833D01*
X128635Y455850D01*
X128540Y455877D01*
X128464Y455881D01*
X128388Y455894D01*
X128290Y455889D01*
X128192Y455894D01*
X128117Y455880D01*
X128040Y455876D01*
X127946Y455849D01*
X127849Y455831D01*
X127779Y455801D01*
X127706Y455780D01*
X127620Y455732D01*
X127529Y455693D01*
X127468Y455647D01*
X127401Y455610D01*
X127288Y455513D01*
X127250Y455485D01*
X127237Y455470D01*
X127215Y455451D01*
X119827Y448063D01*
X119748Y447964D01*
X119664Y447870D01*
X119640Y447828D01*
X119610Y447790D01*
X119556Y447676D01*
X119495Y447565D01*
X119482Y447518D01*
X119461Y447475D01*
X119435Y447351D01*
X119400Y447230D01*
X119395Y447169D01*
X119388Y447134D01*
X119389Y447086D01*
X119381Y446986D01*
X119381Y445391D01*
X119392Y445291D01*
X119394Y445190D01*
X119412Y445118D01*
X119421Y445044D01*
X119454Y444950D01*
X119479Y444852D01*
X119513Y444786D01*
X119538Y444716D01*
X119593Y444632D01*
X119639Y444543D01*
X119687Y444486D01*
X119727Y444423D01*
X119799Y444354D01*
X119864Y444277D01*
X119924Y444233D01*
X119978Y444181D01*
X120064Y444130D01*
X120145Y444070D01*
X120213Y444041D01*
X120277Y444002D01*
X120373Y443972D01*
X120465Y443932D01*
X120538Y443919D01*
X120609Y443896D01*
X120709Y443888D01*
X120808Y443870D01*
X120882Y443874D01*
X120956Y443868D01*
X121056Y443883D01*
X121156Y443888D01*
X121227Y443909D01*
X121301Y443920D01*
X121394Y443957D01*
X121491Y443985D01*
X121556Y444021D01*
X121625Y444049D01*
X121707Y444106D01*
X121795Y444155D01*
X121871Y444220D01*
X121911Y444248D01*
X121935Y444274D01*
X121981Y444313D01*
X123528Y445861D01*
X126676Y447165D01*
X130084Y447165D01*
X133232Y445861D01*
X135641Y443452D01*
X136811Y440627D01*
X136812Y440625D01*
X136812Y440623D01*
X136847Y440561D01*
X136865Y440516D01*
X136902Y440462D01*
X136980Y440323D01*
X136981Y440321D01*
X136982Y440319D01*
X137141Y440133D01*
X138173Y439101D01*
X141307Y435967D01*
X141343Y435939D01*
X141373Y435905D01*
X141479Y435831D01*
X141580Y435750D01*
X141621Y435731D01*
X141658Y435705D01*
X141778Y435657D01*
X141895Y435601D01*
X141940Y435592D01*
X141982Y435575D01*
X142110Y435555D01*
X142236Y435528D01*
X142281Y435529D01*
X142326Y435522D01*
X142455Y435532D01*
X142584Y435534D01*
X142628Y435545D01*
X142674Y435549D01*
X142797Y435588D01*
X142922Y435619D01*
X142963Y435640D01*
X143006Y435654D01*
X143117Y435720D01*
X143232Y435779D01*
X143267Y435808D01*
X143306Y435831D01*
X143399Y435921D01*
X143497Y436005D01*
X143524Y436041D01*
X143557Y436073D01*
X143628Y436181D01*
X143705Y436285D01*
X143723Y436327D01*
X143738Y436351D01*
X151131Y436351D01*
X151131Y428952D01*
X151053Y428918D01*
X151017Y428890D01*
X150976Y428869D01*
X150878Y428786D01*
X150775Y428708D01*
X150745Y428673D01*
X150711Y428644D01*
X150634Y428540D01*
X150551Y428441D01*
X150531Y428400D01*
X150504Y428363D01*
X150452Y428245D01*
X150394Y428129D01*
X150384Y428085D01*
X150366Y428043D01*
X150343Y427916D01*
X150312Y427791D01*
X150312Y427745D01*
X150304Y427700D01*
X150311Y427571D01*
X150309Y427442D01*
X150319Y427398D01*
X150322Y427352D01*
X150358Y427228D01*
X150386Y427102D01*
X150406Y427061D01*
X150418Y427017D01*
X150481Y426905D01*
X150538Y426788D01*
X150566Y426753D01*
X150588Y426713D01*
X150747Y426527D01*
X183127Y394147D01*
X183226Y394068D01*
X183320Y393984D01*
X183362Y393960D01*
X183400Y393930D01*
X183514Y393876D01*
X183625Y393815D01*
X183672Y393802D01*
X183715Y393781D01*
X183839Y393755D01*
X183960Y393720D01*
X184021Y393715D01*
X184056Y393708D01*
X184104Y393709D01*
X184204Y393701D01*
X245035Y393701D01*
X245135Y393712D01*
X245235Y393714D01*
X245307Y393732D01*
X245381Y393741D01*
X245476Y393774D01*
X245573Y393799D01*
X245639Y393833D01*
X245709Y393858D01*
X245794Y393913D01*
X245883Y393959D01*
X245939Y394007D01*
X246002Y394047D01*
X246072Y394119D01*
X246148Y394184D01*
X246192Y394244D01*
X246244Y394298D01*
X246296Y394384D01*
X246355Y394465D01*
X246385Y394533D01*
X246423Y394597D01*
X246454Y394692D01*
X246493Y394785D01*
X246507Y394858D01*
X246529Y394929D01*
X246537Y395029D01*
X246555Y395128D01*
X246551Y395202D01*
X246557Y395276D01*
X246542Y395375D01*
X246537Y395476D01*
X246516Y395547D01*
X246505Y395621D01*
X246468Y395714D01*
X246440Y395811D01*
X246404Y395876D01*
X246377Y395945D01*
X246319Y396027D01*
X246270Y396115D01*
X246205Y396191D01*
X246178Y396231D01*
X246151Y396255D01*
X246112Y396301D01*
X245669Y396744D01*
X244658Y398135D01*
X243878Y399667D01*
X243346Y401302D01*
X243337Y401361D01*
X253024Y401361D01*
X253050Y401364D01*
X253076Y401362D01*
X253223Y401384D01*
X253370Y401401D01*
X253395Y401409D01*
X253421Y401413D01*
X253558Y401468D01*
X253698Y401518D01*
X253720Y401532D01*
X253745Y401542D01*
X253866Y401627D01*
X253991Y401707D01*
X254003Y401720D01*
X254050Y401675D01*
X254073Y401661D01*
X254092Y401644D01*
X254222Y401572D01*
X254349Y401496D01*
X254374Y401488D01*
X254397Y401475D01*
X254540Y401435D01*
X254681Y401390D01*
X254707Y401387D01*
X254732Y401380D01*
X254976Y401361D01*
X264663Y401361D01*
X264654Y401302D01*
X264122Y399667D01*
X263342Y398135D01*
X262331Y396744D01*
X261888Y396301D01*
X261826Y396223D01*
X261756Y396150D01*
X261718Y396086D01*
X261672Y396028D01*
X261629Y395937D01*
X261577Y395851D01*
X261554Y395780D01*
X261523Y395713D01*
X261501Y395615D01*
X261471Y395519D01*
X261465Y395445D01*
X261449Y395372D01*
X261451Y395272D01*
X261443Y395172D01*
X261454Y395098D01*
X261455Y395024D01*
X261480Y394926D01*
X261495Y394827D01*
X261522Y394758D01*
X261540Y394686D01*
X261586Y394597D01*
X261623Y394503D01*
X261666Y394442D01*
X261700Y394376D01*
X261765Y394300D01*
X261822Y394217D01*
X261877Y394167D01*
X261926Y394111D01*
X262006Y394051D01*
X262081Y393984D01*
X262146Y393948D01*
X262206Y393903D01*
X262298Y393864D01*
X262386Y393815D01*
X262458Y393795D01*
X262526Y393765D01*
X262625Y393748D01*
X262721Y393720D01*
X262821Y393712D01*
X262869Y393704D01*
X262905Y393706D01*
X262965Y393701D01*
X301683Y393701D01*
X303469Y391915D01*
X307364Y388020D01*
X307424Y387972D01*
X307477Y387918D01*
X307560Y387864D01*
X307637Y387803D01*
X307706Y387771D01*
X307771Y387729D01*
X307863Y387696D01*
X307952Y387654D01*
X308027Y387638D01*
X308099Y387613D01*
X308197Y387602D01*
X308293Y387581D01*
X308369Y387582D01*
X308445Y387574D01*
X308543Y387585D01*
X308641Y387587D01*
X308712Y387605D01*
X310941Y387605D01*
X312902Y386793D01*
X314403Y385292D01*
X315215Y383331D01*
X315215Y381209D01*
X314403Y379248D01*
X312837Y377682D01*
X312803Y377663D01*
X312746Y377612D01*
X312683Y377568D01*
X312617Y377495D01*
X312545Y377429D01*
X312501Y377366D01*
X312450Y377309D01*
X312402Y377223D01*
X312346Y377143D01*
X312318Y377071D01*
X312281Y377004D01*
X312254Y376910D01*
X312218Y376818D01*
X312207Y376743D01*
X312186Y376669D01*
X312174Y376520D01*
X312168Y376474D01*
X312169Y376455D01*
X312167Y376425D01*
X312167Y90493D01*
X310381Y88707D01*
X305470Y83796D01*
X305422Y83736D01*
X305368Y83683D01*
X305314Y83600D01*
X305253Y83523D01*
X305221Y83454D01*
X305179Y83389D01*
X305146Y83297D01*
X305104Y83208D01*
X305088Y83133D01*
X305063Y83061D01*
X305052Y82963D01*
X305031Y82867D01*
X305032Y82791D01*
X305024Y82715D01*
X305035Y82617D01*
X305037Y82519D01*
X305055Y82448D01*
X305055Y80219D01*
X304243Y78258D01*
X302742Y76757D01*
X300781Y75945D01*
X298659Y75945D01*
G37*
%LPD*%
%LPC*%
G36*
X86216Y76475D02*
X86216Y76475D01*
X83068Y77779D01*
X80659Y80188D01*
X79355Y83336D01*
X79355Y86744D01*
X80659Y89892D01*
X83068Y92301D01*
X86216Y93605D01*
X89624Y93605D01*
X91248Y92932D01*
X91322Y92911D01*
X91392Y92881D01*
X91489Y92863D01*
X91583Y92836D01*
X91660Y92832D01*
X91735Y92819D01*
X91833Y92824D01*
X91931Y92819D01*
X92006Y92833D01*
X92083Y92837D01*
X92177Y92864D01*
X92274Y92882D01*
X92344Y92912D01*
X92418Y92933D01*
X92504Y92981D01*
X92594Y93021D01*
X92655Y93066D01*
X92722Y93104D01*
X92836Y93200D01*
X92874Y93229D01*
X92886Y93243D01*
X92908Y93262D01*
X97597Y97951D01*
X97676Y98050D01*
X97760Y98144D01*
X97784Y98186D01*
X97814Y98224D01*
X97868Y98338D01*
X97929Y98449D01*
X97942Y98496D01*
X97963Y98539D01*
X97989Y98663D01*
X98024Y98784D01*
X98029Y98845D01*
X98036Y98880D01*
X98035Y98928D01*
X98043Y99028D01*
X98043Y102986D01*
X98038Y103031D01*
X98041Y103076D01*
X98018Y103204D01*
X98003Y103332D01*
X97988Y103375D01*
X97980Y103420D01*
X97929Y103539D01*
X97886Y103660D01*
X97861Y103698D01*
X97843Y103740D01*
X97767Y103844D01*
X97697Y103953D01*
X97664Y103984D01*
X97637Y104021D01*
X97539Y104105D01*
X97446Y104195D01*
X97407Y104218D01*
X97373Y104248D01*
X97258Y104308D01*
X97147Y104374D01*
X97104Y104388D01*
X97063Y104409D01*
X96938Y104441D01*
X96815Y104480D01*
X96770Y104484D01*
X96726Y104495D01*
X96596Y104498D01*
X96468Y104508D01*
X96423Y104501D01*
X96377Y104502D01*
X96251Y104476D01*
X96123Y104456D01*
X96081Y104440D01*
X96036Y104430D01*
X95919Y104375D01*
X95799Y104328D01*
X95762Y104302D01*
X95721Y104282D01*
X95619Y104202D01*
X95513Y104129D01*
X95483Y104095D01*
X95447Y104067D01*
X95288Y103881D01*
X95228Y103799D01*
X94162Y102732D01*
X92941Y101846D01*
X91598Y101161D01*
X90169Y100697D01*
X90169Y109314D01*
X90166Y109340D01*
X90168Y109366D01*
X90146Y109513D01*
X90129Y109660D01*
X90121Y109685D01*
X90117Y109711D01*
X90062Y109848D01*
X90012Y109988D01*
X89998Y110010D01*
X89988Y110035D01*
X89979Y110047D01*
X90034Y110139D01*
X90042Y110164D01*
X90055Y110187D01*
X90095Y110330D01*
X90140Y110471D01*
X90142Y110497D01*
X90150Y110522D01*
X90169Y110766D01*
X90169Y119383D01*
X91598Y118919D01*
X92941Y118234D01*
X94162Y117348D01*
X95228Y116281D01*
X95288Y116199D01*
X95318Y116165D01*
X95343Y116127D01*
X95436Y116037D01*
X95523Y115942D01*
X95561Y115917D01*
X95594Y115885D01*
X95705Y115819D01*
X95811Y115746D01*
X95854Y115729D01*
X95893Y115706D01*
X96016Y115667D01*
X96136Y115620D01*
X96181Y115614D01*
X96225Y115600D01*
X96354Y115590D01*
X96481Y115572D01*
X96527Y115576D01*
X96572Y115572D01*
X96700Y115591D01*
X96829Y115603D01*
X96872Y115617D01*
X96917Y115624D01*
X97037Y115671D01*
X97159Y115712D01*
X97198Y115736D01*
X97241Y115752D01*
X97347Y115826D01*
X97457Y115893D01*
X97489Y115925D01*
X97527Y115951D01*
X97613Y116047D01*
X97705Y116138D01*
X97730Y116176D01*
X97760Y116210D01*
X97823Y116323D01*
X97892Y116432D01*
X97907Y116475D01*
X97929Y116515D01*
X97964Y116640D01*
X98006Y116761D01*
X98011Y116807D01*
X98024Y116851D01*
X98043Y117094D01*
X98043Y246885D01*
X98035Y246961D01*
X98036Y247037D01*
X98015Y247134D01*
X98003Y247231D01*
X97978Y247303D01*
X97961Y247378D01*
X97919Y247467D01*
X97886Y247559D01*
X97844Y247624D01*
X97812Y247693D01*
X97750Y247769D01*
X97697Y247852D01*
X97642Y247905D01*
X97594Y247965D01*
X97517Y248026D01*
X97446Y248094D01*
X97384Y248132D01*
X95807Y249708D01*
X94995Y251669D01*
X94995Y253791D01*
X95807Y255752D01*
X97308Y257253D01*
X99269Y258065D01*
X101391Y258065D01*
X103557Y257168D01*
X103702Y257126D01*
X103845Y257080D01*
X103869Y257079D01*
X103892Y257072D01*
X104043Y257065D01*
X104192Y257053D01*
X104216Y257056D01*
X104240Y257055D01*
X104388Y257082D01*
X104537Y257104D01*
X104559Y257113D01*
X104583Y257117D01*
X104721Y257177D01*
X104861Y257233D01*
X104881Y257247D01*
X104903Y257256D01*
X105024Y257346D01*
X105147Y257432D01*
X105163Y257450D01*
X105183Y257464D01*
X105280Y257579D01*
X105380Y257691D01*
X105392Y257712D01*
X105408Y257730D01*
X105476Y257864D01*
X105549Y257996D01*
X105555Y258019D01*
X105566Y258041D01*
X105603Y258186D01*
X105644Y258331D01*
X105646Y258360D01*
X105651Y258379D01*
X105651Y258426D01*
X105663Y258575D01*
X105663Y293062D01*
X105649Y293187D01*
X105642Y293314D01*
X105629Y293360D01*
X105623Y293408D01*
X105581Y293527D01*
X105546Y293648D01*
X105522Y293691D01*
X105506Y293736D01*
X105437Y293842D01*
X105376Y293953D01*
X105336Y293999D01*
X105317Y294029D01*
X105282Y294062D01*
X105217Y294139D01*
X104116Y295240D01*
X104056Y295288D01*
X104003Y295342D01*
X103920Y295396D01*
X103843Y295457D01*
X103774Y295489D01*
X103709Y295531D01*
X103617Y295564D01*
X103528Y295606D01*
X103453Y295622D01*
X103381Y295647D01*
X103283Y295658D01*
X103187Y295679D01*
X103111Y295678D01*
X103035Y295686D01*
X102937Y295675D01*
X102839Y295673D01*
X102768Y295655D01*
X100539Y295655D01*
X98578Y296467D01*
X97077Y297968D01*
X96265Y299929D01*
X96265Y302051D01*
X97077Y304012D01*
X98693Y305628D01*
X98710Y305648D01*
X98730Y305665D01*
X98818Y305785D01*
X98910Y305901D01*
X98921Y305925D01*
X98937Y305946D01*
X98996Y306082D01*
X99059Y306216D01*
X99065Y306242D01*
X99075Y306266D01*
X99101Y306412D01*
X99132Y306557D01*
X99132Y306583D01*
X99137Y306609D01*
X99129Y306757D01*
X99126Y306905D01*
X99120Y306931D01*
X99119Y306957D01*
X99078Y307099D01*
X99041Y307243D01*
X99029Y307266D01*
X99022Y307292D01*
X98950Y307421D01*
X98882Y307553D01*
X98865Y307573D01*
X98852Y307596D01*
X98693Y307782D01*
X97077Y309398D01*
X96265Y311359D01*
X96265Y313481D01*
X97077Y315442D01*
X98578Y316943D01*
X100539Y317755D01*
X102661Y317755D01*
X104622Y316943D01*
X106123Y315442D01*
X106143Y315393D01*
X106180Y315326D01*
X106208Y315255D01*
X106264Y315174D01*
X106312Y315089D01*
X106363Y315032D01*
X106407Y314969D01*
X106480Y314903D01*
X106546Y314830D01*
X106609Y314787D01*
X106666Y314736D01*
X106752Y314688D01*
X106833Y314632D01*
X106904Y314604D01*
X106971Y314567D01*
X107066Y314540D01*
X107157Y314504D01*
X107233Y314493D01*
X107306Y314472D01*
X107455Y314460D01*
X107502Y314453D01*
X107521Y314455D01*
X107550Y314453D01*
X157687Y314453D01*
X157813Y314467D01*
X157939Y314474D01*
X157986Y314487D01*
X158034Y314493D01*
X158153Y314535D01*
X158274Y314570D01*
X158316Y314594D01*
X158362Y314610D01*
X158468Y314679D01*
X158578Y314740D01*
X158624Y314780D01*
X158654Y314799D01*
X158688Y314834D01*
X158764Y314899D01*
X159538Y315673D01*
X161499Y316485D01*
X163621Y316485D01*
X165582Y315673D01*
X167083Y314172D01*
X167895Y312211D01*
X167895Y310089D01*
X167083Y308128D01*
X165582Y306627D01*
X163621Y305815D01*
X161499Y305815D01*
X159538Y306627D01*
X158037Y308128D01*
X157702Y308939D01*
X157664Y309006D01*
X157636Y309077D01*
X157580Y309158D01*
X157532Y309244D01*
X157481Y309300D01*
X157437Y309363D01*
X157364Y309429D01*
X157298Y309502D01*
X157235Y309545D01*
X157178Y309596D01*
X157092Y309644D01*
X157011Y309700D01*
X156940Y309728D01*
X156873Y309765D01*
X156779Y309792D01*
X156687Y309828D01*
X156612Y309839D01*
X156538Y309860D01*
X156389Y309872D01*
X156342Y309879D01*
X156323Y309877D01*
X156294Y309879D01*
X107235Y309879D01*
X107109Y309865D01*
X106983Y309858D01*
X106937Y309845D01*
X106888Y309839D01*
X106769Y309797D01*
X106648Y309762D01*
X106606Y309738D01*
X106560Y309722D01*
X106454Y309653D01*
X106344Y309592D01*
X106298Y309552D01*
X106268Y309533D01*
X106234Y309498D01*
X106158Y309433D01*
X104507Y307782D01*
X104490Y307762D01*
X104470Y307745D01*
X104382Y307625D01*
X104290Y307509D01*
X104279Y307485D01*
X104263Y307464D01*
X104204Y307328D01*
X104141Y307194D01*
X104135Y307168D01*
X104125Y307144D01*
X104099Y306998D01*
X104068Y306853D01*
X104068Y306827D01*
X104063Y306801D01*
X104071Y306653D01*
X104074Y306505D01*
X104080Y306479D01*
X104081Y306453D01*
X104122Y306311D01*
X104159Y306167D01*
X104171Y306144D01*
X104178Y306118D01*
X104250Y305989D01*
X104318Y305857D01*
X104335Y305837D01*
X104348Y305814D01*
X104507Y305628D01*
X106123Y304012D01*
X106935Y302051D01*
X106935Y299836D01*
X106924Y299799D01*
X106920Y299723D01*
X106907Y299647D01*
X106912Y299549D01*
X106907Y299451D01*
X106921Y299376D01*
X106925Y299299D01*
X106952Y299205D01*
X106970Y299108D01*
X107000Y299038D01*
X107021Y298964D01*
X107069Y298879D01*
X107108Y298788D01*
X107154Y298727D01*
X107191Y298660D01*
X107288Y298547D01*
X107316Y298509D01*
X107331Y298496D01*
X107350Y298474D01*
X110237Y295587D01*
X110237Y282248D01*
X110248Y282148D01*
X110250Y282048D01*
X110268Y281976D01*
X110277Y281902D01*
X110310Y281807D01*
X110335Y281710D01*
X110369Y281644D01*
X110394Y281574D01*
X110449Y281489D01*
X110495Y281400D01*
X110543Y281343D01*
X110583Y281281D01*
X110655Y281211D01*
X110720Y281135D01*
X110780Y281091D01*
X110834Y281039D01*
X110920Y280987D01*
X111001Y280928D01*
X111069Y280898D01*
X111133Y280860D01*
X111229Y280829D01*
X111321Y280790D01*
X111394Y280776D01*
X111465Y280754D01*
X111565Y280746D01*
X111664Y280728D01*
X111738Y280732D01*
X111812Y280726D01*
X111912Y280741D01*
X112012Y280746D01*
X112083Y280766D01*
X112157Y280777D01*
X112250Y280815D01*
X112347Y280842D01*
X112412Y280879D01*
X112481Y280906D01*
X112563Y280963D01*
X112651Y281013D01*
X112727Y281078D01*
X112767Y281105D01*
X112791Y281132D01*
X112837Y281171D01*
X117477Y285811D01*
X117525Y285871D01*
X117580Y285924D01*
X117633Y286007D01*
X117694Y286084D01*
X117727Y286153D01*
X117768Y286218D01*
X117801Y286310D01*
X117843Y286399D01*
X117859Y286474D01*
X117884Y286546D01*
X117895Y286644D01*
X117916Y286740D01*
X117915Y286816D01*
X117923Y286892D01*
X117912Y286990D01*
X117910Y287088D01*
X117892Y287163D01*
X117883Y287239D01*
X117855Y287323D01*
X117855Y289478D01*
X118667Y291439D01*
X120168Y292940D01*
X122129Y293752D01*
X124251Y293752D01*
X126212Y292940D01*
X127713Y291439D01*
X128525Y289478D01*
X128525Y287356D01*
X127713Y285395D01*
X126212Y283894D01*
X124251Y283082D01*
X121847Y283082D01*
X121722Y283068D01*
X121595Y283061D01*
X121549Y283048D01*
X121501Y283042D01*
X121382Y283000D01*
X121261Y282965D01*
X121218Y282941D01*
X121173Y282925D01*
X121067Y282856D01*
X120956Y282795D01*
X120910Y282755D01*
X120880Y282736D01*
X120847Y282701D01*
X120770Y282636D01*
X117033Y278899D01*
X116954Y278800D01*
X116870Y278706D01*
X116846Y278664D01*
X116816Y278626D01*
X116762Y278512D01*
X116701Y278401D01*
X116688Y278354D01*
X116667Y278311D01*
X116641Y278187D01*
X116606Y278066D01*
X116601Y278005D01*
X116594Y277970D01*
X116595Y277922D01*
X116587Y277822D01*
X116587Y272545D01*
X116604Y272396D01*
X116616Y272246D01*
X116624Y272223D01*
X116627Y272199D01*
X116678Y272056D01*
X116723Y271914D01*
X116736Y271893D01*
X116744Y271871D01*
X116826Y271744D01*
X116903Y271615D01*
X116920Y271598D01*
X116933Y271578D01*
X117042Y271472D01*
X117146Y271365D01*
X117166Y271352D01*
X117184Y271336D01*
X117313Y271258D01*
X117439Y271177D01*
X117462Y271169D01*
X117483Y271157D01*
X117626Y271111D01*
X117768Y271061D01*
X117792Y271058D01*
X117815Y271050D01*
X117964Y271038D01*
X118114Y271022D01*
X118138Y271024D01*
X118162Y271023D01*
X118311Y271045D01*
X118460Y271062D01*
X118488Y271071D01*
X118507Y271074D01*
X118551Y271092D01*
X118693Y271138D01*
X120859Y272035D01*
X122981Y272035D01*
X124942Y271223D01*
X126508Y269656D01*
X126527Y269622D01*
X126578Y269566D01*
X126622Y269503D01*
X126695Y269437D01*
X126761Y269364D01*
X126824Y269321D01*
X126881Y269270D01*
X126967Y269222D01*
X127048Y269166D01*
X127119Y269138D01*
X127186Y269101D01*
X127281Y269074D01*
X127372Y269038D01*
X127448Y269027D01*
X127521Y269006D01*
X127670Y268994D01*
X127717Y268987D01*
X127736Y268989D01*
X127765Y268987D01*
X227007Y268987D01*
X229101Y266893D01*
X229200Y266814D01*
X229294Y266730D01*
X229336Y266706D01*
X229374Y266676D01*
X229488Y266622D01*
X229599Y266561D01*
X229646Y266548D01*
X229689Y266527D01*
X229813Y266501D01*
X229934Y266466D01*
X229995Y266461D01*
X230030Y266454D01*
X230078Y266455D01*
X230178Y266447D01*
X246726Y266447D01*
X246825Y266458D01*
X246926Y266460D01*
X246998Y266478D01*
X247072Y266487D01*
X247166Y266520D01*
X247264Y266545D01*
X247330Y266579D01*
X247400Y266604D01*
X247484Y266659D01*
X247574Y266705D01*
X247630Y266753D01*
X247693Y266793D01*
X247763Y266865D01*
X247839Y266930D01*
X247883Y266990D01*
X247935Y267044D01*
X247986Y267130D01*
X248046Y267211D01*
X248076Y267279D01*
X248114Y267343D01*
X248144Y267439D01*
X248184Y267531D01*
X248197Y267604D01*
X248220Y267675D01*
X248228Y267775D01*
X248246Y267874D01*
X248242Y267948D01*
X248248Y268022D01*
X248233Y268122D01*
X248228Y268222D01*
X248207Y268293D01*
X248196Y268367D01*
X248159Y268460D01*
X248131Y268557D01*
X248095Y268622D01*
X248068Y268691D01*
X248010Y268773D01*
X247961Y268861D01*
X247896Y268937D01*
X247869Y268977D01*
X247842Y269001D01*
X247803Y269047D01*
X245601Y271248D01*
X244093Y274889D01*
X244093Y278831D01*
X245601Y282472D01*
X248388Y285259D01*
X252029Y286767D01*
X255971Y286767D01*
X259612Y285259D01*
X262399Y282472D01*
X263907Y278831D01*
X263907Y274889D01*
X262399Y271248D01*
X260197Y269047D01*
X260135Y268969D01*
X260065Y268896D01*
X260027Y268832D01*
X259981Y268774D01*
X259938Y268683D01*
X259886Y268597D01*
X259864Y268526D01*
X259832Y268459D01*
X259811Y268361D01*
X259780Y268265D01*
X259774Y268191D01*
X259758Y268118D01*
X259760Y268018D01*
X259752Y267918D01*
X259763Y267844D01*
X259764Y267770D01*
X259789Y267673D01*
X259804Y267573D01*
X259831Y267504D01*
X259849Y267432D01*
X259895Y267343D01*
X259932Y267249D01*
X259975Y267188D01*
X260009Y267122D01*
X260074Y267046D01*
X260131Y266963D01*
X260187Y266913D01*
X260235Y266857D01*
X260316Y266797D01*
X260390Y266730D01*
X260455Y266694D01*
X260515Y266649D01*
X260607Y266610D01*
X260695Y266561D01*
X260767Y266541D01*
X260835Y266511D01*
X260934Y266494D01*
X261031Y266466D01*
X261131Y266458D01*
X261178Y266450D01*
X261214Y266452D01*
X261274Y266447D01*
X272285Y266447D01*
X272361Y266455D01*
X272437Y266454D01*
X272534Y266475D01*
X272631Y266487D01*
X272703Y266512D01*
X272778Y266529D01*
X272867Y266571D01*
X272959Y266604D01*
X273024Y266646D01*
X273093Y266678D01*
X273169Y266740D01*
X273252Y266793D01*
X273305Y266848D01*
X273365Y266896D01*
X273426Y266973D01*
X273494Y267044D01*
X273532Y267106D01*
X275108Y268683D01*
X277069Y269495D01*
X279191Y269495D01*
X281152Y268683D01*
X282653Y267182D01*
X283465Y265221D01*
X283465Y263099D01*
X282653Y261138D01*
X281152Y259637D01*
X279191Y258825D01*
X277069Y258825D01*
X275108Y259637D01*
X273542Y261204D01*
X273523Y261238D01*
X273472Y261294D01*
X273428Y261357D01*
X273355Y261423D01*
X273289Y261496D01*
X273226Y261539D01*
X273169Y261590D01*
X273083Y261638D01*
X273002Y261694D01*
X272931Y261722D01*
X272864Y261759D01*
X272769Y261786D01*
X272678Y261822D01*
X272602Y261833D01*
X272529Y261854D01*
X272380Y261866D01*
X272333Y261873D01*
X272314Y261871D01*
X272285Y261873D01*
X261274Y261873D01*
X261175Y261862D01*
X261074Y261860D01*
X261002Y261842D01*
X260928Y261833D01*
X260834Y261800D01*
X260736Y261775D01*
X260670Y261741D01*
X260600Y261716D01*
X260516Y261661D01*
X260426Y261615D01*
X260370Y261567D01*
X260307Y261527D01*
X260237Y261455D01*
X260161Y261390D01*
X260117Y261330D01*
X260065Y261276D01*
X260014Y261190D01*
X259954Y261109D01*
X259924Y261041D01*
X259886Y260977D01*
X259856Y260881D01*
X259816Y260789D01*
X259803Y260716D01*
X259780Y260645D01*
X259772Y260545D01*
X259754Y260446D01*
X259758Y260372D01*
X259752Y260298D01*
X259767Y260198D01*
X259772Y260098D01*
X259793Y260027D01*
X259804Y259953D01*
X259841Y259860D01*
X259869Y259763D01*
X259905Y259698D01*
X259932Y259629D01*
X259990Y259547D01*
X260039Y259459D01*
X260104Y259383D01*
X260131Y259343D01*
X260158Y259319D01*
X260197Y259273D01*
X262399Y257072D01*
X263907Y253431D01*
X263907Y249489D01*
X262399Y245848D01*
X259612Y243061D01*
X255971Y241553D01*
X252029Y241553D01*
X248388Y243061D01*
X245601Y245848D01*
X244093Y249489D01*
X244093Y253431D01*
X245601Y257072D01*
X247803Y259273D01*
X247865Y259351D01*
X247935Y259424D01*
X247973Y259488D01*
X248019Y259546D01*
X248062Y259637D01*
X248114Y259723D01*
X248136Y259794D01*
X248168Y259861D01*
X248189Y259959D01*
X248220Y260055D01*
X248226Y260129D01*
X248242Y260202D01*
X248240Y260302D01*
X248248Y260402D01*
X248237Y260476D01*
X248236Y260550D01*
X248211Y260647D01*
X248196Y260747D01*
X248169Y260816D01*
X248151Y260888D01*
X248105Y260977D01*
X248068Y261071D01*
X248025Y261132D01*
X247991Y261198D01*
X247926Y261274D01*
X247869Y261357D01*
X247813Y261407D01*
X247765Y261463D01*
X247684Y261523D01*
X247610Y261590D01*
X247545Y261626D01*
X247485Y261671D01*
X247393Y261710D01*
X247305Y261759D01*
X247233Y261779D01*
X247165Y261809D01*
X247066Y261826D01*
X246969Y261854D01*
X246869Y261862D01*
X246822Y261870D01*
X246786Y261868D01*
X246726Y261873D01*
X227653Y261873D01*
X225559Y263967D01*
X225460Y264046D01*
X225366Y264130D01*
X225324Y264154D01*
X225286Y264184D01*
X225172Y264238D01*
X225061Y264299D01*
X225014Y264312D01*
X224971Y264333D01*
X224847Y264359D01*
X224726Y264394D01*
X224665Y264399D01*
X224630Y264406D01*
X224582Y264405D01*
X224482Y264413D01*
X127765Y264413D01*
X127689Y264405D01*
X127613Y264406D01*
X127516Y264385D01*
X127419Y264373D01*
X127347Y264348D01*
X127272Y264331D01*
X127183Y264289D01*
X127091Y264256D01*
X127026Y264214D01*
X126957Y264182D01*
X126881Y264120D01*
X126798Y264067D01*
X126745Y264012D01*
X126685Y263964D01*
X126624Y263887D01*
X126556Y263816D01*
X126518Y263754D01*
X124942Y262177D01*
X122981Y261365D01*
X120859Y261365D01*
X118693Y262262D01*
X118548Y262304D01*
X118405Y262350D01*
X118381Y262351D01*
X118358Y262358D01*
X118207Y262365D01*
X118058Y262377D01*
X118034Y262374D01*
X118010Y262375D01*
X117862Y262348D01*
X117713Y262326D01*
X117691Y262317D01*
X117667Y262313D01*
X117529Y262253D01*
X117389Y262197D01*
X117369Y262183D01*
X117347Y262174D01*
X117226Y262084D01*
X117103Y261998D01*
X117087Y261980D01*
X117067Y261966D01*
X116970Y261851D01*
X116870Y261739D01*
X116858Y261718D01*
X116842Y261700D01*
X116774Y261566D01*
X116701Y261434D01*
X116695Y261411D01*
X116684Y261389D01*
X116647Y261244D01*
X116606Y261099D01*
X116604Y261070D01*
X116599Y261051D01*
X116599Y261004D01*
X116587Y260855D01*
X116587Y197615D01*
X116596Y197539D01*
X116594Y197462D01*
X116615Y197366D01*
X116627Y197269D01*
X116652Y197197D01*
X116669Y197122D01*
X116711Y197033D01*
X116744Y196941D01*
X116786Y196876D01*
X116819Y196807D01*
X116880Y196730D01*
X116933Y196648D01*
X116988Y196594D01*
X117036Y196535D01*
X117113Y196474D01*
X117184Y196406D01*
X117246Y196368D01*
X118823Y194792D01*
X119635Y192831D01*
X119635Y190709D01*
X118823Y188748D01*
X117257Y187182D01*
X117223Y187163D01*
X117166Y187112D01*
X117103Y187068D01*
X117037Y186995D01*
X116965Y186929D01*
X116921Y186866D01*
X116870Y186809D01*
X116822Y186723D01*
X116766Y186643D01*
X116738Y186571D01*
X116701Y186504D01*
X116674Y186410D01*
X116638Y186318D01*
X116627Y186243D01*
X116606Y186169D01*
X116594Y186020D01*
X116588Y185974D01*
X116589Y185955D01*
X116587Y185925D01*
X116587Y155248D01*
X116601Y155123D01*
X116608Y154996D01*
X116621Y154950D01*
X116627Y154902D01*
X116669Y154783D01*
X116704Y154662D01*
X116728Y154619D01*
X116744Y154574D01*
X116813Y154468D01*
X116874Y154357D01*
X116914Y154311D01*
X116933Y154281D01*
X116968Y154248D01*
X117033Y154171D01*
X147575Y123629D01*
X147575Y117485D01*
X147586Y117385D01*
X147588Y117284D01*
X147606Y117212D01*
X147615Y117138D01*
X147649Y117044D01*
X147673Y116946D01*
X147707Y116880D01*
X147732Y116810D01*
X147787Y116726D01*
X147833Y116637D01*
X147881Y116580D01*
X147921Y116517D01*
X147993Y116448D01*
X148058Y116371D01*
X148118Y116327D01*
X148172Y116275D01*
X148258Y116224D01*
X148339Y116164D01*
X148407Y116135D01*
X148471Y116096D01*
X148567Y116066D01*
X148659Y116026D01*
X148732Y116013D01*
X148803Y115990D01*
X148903Y115982D01*
X149002Y115964D01*
X149076Y115968D01*
X149150Y115962D01*
X149250Y115977D01*
X149350Y115982D01*
X149421Y116003D01*
X149495Y116014D01*
X149588Y116051D01*
X149685Y116079D01*
X149750Y116115D01*
X149819Y116143D01*
X149901Y116200D01*
X149989Y116249D01*
X150065Y116314D01*
X150105Y116342D01*
X150129Y116368D01*
X150175Y116407D01*
X151068Y117301D01*
X154216Y118605D01*
X157624Y118605D01*
X160772Y117301D01*
X163181Y114892D01*
X164485Y111744D01*
X164485Y108336D01*
X163181Y105188D01*
X160772Y102779D01*
X157624Y101475D01*
X154216Y101475D01*
X151068Y102779D01*
X150175Y103673D01*
X150096Y103735D01*
X150024Y103805D01*
X149960Y103843D01*
X149902Y103889D01*
X149811Y103932D01*
X149725Y103984D01*
X149654Y104006D01*
X149587Y104038D01*
X149489Y104059D01*
X149393Y104090D01*
X149319Y104096D01*
X149246Y104111D01*
X149146Y104110D01*
X149046Y104118D01*
X148972Y104107D01*
X148898Y104106D01*
X148801Y104081D01*
X148701Y104066D01*
X148632Y104039D01*
X148560Y104021D01*
X148471Y103975D01*
X148377Y103937D01*
X148316Y103895D01*
X148250Y103861D01*
X148174Y103796D01*
X148091Y103738D01*
X148041Y103683D01*
X147985Y103635D01*
X147925Y103554D01*
X147858Y103480D01*
X147822Y103415D01*
X147777Y103355D01*
X147738Y103263D01*
X147689Y103175D01*
X147669Y103103D01*
X147639Y103035D01*
X147622Y102936D01*
X147594Y102839D01*
X147586Y102739D01*
X147578Y102692D01*
X147580Y102656D01*
X147575Y102595D01*
X147575Y95050D01*
X147589Y94925D01*
X147596Y94798D01*
X147609Y94752D01*
X147615Y94704D01*
X147657Y94585D01*
X147692Y94464D01*
X147716Y94421D01*
X147732Y94376D01*
X147801Y94270D01*
X147862Y94159D01*
X147902Y94113D01*
X147921Y94083D01*
X147956Y94050D01*
X148021Y93973D01*
X149376Y92618D01*
X149436Y92570D01*
X149489Y92515D01*
X149572Y92462D01*
X149649Y92401D01*
X149718Y92368D01*
X149783Y92327D01*
X149875Y92294D01*
X149964Y92252D01*
X150039Y92236D01*
X150111Y92210D01*
X150209Y92199D01*
X150305Y92179D01*
X150381Y92180D01*
X150457Y92172D01*
X150555Y92183D01*
X150654Y92185D01*
X150728Y92203D01*
X150804Y92212D01*
X150946Y92258D01*
X150991Y92270D01*
X151009Y92279D01*
X151036Y92287D01*
X154216Y93605D01*
X157624Y93605D01*
X160772Y92301D01*
X163181Y89892D01*
X164485Y86744D01*
X164485Y83336D01*
X163181Y80188D01*
X160772Y77779D01*
X157624Y76475D01*
X154216Y76475D01*
X151068Y77779D01*
X148659Y80188D01*
X147355Y83336D01*
X147355Y86744D01*
X147384Y86812D01*
X147405Y86886D01*
X147435Y86956D01*
X147452Y87053D01*
X147479Y87148D01*
X147483Y87224D01*
X147497Y87299D01*
X147492Y87398D01*
X147496Y87496D01*
X147483Y87571D01*
X147479Y87647D01*
X147452Y87742D01*
X147434Y87838D01*
X147403Y87909D01*
X147382Y87982D01*
X147334Y88068D01*
X147295Y88158D01*
X147249Y88220D01*
X147212Y88286D01*
X147115Y88400D01*
X147087Y88438D01*
X147073Y88450D01*
X147054Y88472D01*
X145154Y90372D01*
X145114Y90404D01*
X145080Y90441D01*
X144978Y90512D01*
X144881Y90589D01*
X144835Y90611D01*
X144794Y90639D01*
X144678Y90685D01*
X144566Y90738D01*
X144516Y90749D01*
X144469Y90767D01*
X144346Y90785D01*
X144225Y90811D01*
X144175Y90810D01*
X144125Y90818D01*
X144000Y90808D01*
X143876Y90805D01*
X143828Y90793D01*
X143777Y90789D01*
X143659Y90751D01*
X143538Y90720D01*
X143494Y90697D01*
X143446Y90682D01*
X143339Y90618D01*
X143229Y90561D01*
X143190Y90528D01*
X143147Y90502D01*
X143058Y90416D01*
X142963Y90335D01*
X142933Y90294D01*
X142897Y90259D01*
X142830Y90155D01*
X142756Y90055D01*
X142736Y90008D01*
X142709Y89966D01*
X142667Y89849D01*
X142618Y89735D01*
X142609Y89685D01*
X142592Y89638D01*
X142578Y89514D01*
X142556Y89392D01*
X142559Y89341D01*
X142553Y89291D01*
X142568Y89168D01*
X142574Y89044D01*
X142588Y88995D01*
X142594Y88945D01*
X142669Y88712D01*
X143485Y86744D01*
X143485Y83336D01*
X142181Y80188D01*
X139772Y77779D01*
X136624Y76475D01*
X133216Y76475D01*
X130068Y77779D01*
X127659Y80188D01*
X126355Y83336D01*
X126355Y86744D01*
X127659Y89892D01*
X130068Y92301D01*
X133216Y93605D01*
X136624Y93605D01*
X139772Y92301D01*
X140401Y91671D01*
X140480Y91609D01*
X140552Y91539D01*
X140616Y91501D01*
X140674Y91455D01*
X140765Y91412D01*
X140851Y91360D01*
X140922Y91338D01*
X140989Y91306D01*
X141087Y91285D01*
X141183Y91254D01*
X141257Y91248D01*
X141330Y91233D01*
X141430Y91234D01*
X141530Y91226D01*
X141604Y91237D01*
X141678Y91238D01*
X141775Y91263D01*
X141875Y91278D01*
X141944Y91305D01*
X142016Y91323D01*
X142105Y91370D01*
X142199Y91407D01*
X142260Y91449D01*
X142326Y91483D01*
X142403Y91548D01*
X142485Y91606D01*
X142535Y91661D01*
X142591Y91709D01*
X142651Y91790D01*
X142718Y91864D01*
X142754Y91929D01*
X142799Y91989D01*
X142838Y92081D01*
X142887Y92169D01*
X142907Y92241D01*
X142937Y92309D01*
X142954Y92408D01*
X142982Y92505D01*
X142990Y92605D01*
X142998Y92652D01*
X142996Y92688D01*
X143001Y92749D01*
X143001Y102331D01*
X142990Y102431D01*
X142988Y102532D01*
X142970Y102604D01*
X142961Y102678D01*
X142928Y102772D01*
X142903Y102870D01*
X142869Y102936D01*
X142844Y103006D01*
X142789Y103090D01*
X142743Y103179D01*
X142695Y103236D01*
X142655Y103299D01*
X142583Y103368D01*
X142518Y103445D01*
X142458Y103489D01*
X142404Y103541D01*
X142318Y103592D01*
X142237Y103652D01*
X142169Y103681D01*
X142105Y103720D01*
X142010Y103750D01*
X141917Y103790D01*
X141844Y103803D01*
X141773Y103826D01*
X141673Y103834D01*
X141574Y103852D01*
X141500Y103848D01*
X141426Y103854D01*
X141326Y103839D01*
X141226Y103834D01*
X141155Y103813D01*
X141081Y103802D01*
X140988Y103765D01*
X140891Y103737D01*
X140826Y103701D01*
X140757Y103673D01*
X140675Y103616D01*
X140587Y103567D01*
X140511Y103502D01*
X140471Y103474D01*
X140447Y103448D01*
X140401Y103409D01*
X139772Y102779D01*
X136624Y101475D01*
X133216Y101475D01*
X130068Y102779D01*
X127659Y105188D01*
X126355Y108336D01*
X126355Y111744D01*
X127028Y113368D01*
X127049Y113442D01*
X127079Y113512D01*
X127097Y113609D01*
X127124Y113703D01*
X127128Y113780D01*
X127141Y113855D01*
X127136Y113953D01*
X127141Y114051D01*
X127127Y114126D01*
X127123Y114203D01*
X127096Y114297D01*
X127078Y114394D01*
X127048Y114464D01*
X127027Y114538D01*
X126979Y114624D01*
X126939Y114714D01*
X126894Y114775D01*
X126856Y114842D01*
X126760Y114956D01*
X126731Y114994D01*
X126717Y115006D01*
X126698Y115028D01*
X107449Y134277D01*
X105663Y136063D01*
X105663Y246885D01*
X105652Y246985D01*
X105650Y247085D01*
X105632Y247157D01*
X105623Y247231D01*
X105590Y247326D01*
X105565Y247423D01*
X105531Y247489D01*
X105506Y247559D01*
X105451Y247644D01*
X105405Y247733D01*
X105357Y247790D01*
X105317Y247852D01*
X105245Y247922D01*
X105180Y247999D01*
X105120Y248043D01*
X105066Y248094D01*
X104980Y248146D01*
X104899Y248206D01*
X104831Y248235D01*
X104767Y248273D01*
X104671Y248304D01*
X104579Y248344D01*
X104506Y248357D01*
X104435Y248380D01*
X104335Y248388D01*
X104236Y248405D01*
X104162Y248402D01*
X104088Y248407D01*
X103988Y248393D01*
X103888Y248387D01*
X103817Y248367D01*
X103743Y248356D01*
X103650Y248319D01*
X103553Y248291D01*
X103488Y248255D01*
X103419Y248227D01*
X103337Y248170D01*
X103249Y248121D01*
X103173Y248056D01*
X103133Y248028D01*
X103109Y248002D01*
X103063Y247962D01*
X102984Y247863D01*
X102974Y247852D01*
X102900Y247769D01*
X102876Y247727D01*
X102846Y247689D01*
X102792Y247575D01*
X102731Y247464D01*
X102718Y247418D01*
X102697Y247374D01*
X102671Y247251D01*
X102636Y247129D01*
X102631Y247068D01*
X102624Y247033D01*
X102625Y246985D01*
X102617Y246885D01*
X102617Y115204D01*
X102622Y115154D01*
X102620Y115104D01*
X102642Y114982D01*
X102657Y114858D01*
X102674Y114811D01*
X102683Y114761D01*
X102732Y114647D01*
X102774Y114530D01*
X102801Y114488D01*
X102822Y114441D01*
X102896Y114342D01*
X102963Y114237D01*
X102999Y114202D01*
X103029Y114162D01*
X103124Y114081D01*
X103214Y113995D01*
X103257Y113969D01*
X103295Y113937D01*
X103406Y113880D01*
X103513Y113816D01*
X103561Y113801D01*
X103606Y113778D01*
X103726Y113748D01*
X103845Y113710D01*
X103895Y113706D01*
X103944Y113694D01*
X104068Y113692D01*
X104192Y113682D01*
X104242Y113689D01*
X104292Y113689D01*
X104414Y113715D01*
X104537Y113734D01*
X104584Y113752D01*
X104633Y113763D01*
X104745Y113816D01*
X104861Y113862D01*
X104902Y113891D01*
X104948Y113913D01*
X105045Y113990D01*
X105147Y114061D01*
X105181Y114099D01*
X105220Y114130D01*
X105297Y114228D01*
X105380Y114320D01*
X105405Y114364D01*
X105436Y114404D01*
X105547Y114621D01*
X105659Y114892D01*
X108068Y117301D01*
X111216Y118605D01*
X114624Y118605D01*
X117772Y117301D01*
X120181Y114892D01*
X121485Y111744D01*
X121485Y108336D01*
X120181Y105188D01*
X117772Y102779D01*
X114624Y101475D01*
X111216Y101475D01*
X108068Y102779D01*
X105659Y105188D01*
X105547Y105459D01*
X105523Y105503D01*
X105506Y105550D01*
X105438Y105655D01*
X105378Y105763D01*
X105344Y105801D01*
X105317Y105843D01*
X105227Y105929D01*
X105144Y106021D01*
X105102Y106050D01*
X105066Y106085D01*
X104960Y106149D01*
X104857Y106220D01*
X104810Y106238D01*
X104767Y106264D01*
X104649Y106302D01*
X104533Y106347D01*
X104483Y106355D01*
X104435Y106370D01*
X104311Y106380D01*
X104188Y106398D01*
X104138Y106394D01*
X104088Y106398D01*
X103965Y106380D01*
X103841Y106369D01*
X103793Y106354D01*
X103743Y106346D01*
X103628Y106300D01*
X103509Y106262D01*
X103466Y106236D01*
X103419Y106218D01*
X103317Y106147D01*
X103211Y106083D01*
X103174Y106047D01*
X103133Y106019D01*
X103050Y105927D01*
X102961Y105840D01*
X102933Y105797D01*
X102900Y105760D01*
X102840Y105651D01*
X102772Y105546D01*
X102755Y105499D01*
X102731Y105455D01*
X102697Y105335D01*
X102656Y105218D01*
X102650Y105168D01*
X102636Y105120D01*
X102617Y104876D01*
X102617Y96503D01*
X100831Y94717D01*
X96142Y90028D01*
X96095Y89968D01*
X96040Y89915D01*
X95987Y89832D01*
X95925Y89755D01*
X95893Y89686D01*
X95851Y89622D01*
X95819Y89529D01*
X95777Y89440D01*
X95760Y89365D01*
X95735Y89293D01*
X95724Y89195D01*
X95703Y89099D01*
X95704Y89023D01*
X95696Y88947D01*
X95707Y88849D01*
X95709Y88751D01*
X95728Y88677D01*
X95737Y88601D01*
X95783Y88459D01*
X95794Y88413D01*
X95803Y88396D01*
X95812Y88368D01*
X96485Y86744D01*
X96485Y83336D01*
X95181Y80188D01*
X92772Y77779D01*
X89624Y76475D01*
X86216Y76475D01*
G37*
%LPD*%
%LPC*%
G36*
X334219Y310895D02*
X334219Y310895D01*
X332258Y311707D01*
X330757Y313208D01*
X329945Y315169D01*
X329945Y317291D01*
X330757Y319252D01*
X332258Y320753D01*
X334219Y321565D01*
X336341Y321565D01*
X338302Y320753D01*
X339330Y319725D01*
X339429Y319646D01*
X339522Y319562D01*
X339565Y319538D01*
X339603Y319508D01*
X339717Y319454D01*
X339827Y319393D01*
X339874Y319380D01*
X339918Y319359D01*
X340041Y319333D01*
X340163Y319298D01*
X340224Y319293D01*
X340258Y319286D01*
X340306Y319287D01*
X340407Y319279D01*
X443876Y319279D01*
X444002Y319293D01*
X444128Y319300D01*
X444174Y319313D01*
X444222Y319319D01*
X444341Y319361D01*
X444463Y319396D01*
X444505Y319420D01*
X444551Y319436D01*
X444657Y319505D01*
X444767Y319566D01*
X444813Y319606D01*
X444843Y319625D01*
X444877Y319660D01*
X444953Y319725D01*
X447635Y322407D01*
X447683Y322467D01*
X447737Y322520D01*
X447791Y322603D01*
X447852Y322680D01*
X447884Y322749D01*
X447926Y322813D01*
X447959Y322906D01*
X448001Y322995D01*
X448017Y323069D01*
X448042Y323142D01*
X448053Y323240D01*
X448074Y323336D01*
X448073Y323412D01*
X448081Y323488D01*
X448070Y323586D01*
X448068Y323684D01*
X448050Y323758D01*
X448041Y323834D01*
X447995Y323976D01*
X447983Y324022D01*
X447974Y324039D01*
X447965Y324067D01*
X447293Y325689D01*
X447293Y329631D01*
X448801Y333272D01*
X451588Y336059D01*
X455229Y337567D01*
X459171Y337567D01*
X462812Y336059D01*
X465599Y333272D01*
X467107Y329631D01*
X467107Y325689D01*
X465599Y322048D01*
X462812Y319261D01*
X459171Y317753D01*
X455229Y317753D01*
X453607Y318425D01*
X453533Y318446D01*
X453463Y318477D01*
X453366Y318494D01*
X453272Y318521D01*
X453195Y318525D01*
X453120Y318538D01*
X453022Y318533D01*
X452924Y318538D01*
X452848Y318524D01*
X452772Y318520D01*
X452678Y318493D01*
X452581Y318475D01*
X452511Y318445D01*
X452437Y318424D01*
X452351Y318376D01*
X452261Y318337D01*
X452200Y318291D01*
X452133Y318254D01*
X452019Y318157D01*
X451981Y318129D01*
X451969Y318114D01*
X451947Y318095D01*
X447033Y313181D01*
X340407Y313181D01*
X340281Y313167D01*
X340155Y313160D01*
X340108Y313147D01*
X340060Y313141D01*
X339941Y313099D01*
X339820Y313064D01*
X339778Y313040D01*
X339732Y313024D01*
X339626Y312955D01*
X339516Y312894D01*
X339470Y312854D01*
X339440Y312835D01*
X339406Y312800D01*
X339330Y312735D01*
X338302Y311707D01*
X336341Y310895D01*
X334219Y310895D01*
G37*
%LPD*%
%LPC*%
G36*
X455229Y266953D02*
X455229Y266953D01*
X451588Y268461D01*
X448801Y271248D01*
X447293Y274889D01*
X447293Y278831D01*
X448801Y282472D01*
X451588Y285259D01*
X455229Y286767D01*
X459171Y286767D01*
X462812Y285259D01*
X465599Y282472D01*
X467107Y278831D01*
X467107Y274889D01*
X465599Y271248D01*
X462812Y268461D01*
X459171Y266953D01*
X455229Y266953D01*
G37*
%LPD*%
%LPC*%
G36*
X455229Y216153D02*
X455229Y216153D01*
X451588Y217661D01*
X448801Y220448D01*
X447293Y224089D01*
X447293Y228031D01*
X448801Y231672D01*
X451588Y234459D01*
X455229Y235967D01*
X459171Y235967D01*
X462812Y234459D01*
X465599Y231672D01*
X467107Y228031D01*
X467107Y224089D01*
X465599Y220448D01*
X462812Y217661D01*
X459171Y216153D01*
X455229Y216153D01*
G37*
%LPD*%
%LPC*%
G36*
X252029Y165353D02*
X252029Y165353D01*
X248388Y166861D01*
X245601Y169648D01*
X244093Y173289D01*
X244093Y177231D01*
X245601Y180872D01*
X248388Y183659D01*
X252029Y185167D01*
X255971Y185167D01*
X259612Y183659D01*
X262399Y180872D01*
X263907Y177231D01*
X263907Y173289D01*
X262399Y169648D01*
X259612Y166861D01*
X255971Y165353D01*
X252029Y165353D01*
G37*
%LPD*%
%LPC*%
G36*
X252029Y190753D02*
X252029Y190753D01*
X248388Y192261D01*
X245601Y195048D01*
X244093Y198689D01*
X244093Y202631D01*
X245601Y206272D01*
X248388Y209059D01*
X252029Y210567D01*
X255971Y210567D01*
X259612Y209059D01*
X262399Y206272D01*
X263907Y202631D01*
X263907Y198689D01*
X262399Y195048D01*
X259612Y192261D01*
X255971Y190753D01*
X252029Y190753D01*
G37*
%LPD*%
%LPC*%
G36*
X455229Y190753D02*
X455229Y190753D01*
X451588Y192261D01*
X448801Y195048D01*
X447293Y198689D01*
X447293Y202631D01*
X448801Y206272D01*
X451588Y209059D01*
X455229Y210567D01*
X459171Y210567D01*
X462812Y209059D01*
X465599Y206272D01*
X467107Y202631D01*
X467107Y198689D01*
X465599Y195048D01*
X462812Y192261D01*
X459171Y190753D01*
X455229Y190753D01*
G37*
%LPD*%
%LPC*%
G36*
X252029Y216153D02*
X252029Y216153D01*
X248388Y217661D01*
X245601Y220448D01*
X244093Y224089D01*
X244093Y228031D01*
X245601Y231672D01*
X248388Y234459D01*
X252029Y235967D01*
X255971Y235967D01*
X259612Y234459D01*
X262399Y231672D01*
X263907Y228031D01*
X263907Y224089D01*
X262399Y220448D01*
X259612Y217661D01*
X255971Y216153D01*
X252029Y216153D01*
G37*
%LPD*%
%LPC*%
G36*
X455229Y165353D02*
X455229Y165353D01*
X451588Y166861D01*
X448801Y169648D01*
X447293Y173289D01*
X447293Y177231D01*
X448801Y180872D01*
X451588Y183659D01*
X455229Y185167D01*
X459171Y185167D01*
X462812Y183659D01*
X465599Y180872D01*
X467107Y177231D01*
X467107Y173289D01*
X465599Y169648D01*
X462812Y166861D01*
X459171Y165353D01*
X455229Y165353D01*
G37*
%LPD*%
%LPC*%
G36*
X455229Y241553D02*
X455229Y241553D01*
X451588Y243061D01*
X448801Y245848D01*
X447293Y249489D01*
X447293Y253431D01*
X448801Y257072D01*
X451588Y259859D01*
X455229Y261367D01*
X459171Y261367D01*
X462812Y259859D01*
X465599Y257072D01*
X467107Y253431D01*
X467107Y249489D01*
X465599Y245848D01*
X462812Y243061D01*
X459171Y241553D01*
X455229Y241553D01*
G37*
%LPD*%
%LPC*%
G36*
X252029Y292353D02*
X252029Y292353D01*
X248388Y293861D01*
X245601Y296648D01*
X244093Y300289D01*
X244093Y304231D01*
X245601Y307872D01*
X248388Y310659D01*
X252029Y312167D01*
X255971Y312167D01*
X259612Y310659D01*
X262399Y307872D01*
X263907Y304231D01*
X263907Y300289D01*
X262399Y296648D01*
X259612Y293861D01*
X255971Y292353D01*
X252029Y292353D01*
G37*
%LPD*%
%LPC*%
G36*
X455229Y292353D02*
X455229Y292353D01*
X451588Y293861D01*
X448801Y296648D01*
X447293Y300289D01*
X447293Y304231D01*
X448801Y307872D01*
X451588Y310659D01*
X455229Y312167D01*
X459171Y312167D01*
X462812Y310659D01*
X465599Y307872D01*
X467107Y304231D01*
X467107Y300289D01*
X465599Y296648D01*
X462812Y293861D01*
X459171Y292353D01*
X455229Y292353D01*
G37*
%LPD*%
%LPC*%
G36*
X252029Y317753D02*
X252029Y317753D01*
X248388Y319261D01*
X245601Y322048D01*
X244093Y325689D01*
X244093Y329631D01*
X245601Y333272D01*
X248388Y336059D01*
X252029Y337567D01*
X255971Y337567D01*
X259612Y336059D01*
X262399Y333272D01*
X263907Y329631D01*
X263907Y325689D01*
X262399Y322048D01*
X259612Y319261D01*
X255971Y317753D01*
X252029Y317753D01*
G37*
%LPD*%
%LPC*%
G36*
X455229Y343153D02*
X455229Y343153D01*
X451588Y344661D01*
X448801Y347448D01*
X447293Y351089D01*
X447293Y355031D01*
X448801Y358672D01*
X451588Y361459D01*
X455229Y362967D01*
X459171Y362967D01*
X462812Y361459D01*
X465599Y358672D01*
X467107Y355031D01*
X467107Y351089D01*
X465599Y347448D01*
X462812Y344661D01*
X459171Y343153D01*
X455229Y343153D01*
G37*
%LPD*%
%LPC*%
G36*
X252029Y470153D02*
X252029Y470153D01*
X248388Y471661D01*
X245601Y474448D01*
X244093Y478089D01*
X244093Y482031D01*
X245601Y485672D01*
X248388Y488459D01*
X252029Y489967D01*
X255971Y489967D01*
X259612Y488459D01*
X262399Y485672D01*
X263907Y482031D01*
X263907Y478089D01*
X262399Y474448D01*
X259612Y471661D01*
X255971Y470153D01*
X252029Y470153D01*
G37*
%LPD*%
%LPC*%
G36*
X455229Y368553D02*
X455229Y368553D01*
X451588Y370061D01*
X448801Y372848D01*
X447293Y376489D01*
X447293Y380431D01*
X448801Y384072D01*
X451588Y386859D01*
X455229Y388367D01*
X459171Y388367D01*
X462812Y386859D01*
X465599Y384072D01*
X467107Y380431D01*
X467107Y376489D01*
X465599Y372848D01*
X462812Y370061D01*
X459171Y368553D01*
X455229Y368553D01*
G37*
%LPD*%
%LPC*%
G36*
X252029Y139953D02*
X252029Y139953D01*
X248388Y141461D01*
X245601Y144248D01*
X244093Y147889D01*
X244093Y151831D01*
X245601Y155472D01*
X248388Y158259D01*
X252029Y159767D01*
X255971Y159767D01*
X259612Y158259D01*
X262399Y155472D01*
X263907Y151831D01*
X263907Y147889D01*
X262399Y144248D01*
X259612Y141461D01*
X255971Y139953D01*
X252029Y139953D01*
G37*
%LPD*%
%LPC*%
G36*
X455229Y139953D02*
X455229Y139953D01*
X451588Y141461D01*
X448801Y144248D01*
X447293Y147889D01*
X447293Y151831D01*
X448801Y155472D01*
X451588Y158259D01*
X455229Y159767D01*
X459171Y159767D01*
X462812Y158259D01*
X465599Y155472D01*
X467107Y151831D01*
X467107Y147889D01*
X465599Y144248D01*
X462812Y141461D01*
X459171Y139953D01*
X455229Y139953D01*
G37*
%LPD*%
%LPC*%
G36*
X252029Y114553D02*
X252029Y114553D01*
X248388Y116061D01*
X245601Y118848D01*
X244093Y122489D01*
X244093Y126431D01*
X245601Y130072D01*
X248388Y132859D01*
X252029Y134367D01*
X255971Y134367D01*
X259612Y132859D01*
X262399Y130072D01*
X263907Y126431D01*
X263907Y122489D01*
X262399Y118848D01*
X259612Y116061D01*
X255971Y114553D01*
X252029Y114553D01*
G37*
%LPD*%
%LPC*%
G36*
X252029Y444753D02*
X252029Y444753D01*
X248388Y446261D01*
X245601Y449048D01*
X244093Y452689D01*
X244093Y456631D01*
X245601Y460272D01*
X248388Y463059D01*
X252029Y464567D01*
X255971Y464567D01*
X259612Y463059D01*
X262399Y460272D01*
X263907Y456631D01*
X263907Y452689D01*
X262399Y449048D01*
X259612Y446261D01*
X255971Y444753D01*
X252029Y444753D01*
G37*
%LPD*%
%LPC*%
G36*
X455229Y89153D02*
X455229Y89153D01*
X451588Y90661D01*
X448801Y93448D01*
X447293Y97089D01*
X447293Y101031D01*
X448801Y104672D01*
X451588Y107459D01*
X455229Y108967D01*
X459171Y108967D01*
X462812Y107459D01*
X465599Y104672D01*
X467107Y101031D01*
X467107Y97089D01*
X465599Y93448D01*
X462812Y90661D01*
X459171Y89153D01*
X455229Y89153D01*
G37*
%LPD*%
%LPC*%
G36*
X455229Y114553D02*
X455229Y114553D01*
X451588Y116061D01*
X448801Y118848D01*
X447293Y122489D01*
X447293Y126431D01*
X448801Y130072D01*
X451588Y132859D01*
X455229Y134367D01*
X459171Y134367D01*
X462812Y132859D01*
X465599Y130072D01*
X467107Y126431D01*
X467107Y122489D01*
X465599Y118848D01*
X462812Y116061D01*
X459171Y114553D01*
X455229Y114553D01*
G37*
%LPD*%
%LPC*%
G36*
X252029Y419353D02*
X252029Y419353D01*
X248388Y420861D01*
X245601Y423648D01*
X244093Y427289D01*
X244093Y431231D01*
X245601Y434872D01*
X248388Y437659D01*
X252029Y439167D01*
X255971Y439167D01*
X259612Y437659D01*
X262399Y434872D01*
X263907Y431231D01*
X263907Y427289D01*
X262399Y423648D01*
X259612Y420861D01*
X255971Y419353D01*
X252029Y419353D01*
G37*
%LPD*%
%LPC*%
G36*
X107216Y76475D02*
X107216Y76475D01*
X104068Y77779D01*
X101659Y80188D01*
X100355Y83336D01*
X100355Y86744D01*
X101659Y89892D01*
X104068Y92301D01*
X107216Y93605D01*
X110624Y93605D01*
X113772Y92301D01*
X116181Y89892D01*
X117485Y86744D01*
X117485Y83336D01*
X116181Y80188D01*
X113772Y77779D01*
X110624Y76475D01*
X107216Y76475D01*
G37*
%LPD*%
%LPC*%
G36*
X83676Y455035D02*
X83676Y455035D01*
X80528Y456339D01*
X78119Y458748D01*
X76815Y461896D01*
X76815Y465304D01*
X78119Y468452D01*
X80528Y470861D01*
X83676Y472165D01*
X87084Y472165D01*
X90232Y470861D01*
X92641Y468452D01*
X93945Y465304D01*
X93945Y461896D01*
X92641Y458748D01*
X90232Y456339D01*
X87084Y455035D01*
X83676Y455035D01*
G37*
%LPD*%
%LPC*%
G36*
X104676Y455035D02*
X104676Y455035D01*
X101528Y456339D01*
X99119Y458748D01*
X97815Y461896D01*
X97815Y465304D01*
X99119Y468452D01*
X101528Y470861D01*
X104676Y472165D01*
X108084Y472165D01*
X111232Y470861D01*
X113641Y468452D01*
X114945Y465304D01*
X114945Y461896D01*
X113641Y458748D01*
X111232Y456339D01*
X108084Y455035D01*
X104676Y455035D01*
G37*
%LPD*%
%LPC*%
G36*
X151676Y455035D02*
X151676Y455035D01*
X148528Y456339D01*
X146119Y458748D01*
X144815Y461896D01*
X144815Y465304D01*
X146119Y468452D01*
X148528Y470861D01*
X151676Y472165D01*
X155084Y472165D01*
X158232Y470861D01*
X160641Y468452D01*
X161945Y465304D01*
X161945Y461896D01*
X160641Y458748D01*
X158232Y456339D01*
X155084Y455035D01*
X151676Y455035D01*
G37*
%LPD*%
%LPC*%
G36*
X189927Y496647D02*
X189927Y496647D01*
X189927Y513226D01*
X190762Y513116D01*
X193276Y512442D01*
X195681Y511446D01*
X197935Y510145D01*
X200000Y508560D01*
X201840Y506720D01*
X203425Y504655D01*
X204726Y502401D01*
X205722Y499996D01*
X206396Y497482D01*
X206506Y496647D01*
X189927Y496647D01*
G37*
%LPD*%
%LPC*%
G36*
X57467Y58087D02*
X57467Y58087D01*
X57467Y74666D01*
X58302Y74556D01*
X60816Y73882D01*
X63221Y72886D01*
X65475Y71585D01*
X67540Y70000D01*
X69380Y68160D01*
X70965Y66095D01*
X72266Y63841D01*
X73262Y61436D01*
X73936Y58922D01*
X74046Y58087D01*
X57467Y58087D01*
G37*
%LPD*%
%LPC*%
G36*
X122427Y504647D02*
X122427Y504647D01*
X122427Y521226D01*
X123262Y521116D01*
X125776Y520442D01*
X128181Y519446D01*
X130435Y518145D01*
X132500Y516560D01*
X134340Y514720D01*
X135925Y512655D01*
X137226Y510401D01*
X138222Y507996D01*
X138896Y505482D01*
X139006Y504647D01*
X122427Y504647D01*
G37*
%LPD*%
%LPC*%
G36*
X124967Y50087D02*
X124967Y50087D01*
X124967Y66666D01*
X125802Y66556D01*
X128316Y65882D01*
X130721Y64886D01*
X132975Y63585D01*
X135040Y62000D01*
X136880Y60160D01*
X138465Y58095D01*
X139766Y55841D01*
X140762Y53436D01*
X141436Y50922D01*
X141546Y50087D01*
X124967Y50087D01*
G37*
%LPD*%
%LPC*%
G36*
X54927Y496647D02*
X54927Y496647D01*
X54927Y513226D01*
X55762Y513116D01*
X58276Y512442D01*
X60681Y511446D01*
X62935Y510145D01*
X65000Y508560D01*
X66840Y506720D01*
X68425Y504655D01*
X69726Y502401D01*
X70722Y499996D01*
X71396Y497482D01*
X71506Y496647D01*
X54927Y496647D01*
G37*
%LPD*%
%LPC*%
G36*
X192467Y58087D02*
X192467Y58087D01*
X192467Y74666D01*
X193302Y74556D01*
X195816Y73882D01*
X198221Y72886D01*
X200475Y71585D01*
X202540Y70000D01*
X204380Y68160D01*
X205965Y66095D01*
X207266Y63841D01*
X208262Y61436D01*
X208936Y58922D01*
X209046Y58087D01*
X192467Y58087D01*
G37*
%LPD*%
%LPC*%
G36*
X57467Y51993D02*
X57467Y51993D01*
X74046Y51993D01*
X73936Y51158D01*
X73262Y48644D01*
X72266Y46239D01*
X70965Y43985D01*
X70264Y43072D01*
X70264Y43071D01*
X69380Y41920D01*
X67540Y40080D01*
X65475Y38495D01*
X63221Y37194D01*
X60816Y36198D01*
X58302Y35524D01*
X57467Y35414D01*
X57467Y51993D01*
G37*
%LPD*%
%LPC*%
G36*
X192467Y51993D02*
X192467Y51993D01*
X209046Y51993D01*
X208936Y51158D01*
X208262Y48644D01*
X207266Y46239D01*
X205965Y43985D01*
X205264Y43072D01*
X205264Y43071D01*
X204380Y41920D01*
X202540Y40080D01*
X200475Y38495D01*
X198221Y37194D01*
X195816Y36198D01*
X193302Y35524D01*
X192467Y35414D01*
X192467Y51993D01*
G37*
%LPD*%
%LPC*%
G36*
X124967Y43993D02*
X124967Y43993D01*
X141546Y43993D01*
X141436Y43158D01*
X140762Y40644D01*
X139766Y38239D01*
X138465Y35985D01*
X138058Y35455D01*
X136890Y33932D01*
X136889Y33932D01*
X136880Y33920D01*
X135040Y32080D01*
X132975Y30495D01*
X130721Y29194D01*
X128316Y28198D01*
X125802Y27524D01*
X124967Y27414D01*
X124967Y43993D01*
G37*
%LPD*%
%LPC*%
G36*
X122427Y498553D02*
X122427Y498553D01*
X139006Y498553D01*
X138896Y497718D01*
X138222Y495204D01*
X137226Y492799D01*
X135925Y490545D01*
X135034Y489384D01*
X134340Y488480D01*
X132500Y486640D01*
X130435Y485055D01*
X128181Y483754D01*
X125776Y482758D01*
X123262Y482084D01*
X122427Y481974D01*
X122427Y498553D01*
G37*
%LPD*%
%LPC*%
G36*
X99754Y504647D02*
X99754Y504647D01*
X99864Y505482D01*
X100538Y507996D01*
X101534Y510401D01*
X102835Y512655D01*
X103427Y513426D01*
X103427Y513427D01*
X104420Y514720D01*
X106260Y516560D01*
X108325Y518145D01*
X110579Y519446D01*
X112984Y520442D01*
X115498Y521116D01*
X116333Y521226D01*
X116333Y504647D01*
X99754Y504647D01*
G37*
%LPD*%
%LPC*%
G36*
X54927Y490553D02*
X54927Y490553D01*
X71506Y490553D01*
X71396Y489718D01*
X70722Y487204D01*
X69726Y484799D01*
X68425Y482545D01*
X67828Y481768D01*
X67828Y481767D01*
X66840Y480480D01*
X65000Y478640D01*
X62935Y477055D01*
X60681Y475754D01*
X58276Y474758D01*
X55762Y474084D01*
X54927Y473974D01*
X54927Y490553D01*
G37*
%LPD*%
%LPC*%
G36*
X189927Y490553D02*
X189927Y490553D01*
X206506Y490553D01*
X206396Y489718D01*
X205722Y487204D01*
X204726Y484799D01*
X203425Y482545D01*
X202828Y481768D01*
X202828Y481767D01*
X201840Y480480D01*
X200000Y478640D01*
X197935Y477055D01*
X195681Y475754D01*
X193276Y474758D01*
X190762Y474084D01*
X189927Y473974D01*
X189927Y490553D01*
G37*
%LPD*%
%LPC*%
G36*
X167254Y496647D02*
X167254Y496647D01*
X167364Y497482D01*
X168038Y499996D01*
X169034Y502401D01*
X170335Y504655D01*
X171221Y505810D01*
X171222Y505810D01*
X171920Y506720D01*
X173760Y508560D01*
X175825Y510145D01*
X178079Y511446D01*
X180484Y512442D01*
X182998Y513116D01*
X183833Y513226D01*
X183833Y496647D01*
X167254Y496647D01*
G37*
%LPD*%
%LPC*%
G36*
X32254Y496647D02*
X32254Y496647D01*
X32364Y497482D01*
X33038Y499996D01*
X34034Y502401D01*
X35335Y504655D01*
X36221Y505810D01*
X36222Y505810D01*
X36920Y506720D01*
X38760Y508560D01*
X40825Y510145D01*
X43079Y511446D01*
X45484Y512442D01*
X47998Y513116D01*
X48833Y513226D01*
X48833Y496647D01*
X32254Y496647D01*
G37*
%LPD*%
%LPC*%
G36*
X169794Y58087D02*
X169794Y58087D01*
X169904Y58922D01*
X170578Y61436D01*
X171574Y63841D01*
X172875Y66095D01*
X173657Y67114D01*
X173657Y67115D01*
X174460Y68160D01*
X176300Y70000D01*
X178365Y71585D01*
X180619Y72886D01*
X183024Y73882D01*
X185538Y74556D01*
X186373Y74666D01*
X186373Y58087D01*
X169794Y58087D01*
G37*
%LPD*%
%LPC*%
G36*
X34794Y58087D02*
X34794Y58087D01*
X34904Y58922D01*
X35578Y61436D01*
X36574Y63841D01*
X37875Y66095D01*
X38657Y67114D01*
X38657Y67115D01*
X39460Y68160D01*
X41300Y70000D01*
X43365Y71585D01*
X45619Y72886D01*
X48024Y73882D01*
X50538Y74556D01*
X51373Y74666D01*
X51373Y58087D01*
X34794Y58087D01*
G37*
%LPD*%
%LPC*%
G36*
X102294Y50087D02*
X102294Y50087D01*
X102404Y50922D01*
X103078Y53436D01*
X104074Y55841D01*
X105375Y58095D01*
X106452Y59498D01*
X106960Y60160D01*
X108800Y62000D01*
X110865Y63585D01*
X113119Y64886D01*
X115524Y65882D01*
X118038Y66556D01*
X118873Y66666D01*
X118873Y50087D01*
X102294Y50087D01*
G37*
%LPD*%
%LPC*%
G36*
X118038Y27524D02*
X118038Y27524D01*
X115524Y28198D01*
X113119Y29194D01*
X110865Y30495D01*
X108800Y32080D01*
X106960Y33920D01*
X105375Y35985D01*
X104074Y38239D01*
X103078Y40644D01*
X102404Y43158D01*
X102294Y43993D01*
X118873Y43993D01*
X118873Y27414D01*
X118038Y27524D01*
G37*
%LPD*%
%LPC*%
G36*
X185538Y35524D02*
X185538Y35524D01*
X183024Y36198D01*
X180619Y37194D01*
X178365Y38495D01*
X176300Y40080D01*
X174460Y41920D01*
X172875Y43985D01*
X171574Y46239D01*
X170578Y48644D01*
X169904Y51158D01*
X169794Y51993D01*
X186373Y51993D01*
X186373Y35414D01*
X185538Y35524D01*
G37*
%LPD*%
%LPC*%
G36*
X50538Y35524D02*
X50538Y35524D01*
X48024Y36198D01*
X45619Y37194D01*
X43365Y38495D01*
X41300Y40080D01*
X39460Y41920D01*
X37875Y43985D01*
X36574Y46239D01*
X35578Y48644D01*
X34904Y51158D01*
X34794Y51993D01*
X51373Y51993D01*
X51373Y35414D01*
X50538Y35524D01*
G37*
%LPD*%
%LPC*%
G36*
X115498Y482084D02*
X115498Y482084D01*
X112984Y482758D01*
X110579Y483754D01*
X108325Y485055D01*
X106260Y486640D01*
X104420Y488480D01*
X102835Y490545D01*
X101534Y492799D01*
X100538Y495204D01*
X99864Y497718D01*
X99754Y498553D01*
X116333Y498553D01*
X116333Y481974D01*
X115498Y482084D01*
G37*
%LPD*%
%LPC*%
G36*
X182998Y474084D02*
X182998Y474084D01*
X180484Y474758D01*
X178079Y475754D01*
X175825Y477055D01*
X173760Y478640D01*
X171920Y480480D01*
X170335Y482545D01*
X169034Y484799D01*
X168038Y487204D01*
X167364Y489718D01*
X167254Y490553D01*
X183833Y490553D01*
X183833Y473974D01*
X182998Y474084D01*
G37*
%LPD*%
%LPC*%
G36*
X47998Y474084D02*
X47998Y474084D01*
X45484Y474758D01*
X43079Y475754D01*
X40825Y477055D01*
X38760Y478640D01*
X36920Y480480D01*
X35335Y482545D01*
X34034Y484799D01*
X33038Y487204D01*
X32364Y489718D01*
X32254Y490553D01*
X48833Y490553D01*
X48833Y473974D01*
X47998Y474084D01*
G37*
%LPD*%
%LPC*%
G36*
X256499Y406359D02*
X256499Y406359D01*
X256499Y414523D01*
X256558Y414514D01*
X258193Y413982D01*
X259725Y413202D01*
X261116Y412191D01*
X262331Y410976D01*
X263342Y409585D01*
X264122Y408053D01*
X264654Y406418D01*
X264663Y406359D01*
X256499Y406359D01*
G37*
%LPD*%
%LPC*%
G36*
X256499Y101559D02*
X256499Y101559D01*
X256499Y109723D01*
X256558Y109714D01*
X258193Y109182D01*
X259725Y108402D01*
X261116Y107391D01*
X262331Y106176D01*
X263342Y104785D01*
X264122Y103253D01*
X264654Y101618D01*
X264663Y101559D01*
X256499Y101559D01*
G37*
%LPD*%
%LPC*%
G36*
X243337Y406359D02*
X243337Y406359D01*
X243346Y406418D01*
X243878Y408053D01*
X244658Y409585D01*
X245669Y410976D01*
X246884Y412191D01*
X248275Y413202D01*
X249807Y413982D01*
X251442Y414514D01*
X251501Y414523D01*
X251501Y406359D01*
X243337Y406359D01*
G37*
%LPD*%
%LPC*%
G36*
X256499Y96561D02*
X256499Y96561D01*
X264663Y96561D01*
X264654Y96502D01*
X264122Y94867D01*
X263342Y93335D01*
X262331Y91944D01*
X261116Y90729D01*
X259725Y89718D01*
X258193Y88938D01*
X256558Y88406D01*
X256499Y88397D01*
X256499Y96561D01*
G37*
%LPD*%
%LPC*%
G36*
X243337Y101559D02*
X243337Y101559D01*
X243346Y101618D01*
X243878Y103253D01*
X244658Y104785D01*
X245669Y106176D01*
X246884Y107391D01*
X248275Y108402D01*
X249807Y109182D01*
X251442Y109714D01*
X251501Y109723D01*
X251501Y101559D01*
X243337Y101559D01*
G37*
%LPD*%
%LPC*%
G36*
X251442Y88406D02*
X251442Y88406D01*
X249807Y88938D01*
X248275Y89718D01*
X246884Y90729D01*
X245669Y91944D01*
X244658Y93335D01*
X243878Y94867D01*
X243346Y96502D01*
X243337Y96561D01*
X251501Y96561D01*
X251501Y88397D01*
X251442Y88406D01*
G37*
%LPD*%
%LPC*%
G36*
X155629Y440849D02*
X155629Y440849D01*
X155629Y447943D01*
X157058Y447479D01*
X158401Y446794D01*
X159622Y445908D01*
X160688Y444842D01*
X161574Y443621D01*
X162259Y442278D01*
X162723Y440849D01*
X155629Y440849D01*
G37*
%LPD*%
%LPC*%
G36*
X78577Y112289D02*
X78577Y112289D01*
X79041Y113718D01*
X79726Y115061D01*
X80612Y116282D01*
X81678Y117348D01*
X82899Y118234D01*
X84242Y118919D01*
X85671Y119383D01*
X85671Y112289D01*
X78577Y112289D01*
G37*
%LPD*%
%LPC*%
G36*
X144037Y440849D02*
X144037Y440849D01*
X144501Y442278D01*
X145186Y443621D01*
X146072Y444842D01*
X147138Y445908D01*
X148359Y446794D01*
X149702Y447479D01*
X151131Y447943D01*
X151131Y440849D01*
X144037Y440849D01*
G37*
%LPD*%
%LPC*%
G36*
X155629Y436351D02*
X155629Y436351D01*
X162723Y436351D01*
X162259Y434922D01*
X161574Y433579D01*
X160688Y432358D01*
X159622Y431292D01*
X158401Y430406D01*
X157058Y429721D01*
X155629Y429257D01*
X155629Y436351D01*
G37*
%LPD*%
%LPC*%
G36*
X84242Y101161D02*
X84242Y101161D01*
X82899Y101846D01*
X81678Y102732D01*
X80612Y103798D01*
X79726Y105019D01*
X79041Y106362D01*
X78577Y107791D01*
X85671Y107791D01*
X85671Y100697D01*
X84242Y101161D01*
G37*
%LPD*%
%LPC*%
G36*
X51879Y493599D02*
X51879Y493599D01*
X51879Y493601D01*
X51881Y493601D01*
X51881Y493599D01*
X51879Y493599D01*
G37*
%LPD*%
%LPC*%
G36*
X54419Y55039D02*
X54419Y55039D01*
X54419Y55041D01*
X54421Y55041D01*
X54421Y55039D01*
X54419Y55039D01*
G37*
%LPD*%
%LPC*%
G36*
X189419Y55039D02*
X189419Y55039D01*
X189419Y55041D01*
X189421Y55041D01*
X189421Y55039D01*
X189419Y55039D01*
G37*
%LPD*%
%LPC*%
G36*
X121919Y47039D02*
X121919Y47039D01*
X121919Y47041D01*
X121921Y47041D01*
X121921Y47039D01*
X121919Y47039D01*
G37*
%LPD*%
%LPC*%
G36*
X119379Y501599D02*
X119379Y501599D01*
X119379Y501601D01*
X119381Y501601D01*
X119381Y501599D01*
X119379Y501599D01*
G37*
%LPD*%
%LPC*%
G36*
X186879Y493599D02*
X186879Y493599D01*
X186879Y493601D01*
X186881Y493601D01*
X186881Y493599D01*
X186879Y493599D01*
G37*
%LPD*%
D10*
X134920Y85040D03*
X108920Y85040D03*
X155920Y85040D03*
X134920Y110040D03*
X87920Y85040D03*
X155920Y110040D03*
X112920Y110040D03*
X87920Y110040D03*
D11*
X121920Y47040D03*
X189420Y55040D03*
X54420Y55040D03*
D12*
X254000Y99060D03*
X254000Y124460D03*
X254000Y149860D03*
X254000Y175260D03*
X254000Y200660D03*
X254000Y226060D03*
X254000Y251460D03*
X254000Y276860D03*
X254000Y302260D03*
X254000Y327660D03*
X254000Y353060D03*
X254000Y378460D03*
X254000Y403860D03*
X254000Y429260D03*
X254000Y454660D03*
X254000Y480060D03*
X457200Y378460D03*
X457200Y353060D03*
X457200Y327660D03*
X457200Y302260D03*
X457200Y276860D03*
X457200Y251460D03*
X457200Y226060D03*
X457200Y200660D03*
X457200Y175260D03*
X457200Y149860D03*
X457200Y124460D03*
X457200Y99060D03*
D10*
X106380Y463600D03*
X132380Y463600D03*
X85380Y463600D03*
X106380Y438600D03*
X153380Y463600D03*
X85380Y438600D03*
X128380Y438600D03*
X153380Y438600D03*
D11*
X119380Y501600D03*
X51880Y493600D03*
X186880Y493600D03*
D13*
X186880Y472100D02*
X153380Y438600D01*
X186880Y472100D02*
X186880Y493600D01*
X254000Y403860D02*
X326390Y403860D01*
D14*
X403860Y351790D03*
D13*
X346710Y403860D02*
X326390Y403860D01*
X346710Y403860D02*
X386080Y403860D01*
X394970Y403860D01*
X403860Y394970D01*
X403860Y351790D01*
D14*
X386080Y393700D03*
D13*
X386080Y403860D01*
D14*
X346710Y393700D03*
D13*
X346710Y403860D01*
D14*
X403860Y257810D03*
D13*
X403860Y220980D01*
D14*
X403860Y220980D03*
D13*
X330200Y400050D02*
X326390Y403860D01*
D14*
X330200Y351790D03*
D13*
X330200Y400050D01*
D14*
X404495Y163195D03*
D13*
X404495Y135255D01*
X403860Y134620D01*
D14*
X403860Y134620D03*
X331470Y260350D03*
X331470Y219710D03*
D13*
X331470Y260350D01*
X87920Y110040D02*
X66860Y110040D01*
X54420Y97600D02*
X54420Y55040D01*
X54420Y97600D02*
X66860Y110040D01*
X54420Y97600D02*
X54420Y208724D01*
D14*
X48514Y214630D03*
D13*
X54420Y208724D01*
X48514Y214630D02*
X48514Y245364D01*
D14*
X52070Y248920D03*
D13*
X48514Y245364D01*
X233440Y99060D02*
X189420Y55040D01*
X233440Y99060D02*
X254000Y99060D01*
D15*
X134920Y110040D02*
X107950Y137010D01*
D14*
X101600Y300990D03*
D15*
X107950Y294640D02*
X107950Y137010D01*
X107950Y294640D02*
X101600Y300990D01*
X100330Y97450D02*
X87920Y85040D01*
D14*
X100330Y252730D03*
D15*
X100330Y97450D01*
X302260Y365760D02*
X300990Y367030D01*
X302260Y365760D02*
X302260Y123190D01*
X299974Y366014D02*
X300990Y367030D01*
X299974Y366014D02*
X195326Y366014D01*
X166370Y394970D01*
X105410Y394970D01*
X85380Y415000D01*
X85380Y438600D01*
D14*
X300990Y367030D03*
X271780Y111760D03*
D15*
X290830Y111760D01*
X302260Y123190D01*
X309880Y382270D02*
X300736Y391414D01*
X182626Y391414D01*
X135440Y438600D01*
X128380Y438600D01*
D14*
X309880Y382270D03*
X299720Y81280D03*
D15*
X309880Y91440D01*
X309880Y382270D01*
D14*
X114300Y191770D03*
D15*
X114300Y153670D01*
X145288Y122682D02*
X145288Y93472D01*
X153720Y85040D01*
X155920Y85040D01*
X145288Y122682D02*
X114300Y153670D01*
X114300Y191770D02*
X114300Y279400D01*
X123190Y288290D02*
X123190Y288417D01*
D14*
X123190Y288417D03*
D15*
X123190Y288290D02*
X114300Y279400D01*
D13*
X445770Y316230D02*
X457200Y327660D01*
X445770Y316230D02*
X335280Y316230D01*
D14*
X335280Y316230D03*
X121920Y266700D03*
D15*
X226060Y266700D01*
X228600Y264160D01*
X278130Y264160D01*
D14*
X278130Y264160D03*
X162560Y311150D03*
D15*
X161544Y312166D01*
X101854Y312166D01*
X101600Y312420D01*
D14*
X101600Y312420D03*
X130175Y404495D03*
D15*
X117094Y417576D01*
X117094Y448564D01*
X132130Y463600D01*
X132380Y463600D01*
D14*
X130810Y384810D03*
D15*
X72390Y384810D01*
X62230Y394970D02*
X62230Y402590D01*
D14*
X62230Y402590D03*
D15*
X62230Y394970D02*
X72390Y384810D01*
M02*
