G04 EAGLE Gerber RS-274X export*
G75*
%MOMM*%
%FSLAX34Y34*%
%LPD*%
%INSilkscreen Bottom*%
%IPPOS*%
%AMOC8*
5,1,8,0,0,1.08239X$1,22.5*%
G01*
%ADD10C,0.076200*%


D10*
X459444Y528447D02*
X459444Y522718D01*
X459446Y522640D01*
X459451Y522562D01*
X459461Y522485D01*
X459474Y522408D01*
X459490Y522332D01*
X459510Y522257D01*
X459534Y522183D01*
X459561Y522110D01*
X459592Y522038D01*
X459626Y521968D01*
X459663Y521900D01*
X459704Y521833D01*
X459748Y521768D01*
X459794Y521706D01*
X459844Y521646D01*
X459896Y521588D01*
X459951Y521533D01*
X460009Y521481D01*
X460069Y521431D01*
X460131Y521385D01*
X460196Y521341D01*
X460263Y521300D01*
X460331Y521263D01*
X460401Y521229D01*
X460473Y521198D01*
X460546Y521171D01*
X460620Y521147D01*
X460695Y521127D01*
X460771Y521111D01*
X460848Y521098D01*
X460925Y521088D01*
X461003Y521083D01*
X461081Y521081D01*
X461899Y521081D01*
X455750Y521081D02*
X455750Y528447D01*
X455750Y521081D02*
X452476Y521081D01*
X448056Y521081D02*
X446419Y521081D01*
X448056Y521081D02*
X448134Y521083D01*
X448212Y521088D01*
X448289Y521098D01*
X448366Y521111D01*
X448442Y521127D01*
X448517Y521147D01*
X448591Y521171D01*
X448664Y521198D01*
X448736Y521229D01*
X448806Y521263D01*
X448875Y521300D01*
X448941Y521341D01*
X449006Y521385D01*
X449068Y521431D01*
X449128Y521481D01*
X449186Y521533D01*
X449241Y521588D01*
X449293Y521646D01*
X449343Y521706D01*
X449389Y521768D01*
X449433Y521833D01*
X449474Y521900D01*
X449511Y521968D01*
X449545Y522038D01*
X449576Y522110D01*
X449603Y522183D01*
X449627Y522257D01*
X449647Y522332D01*
X449663Y522408D01*
X449676Y522485D01*
X449686Y522562D01*
X449691Y522640D01*
X449693Y522718D01*
X449692Y522718D02*
X449692Y526810D01*
X449693Y526810D02*
X449691Y526888D01*
X449686Y526966D01*
X449676Y527043D01*
X449663Y527120D01*
X449647Y527196D01*
X449627Y527271D01*
X449603Y527345D01*
X449576Y527418D01*
X449545Y527490D01*
X449511Y527560D01*
X449474Y527629D01*
X449433Y527695D01*
X449389Y527760D01*
X449343Y527822D01*
X449293Y527882D01*
X449241Y527940D01*
X449186Y527995D01*
X449128Y528047D01*
X449068Y528097D01*
X449006Y528143D01*
X448941Y528187D01*
X448875Y528228D01*
X448806Y528265D01*
X448736Y528299D01*
X448664Y528330D01*
X448591Y528357D01*
X448517Y528381D01*
X448442Y528401D01*
X448366Y528417D01*
X448289Y528430D01*
X448212Y528440D01*
X448134Y528445D01*
X448056Y528447D01*
X446419Y528447D01*
X441887Y528447D02*
X441887Y522718D01*
X441889Y522640D01*
X441894Y522562D01*
X441904Y522485D01*
X441917Y522408D01*
X441933Y522332D01*
X441953Y522257D01*
X441977Y522183D01*
X442004Y522110D01*
X442035Y522038D01*
X442069Y521968D01*
X442106Y521900D01*
X442147Y521833D01*
X442191Y521768D01*
X442237Y521706D01*
X442287Y521646D01*
X442339Y521588D01*
X442394Y521533D01*
X442452Y521481D01*
X442512Y521431D01*
X442574Y521385D01*
X442639Y521341D01*
X442706Y521300D01*
X442774Y521263D01*
X442844Y521229D01*
X442916Y521198D01*
X442989Y521171D01*
X443063Y521147D01*
X443138Y521127D01*
X443214Y521111D01*
X443291Y521098D01*
X443368Y521088D01*
X443446Y521083D01*
X443524Y521081D01*
X444343Y521081D01*
X438193Y521081D02*
X438193Y528447D01*
X438193Y521081D02*
X434920Y521081D01*
X430499Y521081D02*
X428862Y521081D01*
X430499Y521081D02*
X430577Y521083D01*
X430655Y521088D01*
X430732Y521098D01*
X430809Y521111D01*
X430885Y521127D01*
X430960Y521147D01*
X431034Y521171D01*
X431107Y521198D01*
X431179Y521229D01*
X431249Y521263D01*
X431318Y521300D01*
X431384Y521341D01*
X431449Y521385D01*
X431511Y521431D01*
X431571Y521481D01*
X431629Y521533D01*
X431684Y521588D01*
X431736Y521646D01*
X431786Y521706D01*
X431832Y521768D01*
X431876Y521833D01*
X431917Y521900D01*
X431954Y521968D01*
X431988Y522038D01*
X432019Y522110D01*
X432046Y522183D01*
X432070Y522257D01*
X432090Y522332D01*
X432106Y522408D01*
X432119Y522485D01*
X432129Y522562D01*
X432134Y522640D01*
X432136Y522718D01*
X432136Y526810D01*
X432134Y526888D01*
X432129Y526966D01*
X432119Y527043D01*
X432106Y527120D01*
X432090Y527196D01*
X432070Y527271D01*
X432046Y527345D01*
X432019Y527418D01*
X431988Y527490D01*
X431954Y527560D01*
X431917Y527629D01*
X431876Y527695D01*
X431832Y527760D01*
X431786Y527822D01*
X431736Y527882D01*
X431684Y527940D01*
X431629Y527995D01*
X431571Y528047D01*
X431511Y528097D01*
X431449Y528143D01*
X431384Y528187D01*
X431318Y528228D01*
X431249Y528265D01*
X431179Y528299D01*
X431107Y528330D01*
X431034Y528357D01*
X430960Y528381D01*
X430885Y528401D01*
X430809Y528417D01*
X430732Y528430D01*
X430655Y528440D01*
X430577Y528445D01*
X430499Y528447D01*
X428862Y528447D01*
X424331Y528447D02*
X424331Y522718D01*
X424333Y522640D01*
X424338Y522562D01*
X424348Y522485D01*
X424361Y522408D01*
X424377Y522332D01*
X424397Y522257D01*
X424421Y522183D01*
X424448Y522110D01*
X424479Y522038D01*
X424513Y521968D01*
X424550Y521900D01*
X424591Y521833D01*
X424635Y521768D01*
X424681Y521706D01*
X424731Y521646D01*
X424783Y521588D01*
X424838Y521533D01*
X424896Y521481D01*
X424956Y521431D01*
X425018Y521385D01*
X425083Y521341D01*
X425150Y521300D01*
X425218Y521263D01*
X425288Y521229D01*
X425360Y521198D01*
X425433Y521171D01*
X425507Y521147D01*
X425582Y521127D01*
X425658Y521111D01*
X425735Y521098D01*
X425812Y521088D01*
X425890Y521083D01*
X425968Y521081D01*
X426786Y521081D01*
X420637Y521081D02*
X420637Y528447D01*
X420637Y521081D02*
X417363Y521081D01*
X412943Y521081D02*
X411306Y521081D01*
X412943Y521081D02*
X413021Y521083D01*
X413099Y521088D01*
X413176Y521098D01*
X413253Y521111D01*
X413329Y521127D01*
X413404Y521147D01*
X413478Y521171D01*
X413551Y521198D01*
X413623Y521229D01*
X413693Y521263D01*
X413762Y521300D01*
X413828Y521341D01*
X413893Y521385D01*
X413955Y521431D01*
X414015Y521481D01*
X414073Y521533D01*
X414128Y521588D01*
X414180Y521646D01*
X414230Y521706D01*
X414276Y521768D01*
X414320Y521833D01*
X414361Y521900D01*
X414398Y521968D01*
X414432Y522038D01*
X414463Y522110D01*
X414490Y522183D01*
X414514Y522257D01*
X414534Y522332D01*
X414550Y522408D01*
X414563Y522485D01*
X414573Y522562D01*
X414578Y522640D01*
X414580Y522718D01*
X414580Y526810D01*
X414578Y526888D01*
X414573Y526966D01*
X414563Y527043D01*
X414550Y527120D01*
X414534Y527196D01*
X414514Y527271D01*
X414490Y527345D01*
X414463Y527418D01*
X414432Y527490D01*
X414398Y527560D01*
X414361Y527629D01*
X414320Y527695D01*
X414276Y527760D01*
X414230Y527822D01*
X414180Y527882D01*
X414128Y527940D01*
X414073Y527995D01*
X414015Y528047D01*
X413955Y528097D01*
X413893Y528143D01*
X413828Y528187D01*
X413762Y528228D01*
X413693Y528265D01*
X413623Y528299D01*
X413551Y528330D01*
X413478Y528357D01*
X413404Y528381D01*
X413329Y528401D01*
X413253Y528417D01*
X413176Y528430D01*
X413099Y528440D01*
X413021Y528445D01*
X412943Y528447D01*
X411306Y528447D01*
X406775Y528447D02*
X406775Y522718D01*
X406774Y522718D02*
X406776Y522640D01*
X406781Y522562D01*
X406791Y522485D01*
X406804Y522408D01*
X406820Y522332D01*
X406840Y522257D01*
X406864Y522183D01*
X406891Y522110D01*
X406922Y522038D01*
X406956Y521968D01*
X406993Y521900D01*
X407034Y521833D01*
X407078Y521768D01*
X407124Y521706D01*
X407174Y521646D01*
X407226Y521588D01*
X407281Y521533D01*
X407339Y521481D01*
X407399Y521431D01*
X407461Y521385D01*
X407526Y521341D01*
X407593Y521300D01*
X407661Y521263D01*
X407731Y521229D01*
X407803Y521198D01*
X407876Y521171D01*
X407950Y521147D01*
X408025Y521127D01*
X408101Y521111D01*
X408178Y521098D01*
X408255Y521088D01*
X408333Y521083D01*
X408411Y521081D01*
X409230Y521081D01*
X403081Y521081D02*
X403081Y528447D01*
X403081Y521081D02*
X399807Y521081D01*
X395386Y521081D02*
X393750Y521081D01*
X395386Y521081D02*
X395464Y521083D01*
X395542Y521088D01*
X395619Y521098D01*
X395696Y521111D01*
X395772Y521127D01*
X395847Y521147D01*
X395921Y521171D01*
X395994Y521198D01*
X396066Y521229D01*
X396136Y521263D01*
X396205Y521300D01*
X396271Y521341D01*
X396336Y521385D01*
X396398Y521431D01*
X396458Y521481D01*
X396516Y521533D01*
X396571Y521588D01*
X396623Y521646D01*
X396673Y521706D01*
X396719Y521768D01*
X396763Y521833D01*
X396804Y521900D01*
X396841Y521968D01*
X396875Y522038D01*
X396906Y522110D01*
X396933Y522183D01*
X396957Y522257D01*
X396977Y522332D01*
X396993Y522408D01*
X397006Y522485D01*
X397016Y522562D01*
X397021Y522640D01*
X397023Y522718D01*
X397023Y526810D01*
X397021Y526888D01*
X397016Y526966D01*
X397006Y527043D01*
X396993Y527120D01*
X396977Y527196D01*
X396957Y527271D01*
X396933Y527345D01*
X396906Y527418D01*
X396875Y527490D01*
X396841Y527560D01*
X396804Y527629D01*
X396763Y527695D01*
X396719Y527760D01*
X396673Y527822D01*
X396623Y527882D01*
X396571Y527940D01*
X396516Y527995D01*
X396458Y528047D01*
X396398Y528097D01*
X396336Y528143D01*
X396271Y528187D01*
X396205Y528228D01*
X396136Y528265D01*
X396066Y528299D01*
X395994Y528330D01*
X395921Y528357D01*
X395847Y528381D01*
X395772Y528401D01*
X395696Y528417D01*
X395619Y528430D01*
X395542Y528440D01*
X395464Y528445D01*
X395386Y528447D01*
X393750Y528447D01*
M02*
