G04 EAGLE Gerber RS-274X export*
G75*
%MOMM*%
%FSLAX34Y34*%
%LPD*%
%INSilkscreen Top*%
%IPPOS*%
%AMOC8*
5,1,8,0,0,1.08239X$1,22.5*%
G01*
%ADD10C,0.076200*%
%ADD11C,0.100000*%
%ADD12C,0.100000*%
%ADD13C,0.101600*%
%ADD14C,0.200000*%
%ADD15C,0.152400*%


D10*
X251079Y45593D02*
X251079Y54991D01*
X253690Y54991D01*
X253791Y54989D01*
X253892Y54983D01*
X253993Y54973D01*
X254093Y54960D01*
X254193Y54942D01*
X254292Y54921D01*
X254390Y54895D01*
X254487Y54866D01*
X254583Y54834D01*
X254677Y54797D01*
X254770Y54757D01*
X254862Y54713D01*
X254951Y54666D01*
X255039Y54615D01*
X255125Y54561D01*
X255208Y54504D01*
X255290Y54444D01*
X255368Y54380D01*
X255445Y54314D01*
X255518Y54244D01*
X255589Y54172D01*
X255657Y54097D01*
X255722Y54019D01*
X255784Y53939D01*
X255843Y53857D01*
X255899Y53772D01*
X255951Y53685D01*
X256000Y53597D01*
X256046Y53506D01*
X256087Y53414D01*
X256126Y53320D01*
X256160Y53225D01*
X256191Y53129D01*
X256218Y53031D01*
X256242Y52933D01*
X256261Y52833D01*
X256277Y52733D01*
X256289Y52633D01*
X256297Y52532D01*
X256301Y52431D01*
X256301Y52329D01*
X256297Y52228D01*
X256289Y52127D01*
X256277Y52027D01*
X256261Y51927D01*
X256242Y51827D01*
X256218Y51729D01*
X256191Y51631D01*
X256160Y51535D01*
X256126Y51440D01*
X256087Y51346D01*
X256046Y51254D01*
X256000Y51163D01*
X255951Y51074D01*
X255899Y50988D01*
X255843Y50903D01*
X255784Y50821D01*
X255722Y50741D01*
X255657Y50663D01*
X255589Y50588D01*
X255518Y50516D01*
X255445Y50446D01*
X255368Y50380D01*
X255290Y50316D01*
X255208Y50256D01*
X255125Y50199D01*
X255039Y50145D01*
X254951Y50094D01*
X254862Y50047D01*
X254770Y50003D01*
X254677Y49963D01*
X254583Y49926D01*
X254487Y49894D01*
X254390Y49865D01*
X254292Y49839D01*
X254193Y49818D01*
X254093Y49800D01*
X253993Y49787D01*
X253892Y49777D01*
X253791Y49771D01*
X253690Y49769D01*
X253690Y49770D02*
X251079Y49770D01*
X254212Y49770D02*
X256300Y45593D01*
X261645Y45593D02*
X264255Y45593D01*
X261645Y45593D02*
X261568Y45595D01*
X261492Y45601D01*
X261415Y45610D01*
X261339Y45623D01*
X261264Y45640D01*
X261190Y45660D01*
X261117Y45685D01*
X261046Y45712D01*
X260975Y45743D01*
X260907Y45778D01*
X260840Y45816D01*
X260775Y45857D01*
X260712Y45901D01*
X260652Y45948D01*
X260593Y45999D01*
X260538Y46052D01*
X260485Y46107D01*
X260434Y46166D01*
X260387Y46226D01*
X260343Y46289D01*
X260302Y46354D01*
X260264Y46421D01*
X260229Y46489D01*
X260198Y46560D01*
X260171Y46631D01*
X260146Y46704D01*
X260126Y46778D01*
X260109Y46853D01*
X260096Y46929D01*
X260087Y47006D01*
X260081Y47082D01*
X260079Y47159D01*
X260078Y47159D02*
X260078Y49770D01*
X260079Y49770D02*
X260081Y49860D01*
X260087Y49949D01*
X260096Y50039D01*
X260110Y50128D01*
X260127Y50216D01*
X260148Y50303D01*
X260173Y50390D01*
X260202Y50475D01*
X260234Y50559D01*
X260269Y50641D01*
X260309Y50722D01*
X260351Y50801D01*
X260397Y50878D01*
X260447Y50953D01*
X260499Y51026D01*
X260555Y51097D01*
X260613Y51165D01*
X260675Y51230D01*
X260739Y51293D01*
X260806Y51353D01*
X260875Y51410D01*
X260947Y51464D01*
X261021Y51515D01*
X261097Y51563D01*
X261175Y51607D01*
X261255Y51648D01*
X261337Y51686D01*
X261420Y51720D01*
X261505Y51750D01*
X261591Y51777D01*
X261677Y51800D01*
X261765Y51819D01*
X261854Y51834D01*
X261943Y51846D01*
X262032Y51854D01*
X262122Y51858D01*
X262212Y51858D01*
X262302Y51854D01*
X262391Y51846D01*
X262480Y51834D01*
X262569Y51819D01*
X262657Y51800D01*
X262743Y51777D01*
X262829Y51750D01*
X262914Y51720D01*
X262997Y51686D01*
X263079Y51648D01*
X263159Y51607D01*
X263237Y51563D01*
X263313Y51515D01*
X263387Y51464D01*
X263459Y51410D01*
X263528Y51353D01*
X263595Y51293D01*
X263659Y51230D01*
X263721Y51165D01*
X263779Y51097D01*
X263835Y51026D01*
X263887Y50953D01*
X263937Y50878D01*
X263983Y50801D01*
X264025Y50722D01*
X264065Y50641D01*
X264100Y50559D01*
X264132Y50475D01*
X264161Y50390D01*
X264186Y50303D01*
X264207Y50216D01*
X264224Y50128D01*
X264238Y50039D01*
X264247Y49949D01*
X264253Y49860D01*
X264255Y49770D01*
X264255Y48726D01*
X260078Y48726D01*
X268395Y45593D02*
X268395Y54991D01*
X271006Y54991D01*
X271106Y54989D01*
X271206Y54983D01*
X271305Y54974D01*
X271405Y54960D01*
X271503Y54943D01*
X271601Y54922D01*
X271698Y54898D01*
X271794Y54869D01*
X271889Y54837D01*
X271982Y54802D01*
X272074Y54763D01*
X272165Y54720D01*
X272253Y54674D01*
X272340Y54624D01*
X272425Y54572D01*
X272508Y54516D01*
X272589Y54457D01*
X272667Y54394D01*
X272743Y54329D01*
X272817Y54261D01*
X272887Y54191D01*
X272955Y54117D01*
X273020Y54041D01*
X273083Y53963D01*
X273142Y53882D01*
X273198Y53799D01*
X273250Y53714D01*
X273300Y53627D01*
X273346Y53539D01*
X273389Y53448D01*
X273428Y53356D01*
X273463Y53263D01*
X273495Y53168D01*
X273524Y53072D01*
X273548Y52975D01*
X273569Y52877D01*
X273586Y52779D01*
X273600Y52679D01*
X273609Y52580D01*
X273615Y52480D01*
X273617Y52380D01*
X273617Y48204D01*
X273615Y48104D01*
X273609Y48004D01*
X273600Y47905D01*
X273586Y47805D01*
X273569Y47707D01*
X273548Y47609D01*
X273524Y47512D01*
X273495Y47416D01*
X273463Y47321D01*
X273428Y47228D01*
X273389Y47136D01*
X273346Y47045D01*
X273300Y46957D01*
X273250Y46870D01*
X273198Y46785D01*
X273142Y46702D01*
X273083Y46621D01*
X273020Y46543D01*
X272955Y46467D01*
X272887Y46393D01*
X272817Y46323D01*
X272743Y46255D01*
X272667Y46190D01*
X272589Y46127D01*
X272508Y46068D01*
X272425Y46012D01*
X272340Y45960D01*
X272253Y45910D01*
X272165Y45864D01*
X272074Y45821D01*
X271982Y45782D01*
X271889Y45747D01*
X271794Y45715D01*
X271698Y45686D01*
X271601Y45662D01*
X271503Y45641D01*
X271405Y45624D01*
X271305Y45610D01*
X271206Y45601D01*
X271106Y45595D01*
X271006Y45593D01*
X268395Y45593D01*
X279323Y45593D02*
X281934Y45593D01*
X279323Y45593D02*
X279246Y45595D01*
X279170Y45601D01*
X279093Y45610D01*
X279017Y45623D01*
X278942Y45640D01*
X278868Y45660D01*
X278795Y45685D01*
X278724Y45712D01*
X278653Y45743D01*
X278585Y45778D01*
X278518Y45816D01*
X278453Y45857D01*
X278390Y45901D01*
X278330Y45948D01*
X278271Y45999D01*
X278216Y46052D01*
X278163Y46107D01*
X278112Y46166D01*
X278065Y46226D01*
X278021Y46289D01*
X277980Y46354D01*
X277942Y46421D01*
X277907Y46489D01*
X277876Y46560D01*
X277849Y46631D01*
X277824Y46704D01*
X277804Y46778D01*
X277787Y46853D01*
X277774Y46929D01*
X277765Y47006D01*
X277759Y47082D01*
X277757Y47159D01*
X277757Y49770D01*
X277759Y49860D01*
X277765Y49949D01*
X277774Y50039D01*
X277788Y50128D01*
X277805Y50216D01*
X277826Y50303D01*
X277851Y50390D01*
X277880Y50475D01*
X277912Y50559D01*
X277947Y50641D01*
X277987Y50722D01*
X278029Y50801D01*
X278075Y50878D01*
X278125Y50953D01*
X278177Y51026D01*
X278233Y51097D01*
X278291Y51165D01*
X278353Y51230D01*
X278417Y51293D01*
X278484Y51353D01*
X278553Y51410D01*
X278625Y51464D01*
X278699Y51515D01*
X278775Y51563D01*
X278853Y51607D01*
X278933Y51648D01*
X279015Y51686D01*
X279098Y51720D01*
X279183Y51750D01*
X279269Y51777D01*
X279355Y51800D01*
X279443Y51819D01*
X279532Y51834D01*
X279621Y51846D01*
X279710Y51854D01*
X279800Y51858D01*
X279890Y51858D01*
X279980Y51854D01*
X280069Y51846D01*
X280158Y51834D01*
X280247Y51819D01*
X280335Y51800D01*
X280421Y51777D01*
X280507Y51750D01*
X280592Y51720D01*
X280675Y51686D01*
X280757Y51648D01*
X280837Y51607D01*
X280915Y51563D01*
X280991Y51515D01*
X281065Y51464D01*
X281137Y51410D01*
X281206Y51353D01*
X281273Y51293D01*
X281337Y51230D01*
X281399Y51165D01*
X281457Y51097D01*
X281513Y51026D01*
X281565Y50953D01*
X281615Y50878D01*
X281661Y50801D01*
X281703Y50722D01*
X281743Y50641D01*
X281778Y50559D01*
X281810Y50475D01*
X281839Y50390D01*
X281864Y50303D01*
X281885Y50216D01*
X281902Y50128D01*
X281916Y50039D01*
X281925Y49949D01*
X281931Y49860D01*
X281933Y49770D01*
X281934Y49770D02*
X281934Y48726D01*
X277757Y48726D01*
X285377Y51858D02*
X287465Y45593D01*
X289554Y51858D01*
X294563Y45593D02*
X297174Y45593D01*
X294563Y45593D02*
X294486Y45595D01*
X294410Y45601D01*
X294333Y45610D01*
X294257Y45623D01*
X294182Y45640D01*
X294108Y45660D01*
X294035Y45685D01*
X293964Y45712D01*
X293893Y45743D01*
X293825Y45778D01*
X293758Y45816D01*
X293693Y45857D01*
X293630Y45901D01*
X293570Y45948D01*
X293511Y45999D01*
X293456Y46052D01*
X293403Y46107D01*
X293352Y46166D01*
X293305Y46226D01*
X293261Y46289D01*
X293220Y46354D01*
X293182Y46421D01*
X293147Y46489D01*
X293116Y46560D01*
X293089Y46631D01*
X293064Y46704D01*
X293044Y46778D01*
X293027Y46853D01*
X293014Y46929D01*
X293005Y47006D01*
X292999Y47082D01*
X292997Y47159D01*
X292997Y49770D01*
X292999Y49860D01*
X293005Y49949D01*
X293014Y50039D01*
X293028Y50128D01*
X293045Y50216D01*
X293066Y50303D01*
X293091Y50390D01*
X293120Y50475D01*
X293152Y50559D01*
X293187Y50641D01*
X293227Y50722D01*
X293269Y50801D01*
X293315Y50878D01*
X293365Y50953D01*
X293417Y51026D01*
X293473Y51097D01*
X293531Y51165D01*
X293593Y51230D01*
X293657Y51293D01*
X293724Y51353D01*
X293793Y51410D01*
X293865Y51464D01*
X293939Y51515D01*
X294015Y51563D01*
X294093Y51607D01*
X294173Y51648D01*
X294255Y51686D01*
X294338Y51720D01*
X294423Y51750D01*
X294509Y51777D01*
X294595Y51800D01*
X294683Y51819D01*
X294772Y51834D01*
X294861Y51846D01*
X294950Y51854D01*
X295040Y51858D01*
X295130Y51858D01*
X295220Y51854D01*
X295309Y51846D01*
X295398Y51834D01*
X295487Y51819D01*
X295575Y51800D01*
X295661Y51777D01*
X295747Y51750D01*
X295832Y51720D01*
X295915Y51686D01*
X295997Y51648D01*
X296077Y51607D01*
X296155Y51563D01*
X296231Y51515D01*
X296305Y51464D01*
X296377Y51410D01*
X296446Y51353D01*
X296513Y51293D01*
X296577Y51230D01*
X296639Y51165D01*
X296697Y51097D01*
X296753Y51026D01*
X296805Y50953D01*
X296855Y50878D01*
X296901Y50801D01*
X296943Y50722D01*
X296983Y50641D01*
X297018Y50559D01*
X297050Y50475D01*
X297079Y50390D01*
X297104Y50303D01*
X297125Y50216D01*
X297142Y50128D01*
X297156Y50039D01*
X297165Y49949D01*
X297171Y49860D01*
X297173Y49770D01*
X297174Y49770D02*
X297174Y48726D01*
X292997Y48726D01*
X301047Y47159D02*
X301047Y54991D01*
X301047Y47159D02*
X301049Y47082D01*
X301055Y47006D01*
X301064Y46929D01*
X301077Y46853D01*
X301094Y46778D01*
X301114Y46704D01*
X301139Y46631D01*
X301166Y46560D01*
X301197Y46489D01*
X301232Y46421D01*
X301270Y46354D01*
X301311Y46289D01*
X301355Y46226D01*
X301402Y46166D01*
X301453Y46107D01*
X301506Y46052D01*
X301561Y45999D01*
X301620Y45948D01*
X301680Y45901D01*
X301743Y45857D01*
X301808Y45816D01*
X301875Y45778D01*
X301943Y45743D01*
X302014Y45712D01*
X302085Y45685D01*
X302158Y45660D01*
X302232Y45640D01*
X302307Y45623D01*
X302383Y45610D01*
X302460Y45601D01*
X302536Y45595D01*
X302613Y45593D01*
X305798Y47681D02*
X305798Y49770D01*
X305799Y49770D02*
X305801Y49860D01*
X305807Y49949D01*
X305816Y50039D01*
X305830Y50128D01*
X305847Y50216D01*
X305868Y50303D01*
X305893Y50390D01*
X305922Y50475D01*
X305954Y50559D01*
X305989Y50641D01*
X306029Y50722D01*
X306071Y50801D01*
X306117Y50878D01*
X306167Y50953D01*
X306219Y51026D01*
X306275Y51097D01*
X306333Y51165D01*
X306395Y51230D01*
X306459Y51293D01*
X306526Y51353D01*
X306595Y51410D01*
X306667Y51464D01*
X306741Y51515D01*
X306817Y51563D01*
X306895Y51607D01*
X306975Y51648D01*
X307057Y51686D01*
X307140Y51720D01*
X307225Y51750D01*
X307311Y51777D01*
X307397Y51800D01*
X307485Y51819D01*
X307574Y51834D01*
X307663Y51846D01*
X307752Y51854D01*
X307842Y51858D01*
X307932Y51858D01*
X308022Y51854D01*
X308111Y51846D01*
X308200Y51834D01*
X308289Y51819D01*
X308377Y51800D01*
X308463Y51777D01*
X308549Y51750D01*
X308634Y51720D01*
X308717Y51686D01*
X308799Y51648D01*
X308879Y51607D01*
X308957Y51563D01*
X309033Y51515D01*
X309107Y51464D01*
X309179Y51410D01*
X309248Y51353D01*
X309315Y51293D01*
X309379Y51230D01*
X309441Y51165D01*
X309499Y51097D01*
X309555Y51026D01*
X309607Y50953D01*
X309657Y50878D01*
X309703Y50801D01*
X309745Y50722D01*
X309785Y50641D01*
X309820Y50559D01*
X309852Y50475D01*
X309881Y50390D01*
X309906Y50303D01*
X309927Y50216D01*
X309944Y50128D01*
X309958Y50039D01*
X309967Y49949D01*
X309973Y49860D01*
X309975Y49770D01*
X309975Y47681D01*
X309973Y47591D01*
X309967Y47502D01*
X309958Y47412D01*
X309944Y47323D01*
X309927Y47235D01*
X309906Y47148D01*
X309881Y47061D01*
X309852Y46976D01*
X309820Y46892D01*
X309785Y46810D01*
X309745Y46729D01*
X309703Y46650D01*
X309657Y46573D01*
X309607Y46498D01*
X309555Y46425D01*
X309499Y46354D01*
X309441Y46286D01*
X309379Y46221D01*
X309315Y46158D01*
X309248Y46098D01*
X309179Y46041D01*
X309107Y45987D01*
X309033Y45936D01*
X308957Y45888D01*
X308879Y45844D01*
X308799Y45803D01*
X308717Y45765D01*
X308634Y45731D01*
X308549Y45701D01*
X308463Y45674D01*
X308377Y45651D01*
X308289Y45632D01*
X308200Y45617D01*
X308111Y45605D01*
X308022Y45597D01*
X307932Y45593D01*
X307842Y45593D01*
X307752Y45597D01*
X307663Y45605D01*
X307574Y45617D01*
X307485Y45632D01*
X307397Y45651D01*
X307311Y45674D01*
X307225Y45701D01*
X307140Y45731D01*
X307057Y45765D01*
X306975Y45803D01*
X306895Y45844D01*
X306817Y45888D01*
X306741Y45936D01*
X306667Y45987D01*
X306595Y46041D01*
X306526Y46098D01*
X306459Y46158D01*
X306395Y46221D01*
X306333Y46286D01*
X306275Y46354D01*
X306219Y46425D01*
X306167Y46498D01*
X306117Y46573D01*
X306071Y46650D01*
X306029Y46729D01*
X305989Y46810D01*
X305954Y46892D01*
X305922Y46976D01*
X305893Y47061D01*
X305868Y47148D01*
X305847Y47235D01*
X305830Y47323D01*
X305816Y47412D01*
X305807Y47502D01*
X305801Y47591D01*
X305799Y47681D01*
X319079Y45593D02*
X319079Y54991D01*
X322212Y49770D01*
X325345Y54991D01*
X325345Y45593D01*
X331723Y45593D02*
X333811Y45593D01*
X331723Y45593D02*
X331634Y45595D01*
X331546Y45601D01*
X331458Y45610D01*
X331370Y45623D01*
X331283Y45640D01*
X331197Y45660D01*
X331112Y45685D01*
X331027Y45712D01*
X330944Y45744D01*
X330863Y45778D01*
X330783Y45817D01*
X330705Y45858D01*
X330628Y45903D01*
X330554Y45951D01*
X330481Y46002D01*
X330411Y46056D01*
X330344Y46114D01*
X330278Y46174D01*
X330216Y46236D01*
X330156Y46302D01*
X330098Y46369D01*
X330044Y46439D01*
X329993Y46512D01*
X329945Y46586D01*
X329900Y46663D01*
X329859Y46741D01*
X329820Y46821D01*
X329786Y46902D01*
X329754Y46985D01*
X329727Y47070D01*
X329702Y47155D01*
X329682Y47241D01*
X329665Y47328D01*
X329652Y47416D01*
X329643Y47504D01*
X329637Y47592D01*
X329635Y47681D01*
X329634Y47681D02*
X329634Y52903D01*
X329635Y52903D02*
X329637Y52994D01*
X329643Y53085D01*
X329653Y53176D01*
X329667Y53266D01*
X329684Y53355D01*
X329706Y53443D01*
X329732Y53531D01*
X329761Y53617D01*
X329794Y53702D01*
X329831Y53785D01*
X329871Y53867D01*
X329915Y53947D01*
X329962Y54025D01*
X330013Y54101D01*
X330066Y54174D01*
X330123Y54245D01*
X330184Y54314D01*
X330247Y54379D01*
X330312Y54442D01*
X330381Y54502D01*
X330452Y54560D01*
X330525Y54613D01*
X330601Y54664D01*
X330679Y54711D01*
X330759Y54755D01*
X330841Y54795D01*
X330924Y54832D01*
X331009Y54865D01*
X331095Y54894D01*
X331183Y54920D01*
X331271Y54942D01*
X331360Y54959D01*
X331450Y54973D01*
X331541Y54983D01*
X331632Y54989D01*
X331723Y54991D01*
X333811Y54991D01*
X337585Y54991D02*
X337585Y48204D01*
X337584Y48204D02*
X337586Y48103D01*
X337592Y48002D01*
X337602Y47901D01*
X337615Y47801D01*
X337633Y47701D01*
X337654Y47602D01*
X337680Y47504D01*
X337709Y47407D01*
X337741Y47311D01*
X337778Y47217D01*
X337818Y47124D01*
X337862Y47032D01*
X337909Y46943D01*
X337960Y46855D01*
X338014Y46769D01*
X338071Y46686D01*
X338131Y46604D01*
X338195Y46526D01*
X338261Y46449D01*
X338331Y46376D01*
X338403Y46305D01*
X338478Y46237D01*
X338556Y46172D01*
X338636Y46110D01*
X338718Y46051D01*
X338803Y45995D01*
X338890Y45943D01*
X338978Y45894D01*
X339069Y45848D01*
X339161Y45807D01*
X339255Y45768D01*
X339350Y45734D01*
X339446Y45703D01*
X339544Y45676D01*
X339642Y45652D01*
X339742Y45633D01*
X339842Y45617D01*
X339942Y45605D01*
X340043Y45597D01*
X340144Y45593D01*
X340246Y45593D01*
X340347Y45597D01*
X340448Y45605D01*
X340548Y45617D01*
X340648Y45633D01*
X340748Y45652D01*
X340846Y45676D01*
X340944Y45703D01*
X341040Y45734D01*
X341135Y45768D01*
X341229Y45807D01*
X341321Y45848D01*
X341412Y45894D01*
X341500Y45943D01*
X341587Y45995D01*
X341672Y46051D01*
X341754Y46110D01*
X341834Y46172D01*
X341912Y46237D01*
X341987Y46305D01*
X342059Y46376D01*
X342129Y46449D01*
X342195Y46526D01*
X342259Y46604D01*
X342319Y46686D01*
X342376Y46769D01*
X342430Y46855D01*
X342481Y46943D01*
X342528Y47032D01*
X342572Y47124D01*
X342612Y47217D01*
X342649Y47311D01*
X342681Y47407D01*
X342710Y47504D01*
X342736Y47602D01*
X342757Y47701D01*
X342775Y47801D01*
X342788Y47901D01*
X342798Y48002D01*
X342804Y48103D01*
X342806Y48204D01*
X342806Y54991D01*
X346606Y45593D02*
X347128Y45593D01*
X346606Y45593D02*
X346606Y46115D01*
X347128Y46115D01*
X347128Y45593D01*
X346345Y43505D01*
X355837Y45593D02*
X355837Y51858D01*
X358969Y51858D01*
X358969Y50814D01*
X363447Y45593D02*
X366058Y45593D01*
X363447Y45593D02*
X363370Y45595D01*
X363294Y45601D01*
X363217Y45610D01*
X363141Y45623D01*
X363066Y45640D01*
X362992Y45660D01*
X362919Y45685D01*
X362848Y45712D01*
X362777Y45743D01*
X362709Y45778D01*
X362642Y45816D01*
X362577Y45857D01*
X362514Y45901D01*
X362454Y45948D01*
X362395Y45999D01*
X362340Y46052D01*
X362287Y46107D01*
X362236Y46166D01*
X362189Y46226D01*
X362145Y46289D01*
X362104Y46354D01*
X362066Y46421D01*
X362031Y46489D01*
X362000Y46560D01*
X361973Y46631D01*
X361948Y46704D01*
X361928Y46778D01*
X361911Y46853D01*
X361898Y46929D01*
X361889Y47006D01*
X361883Y47082D01*
X361881Y47159D01*
X361881Y49770D01*
X361883Y49860D01*
X361889Y49949D01*
X361898Y50039D01*
X361912Y50128D01*
X361929Y50216D01*
X361950Y50303D01*
X361975Y50390D01*
X362004Y50475D01*
X362036Y50559D01*
X362071Y50641D01*
X362111Y50722D01*
X362153Y50801D01*
X362199Y50878D01*
X362249Y50953D01*
X362301Y51026D01*
X362357Y51097D01*
X362415Y51165D01*
X362477Y51230D01*
X362541Y51293D01*
X362608Y51353D01*
X362677Y51410D01*
X362749Y51464D01*
X362823Y51515D01*
X362899Y51563D01*
X362977Y51607D01*
X363057Y51648D01*
X363139Y51686D01*
X363222Y51720D01*
X363307Y51750D01*
X363393Y51777D01*
X363479Y51800D01*
X363567Y51819D01*
X363656Y51834D01*
X363745Y51846D01*
X363834Y51854D01*
X363924Y51858D01*
X364014Y51858D01*
X364104Y51854D01*
X364193Y51846D01*
X364282Y51834D01*
X364371Y51819D01*
X364459Y51800D01*
X364545Y51777D01*
X364631Y51750D01*
X364716Y51720D01*
X364799Y51686D01*
X364881Y51648D01*
X364961Y51607D01*
X365039Y51563D01*
X365115Y51515D01*
X365189Y51464D01*
X365261Y51410D01*
X365330Y51353D01*
X365397Y51293D01*
X365461Y51230D01*
X365523Y51165D01*
X365581Y51097D01*
X365637Y51026D01*
X365689Y50953D01*
X365739Y50878D01*
X365785Y50801D01*
X365827Y50722D01*
X365867Y50641D01*
X365902Y50559D01*
X365934Y50475D01*
X365963Y50390D01*
X365988Y50303D01*
X366009Y50216D01*
X366026Y50128D01*
X366040Y50039D01*
X366049Y49949D01*
X366055Y49860D01*
X366057Y49770D01*
X366058Y49770D02*
X366058Y48726D01*
X361881Y48726D01*
X369501Y51858D02*
X371589Y45593D01*
X373678Y51858D01*
X376815Y46115D02*
X376815Y45593D01*
X376815Y46115D02*
X377337Y46115D01*
X377337Y45593D01*
X376815Y45593D01*
X385221Y45593D02*
X388353Y54991D01*
X391486Y45593D01*
X390703Y47943D02*
X386004Y47943D01*
X253167Y40287D02*
X253031Y40121D01*
X252899Y39951D01*
X252771Y39778D01*
X252647Y39602D01*
X252528Y39424D01*
X252413Y39242D01*
X252302Y39058D01*
X252196Y38871D01*
X252094Y38681D01*
X251997Y38489D01*
X251904Y38295D01*
X251816Y38099D01*
X251733Y37901D01*
X251655Y37700D01*
X251581Y37498D01*
X251513Y37294D01*
X251449Y37089D01*
X251390Y36882D01*
X251336Y36674D01*
X251288Y36464D01*
X251244Y36254D01*
X251205Y36042D01*
X251172Y35830D01*
X251144Y35617D01*
X251120Y35403D01*
X251102Y35189D01*
X251089Y34974D01*
X251082Y34759D01*
X251079Y34544D01*
X251082Y34329D01*
X251089Y34114D01*
X251102Y33899D01*
X251120Y33685D01*
X251144Y33471D01*
X251172Y33258D01*
X251205Y33046D01*
X251244Y32834D01*
X251288Y32624D01*
X251336Y32414D01*
X251390Y32206D01*
X251449Y31999D01*
X251513Y31794D01*
X251581Y31590D01*
X251655Y31388D01*
X251733Y31187D01*
X251816Y30989D01*
X251904Y30793D01*
X251997Y30599D01*
X252094Y30407D01*
X252196Y30217D01*
X252302Y30030D01*
X252413Y29846D01*
X252528Y29665D01*
X252647Y29486D01*
X252771Y29310D01*
X252899Y29137D01*
X253031Y28967D01*
X253167Y28801D01*
X258868Y29845D02*
X260956Y29845D01*
X258868Y29845D02*
X258779Y29847D01*
X258691Y29853D01*
X258603Y29862D01*
X258515Y29875D01*
X258428Y29892D01*
X258342Y29912D01*
X258257Y29937D01*
X258172Y29964D01*
X258089Y29996D01*
X258008Y30030D01*
X257928Y30069D01*
X257850Y30110D01*
X257773Y30155D01*
X257699Y30203D01*
X257626Y30254D01*
X257556Y30308D01*
X257489Y30366D01*
X257423Y30426D01*
X257361Y30488D01*
X257301Y30554D01*
X257243Y30621D01*
X257189Y30691D01*
X257138Y30764D01*
X257090Y30838D01*
X257045Y30915D01*
X257004Y30993D01*
X256965Y31073D01*
X256931Y31154D01*
X256899Y31237D01*
X256872Y31322D01*
X256847Y31407D01*
X256827Y31493D01*
X256810Y31580D01*
X256797Y31668D01*
X256788Y31756D01*
X256782Y31844D01*
X256780Y31933D01*
X256779Y31933D02*
X256779Y37155D01*
X256780Y37155D02*
X256782Y37246D01*
X256788Y37337D01*
X256798Y37428D01*
X256812Y37518D01*
X256829Y37607D01*
X256851Y37695D01*
X256877Y37783D01*
X256906Y37869D01*
X256939Y37954D01*
X256976Y38037D01*
X257016Y38119D01*
X257060Y38199D01*
X257107Y38277D01*
X257158Y38353D01*
X257211Y38426D01*
X257268Y38497D01*
X257329Y38566D01*
X257392Y38631D01*
X257457Y38694D01*
X257526Y38754D01*
X257597Y38812D01*
X257670Y38865D01*
X257746Y38916D01*
X257824Y38963D01*
X257904Y39007D01*
X257986Y39047D01*
X258069Y39084D01*
X258154Y39117D01*
X258240Y39146D01*
X258328Y39172D01*
X258416Y39194D01*
X258505Y39211D01*
X258595Y39225D01*
X258686Y39235D01*
X258777Y39241D01*
X258868Y39243D01*
X260956Y39243D01*
X266228Y34544D02*
X266225Y34329D01*
X266218Y34114D01*
X266205Y33899D01*
X266187Y33685D01*
X266163Y33471D01*
X266135Y33258D01*
X266102Y33046D01*
X266063Y32834D01*
X266019Y32624D01*
X265971Y32414D01*
X265917Y32206D01*
X265858Y31999D01*
X265794Y31794D01*
X265726Y31590D01*
X265652Y31388D01*
X265574Y31187D01*
X265491Y30989D01*
X265403Y30793D01*
X265310Y30599D01*
X265213Y30407D01*
X265111Y30217D01*
X265005Y30030D01*
X264894Y29846D01*
X264779Y29665D01*
X264660Y29486D01*
X264536Y29310D01*
X264408Y29137D01*
X264276Y28967D01*
X264140Y28801D01*
X266228Y34544D02*
X266225Y34759D01*
X266218Y34974D01*
X266205Y35189D01*
X266187Y35403D01*
X266163Y35617D01*
X266135Y35830D01*
X266102Y36042D01*
X266063Y36254D01*
X266019Y36464D01*
X265971Y36674D01*
X265917Y36882D01*
X265858Y37089D01*
X265794Y37294D01*
X265726Y37498D01*
X265652Y37700D01*
X265574Y37901D01*
X265491Y38099D01*
X265403Y38295D01*
X265310Y38489D01*
X265213Y38681D01*
X265111Y38871D01*
X265005Y39058D01*
X264894Y39242D01*
X264779Y39424D01*
X264660Y39602D01*
X264536Y39778D01*
X264408Y39951D01*
X264276Y40121D01*
X264140Y40287D01*
X273088Y39244D02*
X273183Y39242D01*
X273277Y39236D01*
X273371Y39227D01*
X273465Y39214D01*
X273558Y39197D01*
X273650Y39176D01*
X273742Y39151D01*
X273832Y39123D01*
X273921Y39091D01*
X274009Y39056D01*
X274095Y39017D01*
X274180Y38975D01*
X274263Y38929D01*
X274344Y38880D01*
X274423Y38828D01*
X274500Y38773D01*
X274574Y38714D01*
X274646Y38653D01*
X274716Y38589D01*
X274783Y38522D01*
X274847Y38452D01*
X274908Y38380D01*
X274967Y38306D01*
X275022Y38229D01*
X275074Y38150D01*
X275123Y38069D01*
X275169Y37986D01*
X275211Y37901D01*
X275250Y37815D01*
X275285Y37727D01*
X275317Y37638D01*
X275345Y37548D01*
X275370Y37456D01*
X275391Y37364D01*
X275408Y37271D01*
X275421Y37177D01*
X275430Y37083D01*
X275436Y36989D01*
X275438Y36894D01*
X273088Y39243D02*
X272980Y39241D01*
X272871Y39235D01*
X272763Y39225D01*
X272656Y39212D01*
X272549Y39194D01*
X272442Y39173D01*
X272337Y39148D01*
X272232Y39119D01*
X272129Y39087D01*
X272027Y39050D01*
X271926Y39010D01*
X271827Y38967D01*
X271729Y38920D01*
X271633Y38869D01*
X271539Y38815D01*
X271447Y38758D01*
X271357Y38697D01*
X271269Y38633D01*
X271184Y38567D01*
X271101Y38497D01*
X271021Y38424D01*
X270943Y38348D01*
X270868Y38270D01*
X270796Y38189D01*
X270727Y38105D01*
X270661Y38019D01*
X270598Y37931D01*
X270539Y37840D01*
X270482Y37748D01*
X270429Y37653D01*
X270380Y37557D01*
X270334Y37458D01*
X270291Y37359D01*
X270252Y37257D01*
X270217Y37155D01*
X274655Y35066D02*
X274724Y35135D01*
X274790Y35206D01*
X274854Y35279D01*
X274915Y35355D01*
X274973Y35434D01*
X275027Y35514D01*
X275079Y35597D01*
X275127Y35681D01*
X275173Y35767D01*
X275214Y35855D01*
X275253Y35945D01*
X275288Y36036D01*
X275319Y36128D01*
X275347Y36221D01*
X275371Y36315D01*
X275391Y36410D01*
X275408Y36506D01*
X275421Y36603D01*
X275430Y36700D01*
X275436Y36797D01*
X275438Y36894D01*
X274654Y35066D02*
X270216Y29845D01*
X275437Y29845D01*
X279360Y34544D02*
X279362Y34729D01*
X279369Y34914D01*
X279380Y35098D01*
X279395Y35282D01*
X279415Y35466D01*
X279439Y35650D01*
X279468Y35832D01*
X279501Y36014D01*
X279538Y36195D01*
X279580Y36375D01*
X279626Y36555D01*
X279676Y36733D01*
X279730Y36909D01*
X279789Y37085D01*
X279851Y37259D01*
X279918Y37431D01*
X279989Y37602D01*
X280064Y37771D01*
X280143Y37938D01*
X280173Y38018D01*
X280206Y38097D01*
X280243Y38174D01*
X280283Y38250D01*
X280326Y38324D01*
X280372Y38396D01*
X280422Y38465D01*
X280474Y38533D01*
X280530Y38598D01*
X280588Y38661D01*
X280650Y38720D01*
X280713Y38778D01*
X280780Y38832D01*
X280848Y38883D01*
X280919Y38931D01*
X280992Y38976D01*
X281066Y39018D01*
X281143Y39056D01*
X281221Y39091D01*
X281300Y39123D01*
X281381Y39151D01*
X281463Y39175D01*
X281547Y39196D01*
X281630Y39213D01*
X281715Y39226D01*
X281800Y39235D01*
X281885Y39241D01*
X281971Y39243D01*
X282057Y39241D01*
X282142Y39235D01*
X282227Y39226D01*
X282312Y39213D01*
X282395Y39196D01*
X282479Y39175D01*
X282561Y39151D01*
X282642Y39123D01*
X282721Y39091D01*
X282799Y39056D01*
X282876Y39018D01*
X282950Y38976D01*
X283023Y38931D01*
X283094Y38883D01*
X283162Y38832D01*
X283229Y38778D01*
X283292Y38720D01*
X283354Y38661D01*
X283412Y38598D01*
X283468Y38533D01*
X283520Y38465D01*
X283570Y38396D01*
X283616Y38324D01*
X283659Y38250D01*
X283699Y38174D01*
X283736Y38097D01*
X283769Y38018D01*
X283799Y37938D01*
X283798Y37938D02*
X283877Y37771D01*
X283952Y37602D01*
X284023Y37431D01*
X284090Y37259D01*
X284152Y37085D01*
X284211Y36909D01*
X284265Y36733D01*
X284315Y36555D01*
X284361Y36375D01*
X284403Y36195D01*
X284440Y36014D01*
X284473Y35832D01*
X284502Y35650D01*
X284526Y35466D01*
X284546Y35282D01*
X284561Y35098D01*
X284572Y34914D01*
X284579Y34729D01*
X284581Y34544D01*
X279360Y34544D02*
X279362Y34359D01*
X279369Y34174D01*
X279380Y33990D01*
X279395Y33806D01*
X279415Y33622D01*
X279439Y33438D01*
X279468Y33256D01*
X279501Y33074D01*
X279538Y32893D01*
X279580Y32713D01*
X279626Y32533D01*
X279676Y32355D01*
X279730Y32179D01*
X279789Y32003D01*
X279851Y31829D01*
X279918Y31657D01*
X279989Y31486D01*
X280064Y31317D01*
X280143Y31150D01*
X280173Y31070D01*
X280206Y30991D01*
X280243Y30914D01*
X280283Y30838D01*
X280326Y30764D01*
X280372Y30692D01*
X280422Y30623D01*
X280475Y30555D01*
X280530Y30490D01*
X280589Y30427D01*
X280650Y30368D01*
X280713Y30310D01*
X280780Y30256D01*
X280848Y30205D01*
X280919Y30157D01*
X280992Y30112D01*
X281066Y30070D01*
X281143Y30032D01*
X281221Y29997D01*
X281300Y29965D01*
X281381Y29937D01*
X281463Y29913D01*
X281547Y29892D01*
X281630Y29875D01*
X281715Y29862D01*
X281800Y29853D01*
X281885Y29847D01*
X281971Y29845D01*
X283798Y31150D02*
X283877Y31317D01*
X283952Y31486D01*
X284023Y31657D01*
X284090Y31829D01*
X284152Y32003D01*
X284211Y32179D01*
X284265Y32355D01*
X284315Y32533D01*
X284361Y32713D01*
X284403Y32893D01*
X284440Y33074D01*
X284473Y33256D01*
X284502Y33438D01*
X284526Y33622D01*
X284546Y33806D01*
X284561Y33990D01*
X284572Y34174D01*
X284579Y34359D01*
X284581Y34544D01*
X283799Y31150D02*
X283769Y31070D01*
X283736Y30991D01*
X283699Y30914D01*
X283659Y30838D01*
X283616Y30764D01*
X283570Y30692D01*
X283520Y30623D01*
X283468Y30555D01*
X283412Y30490D01*
X283354Y30427D01*
X283292Y30368D01*
X283229Y30310D01*
X283162Y30256D01*
X283094Y30205D01*
X283023Y30157D01*
X282950Y30112D01*
X282876Y30070D01*
X282799Y30032D01*
X282721Y29997D01*
X282642Y29965D01*
X282561Y29937D01*
X282479Y29913D01*
X282395Y29892D01*
X282312Y29875D01*
X282227Y29862D01*
X282142Y29853D01*
X282057Y29847D01*
X281971Y29845D01*
X279882Y31933D02*
X284059Y37155D01*
X291376Y39244D02*
X291471Y39242D01*
X291565Y39236D01*
X291659Y39227D01*
X291753Y39214D01*
X291846Y39197D01*
X291938Y39176D01*
X292030Y39151D01*
X292120Y39123D01*
X292209Y39091D01*
X292297Y39056D01*
X292383Y39017D01*
X292468Y38975D01*
X292551Y38929D01*
X292632Y38880D01*
X292711Y38828D01*
X292788Y38773D01*
X292862Y38714D01*
X292934Y38653D01*
X293004Y38589D01*
X293071Y38522D01*
X293135Y38452D01*
X293196Y38380D01*
X293255Y38306D01*
X293310Y38229D01*
X293362Y38150D01*
X293411Y38069D01*
X293457Y37986D01*
X293499Y37901D01*
X293538Y37815D01*
X293573Y37727D01*
X293605Y37638D01*
X293633Y37548D01*
X293658Y37456D01*
X293679Y37364D01*
X293696Y37271D01*
X293709Y37177D01*
X293718Y37083D01*
X293724Y36989D01*
X293726Y36894D01*
X291376Y39243D02*
X291268Y39241D01*
X291159Y39235D01*
X291051Y39225D01*
X290944Y39212D01*
X290837Y39194D01*
X290730Y39173D01*
X290625Y39148D01*
X290520Y39119D01*
X290417Y39087D01*
X290315Y39050D01*
X290214Y39010D01*
X290115Y38967D01*
X290017Y38920D01*
X289921Y38869D01*
X289827Y38815D01*
X289735Y38758D01*
X289645Y38697D01*
X289557Y38633D01*
X289472Y38567D01*
X289389Y38497D01*
X289309Y38424D01*
X289231Y38348D01*
X289156Y38270D01*
X289084Y38189D01*
X289015Y38105D01*
X288949Y38019D01*
X288886Y37931D01*
X288827Y37840D01*
X288770Y37748D01*
X288717Y37653D01*
X288668Y37557D01*
X288622Y37458D01*
X288579Y37359D01*
X288540Y37257D01*
X288505Y37155D01*
X292942Y35066D02*
X293011Y35135D01*
X293077Y35206D01*
X293141Y35279D01*
X293202Y35355D01*
X293260Y35434D01*
X293314Y35514D01*
X293366Y35597D01*
X293414Y35681D01*
X293460Y35767D01*
X293501Y35855D01*
X293540Y35945D01*
X293575Y36036D01*
X293606Y36128D01*
X293634Y36221D01*
X293658Y36315D01*
X293678Y36410D01*
X293695Y36506D01*
X293708Y36603D01*
X293717Y36700D01*
X293723Y36797D01*
X293725Y36894D01*
X292942Y35066D02*
X288504Y29845D01*
X293725Y29845D01*
X302870Y36894D02*
X302868Y36989D01*
X302862Y37083D01*
X302853Y37177D01*
X302840Y37271D01*
X302823Y37364D01*
X302802Y37456D01*
X302777Y37548D01*
X302749Y37638D01*
X302717Y37727D01*
X302682Y37815D01*
X302643Y37901D01*
X302601Y37986D01*
X302555Y38069D01*
X302506Y38150D01*
X302454Y38229D01*
X302399Y38306D01*
X302340Y38380D01*
X302279Y38452D01*
X302215Y38522D01*
X302148Y38589D01*
X302078Y38653D01*
X302006Y38714D01*
X301932Y38773D01*
X301855Y38828D01*
X301776Y38880D01*
X301695Y38929D01*
X301612Y38975D01*
X301527Y39017D01*
X301441Y39056D01*
X301353Y39091D01*
X301264Y39123D01*
X301174Y39151D01*
X301082Y39176D01*
X300990Y39197D01*
X300897Y39214D01*
X300803Y39227D01*
X300709Y39236D01*
X300615Y39242D01*
X300520Y39244D01*
X300520Y39243D02*
X300412Y39241D01*
X300303Y39235D01*
X300195Y39225D01*
X300088Y39212D01*
X299981Y39194D01*
X299874Y39173D01*
X299769Y39148D01*
X299664Y39119D01*
X299561Y39087D01*
X299459Y39050D01*
X299358Y39010D01*
X299259Y38967D01*
X299161Y38920D01*
X299065Y38869D01*
X298971Y38815D01*
X298879Y38758D01*
X298789Y38697D01*
X298701Y38633D01*
X298616Y38567D01*
X298533Y38497D01*
X298453Y38424D01*
X298375Y38348D01*
X298300Y38270D01*
X298228Y38189D01*
X298159Y38105D01*
X298093Y38019D01*
X298030Y37931D01*
X297971Y37840D01*
X297914Y37748D01*
X297861Y37653D01*
X297812Y37557D01*
X297766Y37458D01*
X297723Y37359D01*
X297684Y37257D01*
X297649Y37155D01*
X302086Y35066D02*
X302155Y35135D01*
X302221Y35206D01*
X302285Y35279D01*
X302346Y35355D01*
X302404Y35434D01*
X302458Y35514D01*
X302510Y35597D01*
X302558Y35681D01*
X302604Y35767D01*
X302645Y35855D01*
X302684Y35945D01*
X302719Y36036D01*
X302750Y36128D01*
X302778Y36221D01*
X302802Y36315D01*
X302822Y36410D01*
X302839Y36506D01*
X302852Y36603D01*
X302861Y36700D01*
X302867Y36797D01*
X302869Y36894D01*
X302086Y35066D02*
X297648Y29845D01*
X302869Y29845D01*
X311974Y29845D02*
X311974Y39243D01*
X314584Y39243D01*
X314684Y39241D01*
X314784Y39235D01*
X314883Y39226D01*
X314983Y39212D01*
X315081Y39195D01*
X315179Y39174D01*
X315276Y39150D01*
X315372Y39121D01*
X315467Y39089D01*
X315560Y39054D01*
X315652Y39015D01*
X315743Y38972D01*
X315831Y38926D01*
X315918Y38876D01*
X316003Y38824D01*
X316086Y38768D01*
X316167Y38709D01*
X316245Y38646D01*
X316321Y38581D01*
X316395Y38513D01*
X316465Y38443D01*
X316533Y38369D01*
X316598Y38293D01*
X316661Y38215D01*
X316720Y38134D01*
X316776Y38051D01*
X316828Y37966D01*
X316878Y37879D01*
X316924Y37791D01*
X316967Y37700D01*
X317006Y37608D01*
X317041Y37515D01*
X317073Y37420D01*
X317102Y37324D01*
X317126Y37227D01*
X317147Y37129D01*
X317164Y37031D01*
X317178Y36931D01*
X317187Y36832D01*
X317193Y36732D01*
X317195Y36632D01*
X317195Y32456D01*
X317193Y32356D01*
X317187Y32256D01*
X317178Y32157D01*
X317164Y32057D01*
X317147Y31959D01*
X317126Y31861D01*
X317102Y31764D01*
X317073Y31668D01*
X317041Y31573D01*
X317006Y31480D01*
X316967Y31388D01*
X316924Y31297D01*
X316878Y31209D01*
X316828Y31122D01*
X316776Y31037D01*
X316720Y30954D01*
X316661Y30873D01*
X316598Y30795D01*
X316533Y30719D01*
X316465Y30645D01*
X316395Y30575D01*
X316321Y30507D01*
X316245Y30442D01*
X316167Y30379D01*
X316086Y30320D01*
X316003Y30264D01*
X315918Y30212D01*
X315831Y30162D01*
X315743Y30116D01*
X315652Y30073D01*
X315560Y30034D01*
X315467Y29999D01*
X315372Y29967D01*
X315276Y29938D01*
X315179Y29914D01*
X315081Y29893D01*
X314983Y29876D01*
X314883Y29862D01*
X314784Y29853D01*
X314684Y29847D01*
X314584Y29845D01*
X311974Y29845D01*
X323117Y33500D02*
X325466Y33500D01*
X323117Y33499D02*
X323033Y33497D01*
X322948Y33491D01*
X322865Y33481D01*
X322781Y33468D01*
X322699Y33450D01*
X322617Y33429D01*
X322536Y33404D01*
X322457Y33376D01*
X322379Y33343D01*
X322303Y33307D01*
X322228Y33268D01*
X322155Y33225D01*
X322084Y33179D01*
X322016Y33130D01*
X321950Y33078D01*
X321886Y33022D01*
X321825Y32964D01*
X321767Y32903D01*
X321711Y32839D01*
X321659Y32773D01*
X321610Y32705D01*
X321564Y32634D01*
X321521Y32561D01*
X321482Y32486D01*
X321446Y32410D01*
X321413Y32332D01*
X321385Y32253D01*
X321360Y32172D01*
X321339Y32090D01*
X321321Y32008D01*
X321308Y31924D01*
X321298Y31841D01*
X321292Y31756D01*
X321290Y31672D01*
X321292Y31588D01*
X321298Y31503D01*
X321308Y31420D01*
X321321Y31336D01*
X321339Y31254D01*
X321360Y31172D01*
X321385Y31091D01*
X321413Y31012D01*
X321446Y30934D01*
X321482Y30858D01*
X321521Y30783D01*
X321564Y30710D01*
X321610Y30639D01*
X321659Y30571D01*
X321711Y30505D01*
X321767Y30441D01*
X321825Y30380D01*
X321886Y30322D01*
X321950Y30266D01*
X322016Y30214D01*
X322084Y30165D01*
X322155Y30119D01*
X322228Y30076D01*
X322303Y30037D01*
X322379Y30001D01*
X322457Y29968D01*
X322536Y29940D01*
X322617Y29915D01*
X322699Y29894D01*
X322781Y29876D01*
X322865Y29863D01*
X322948Y29853D01*
X323033Y29847D01*
X323117Y29845D01*
X325466Y29845D01*
X325466Y34544D01*
X325464Y34621D01*
X325458Y34697D01*
X325449Y34774D01*
X325436Y34850D01*
X325419Y34925D01*
X325399Y34999D01*
X325374Y35072D01*
X325347Y35143D01*
X325316Y35214D01*
X325281Y35282D01*
X325243Y35349D01*
X325202Y35414D01*
X325158Y35477D01*
X325111Y35537D01*
X325060Y35596D01*
X325007Y35651D01*
X324952Y35704D01*
X324893Y35755D01*
X324833Y35802D01*
X324770Y35846D01*
X324705Y35887D01*
X324638Y35925D01*
X324570Y35960D01*
X324499Y35991D01*
X324428Y36018D01*
X324355Y36043D01*
X324281Y36063D01*
X324206Y36080D01*
X324130Y36093D01*
X324053Y36102D01*
X323977Y36108D01*
X323900Y36110D01*
X321811Y36110D01*
X329260Y36110D02*
X331348Y29845D01*
X333436Y36110D01*
X336834Y36110D02*
X336834Y29845D01*
X336573Y38721D02*
X336573Y39243D01*
X337095Y39243D01*
X337095Y38721D01*
X336573Y38721D01*
X344668Y39243D02*
X344668Y29845D01*
X342058Y29845D01*
X341981Y29847D01*
X341905Y29853D01*
X341828Y29862D01*
X341752Y29875D01*
X341677Y29892D01*
X341603Y29912D01*
X341530Y29937D01*
X341459Y29964D01*
X341388Y29995D01*
X341320Y30030D01*
X341253Y30068D01*
X341188Y30109D01*
X341125Y30153D01*
X341065Y30200D01*
X341006Y30251D01*
X340951Y30304D01*
X340898Y30359D01*
X340847Y30418D01*
X340800Y30478D01*
X340756Y30541D01*
X340715Y30606D01*
X340677Y30673D01*
X340642Y30741D01*
X340611Y30812D01*
X340584Y30883D01*
X340559Y30956D01*
X340539Y31030D01*
X340522Y31105D01*
X340509Y31181D01*
X340500Y31258D01*
X340494Y31334D01*
X340492Y31411D01*
X340491Y31411D02*
X340491Y34544D01*
X340492Y34544D02*
X340494Y34621D01*
X340500Y34697D01*
X340509Y34774D01*
X340522Y34850D01*
X340539Y34925D01*
X340559Y34999D01*
X340584Y35072D01*
X340611Y35143D01*
X340642Y35214D01*
X340677Y35282D01*
X340715Y35349D01*
X340756Y35414D01*
X340800Y35477D01*
X340847Y35537D01*
X340898Y35596D01*
X340951Y35651D01*
X341006Y35704D01*
X341065Y35755D01*
X341125Y35802D01*
X341188Y35846D01*
X341253Y35887D01*
X341320Y35925D01*
X341388Y35960D01*
X341459Y35991D01*
X341530Y36018D01*
X341603Y36043D01*
X341677Y36063D01*
X341752Y36080D01*
X341828Y36093D01*
X341905Y36102D01*
X341981Y36108D01*
X342058Y36110D01*
X344668Y36110D01*
X356559Y29845D02*
X356648Y29847D01*
X356736Y29853D01*
X356824Y29862D01*
X356912Y29875D01*
X356999Y29892D01*
X357085Y29912D01*
X357170Y29937D01*
X357255Y29964D01*
X357338Y29996D01*
X357419Y30030D01*
X357499Y30069D01*
X357577Y30110D01*
X357654Y30155D01*
X357728Y30203D01*
X357801Y30254D01*
X357871Y30308D01*
X357938Y30366D01*
X358004Y30426D01*
X358066Y30488D01*
X358126Y30554D01*
X358184Y30621D01*
X358238Y30691D01*
X358289Y30764D01*
X358337Y30838D01*
X358382Y30915D01*
X358423Y30993D01*
X358462Y31073D01*
X358496Y31154D01*
X358528Y31237D01*
X358555Y31322D01*
X358580Y31407D01*
X358600Y31493D01*
X358617Y31580D01*
X358630Y31668D01*
X358639Y31756D01*
X358645Y31844D01*
X358647Y31933D01*
X356559Y29845D02*
X356430Y29847D01*
X356301Y29853D01*
X356172Y29862D01*
X356044Y29875D01*
X355916Y29892D01*
X355789Y29913D01*
X355662Y29937D01*
X355536Y29965D01*
X355411Y29997D01*
X355287Y30032D01*
X355164Y30071D01*
X355042Y30114D01*
X354922Y30160D01*
X354803Y30210D01*
X354685Y30263D01*
X354569Y30319D01*
X354455Y30379D01*
X354342Y30442D01*
X354232Y30509D01*
X354123Y30578D01*
X354017Y30651D01*
X353912Y30727D01*
X353810Y30806D01*
X353711Y30888D01*
X353613Y30972D01*
X353518Y31060D01*
X353426Y31150D01*
X353687Y37155D02*
X353689Y37244D01*
X353695Y37332D01*
X353704Y37420D01*
X353717Y37508D01*
X353734Y37595D01*
X353754Y37681D01*
X353779Y37766D01*
X353806Y37851D01*
X353838Y37934D01*
X353872Y38015D01*
X353911Y38095D01*
X353952Y38173D01*
X353997Y38250D01*
X354045Y38324D01*
X354096Y38397D01*
X354150Y38467D01*
X354208Y38534D01*
X354268Y38600D01*
X354330Y38662D01*
X354396Y38722D01*
X354463Y38780D01*
X354533Y38834D01*
X354606Y38885D01*
X354680Y38933D01*
X354757Y38978D01*
X354835Y39019D01*
X354915Y39058D01*
X354996Y39092D01*
X355079Y39124D01*
X355164Y39151D01*
X355249Y39176D01*
X355335Y39196D01*
X355422Y39213D01*
X355510Y39226D01*
X355598Y39235D01*
X355686Y39241D01*
X355775Y39243D01*
X355895Y39241D01*
X356015Y39236D01*
X356135Y39226D01*
X356254Y39214D01*
X356373Y39197D01*
X356491Y39177D01*
X356609Y39153D01*
X356725Y39126D01*
X356841Y39095D01*
X356956Y39061D01*
X357070Y39023D01*
X357183Y38981D01*
X357294Y38936D01*
X357404Y38888D01*
X357512Y38837D01*
X357619Y38782D01*
X357724Y38724D01*
X357827Y38662D01*
X357928Y38598D01*
X358028Y38530D01*
X358125Y38460D01*
X354731Y35328D02*
X354653Y35376D01*
X354577Y35428D01*
X354504Y35482D01*
X354433Y35540D01*
X354364Y35601D01*
X354298Y35665D01*
X354235Y35732D01*
X354175Y35801D01*
X354118Y35873D01*
X354064Y35947D01*
X354014Y36024D01*
X353966Y36103D01*
X353923Y36183D01*
X353882Y36266D01*
X353846Y36350D01*
X353813Y36435D01*
X353784Y36522D01*
X353758Y36611D01*
X353736Y36700D01*
X353719Y36790D01*
X353705Y36880D01*
X353695Y36972D01*
X353689Y37063D01*
X353687Y37155D01*
X357603Y33760D02*
X357681Y33712D01*
X357757Y33660D01*
X357830Y33606D01*
X357901Y33548D01*
X357970Y33487D01*
X358036Y33423D01*
X358099Y33356D01*
X358159Y33287D01*
X358216Y33215D01*
X358270Y33141D01*
X358320Y33064D01*
X358368Y32985D01*
X358411Y32905D01*
X358452Y32822D01*
X358488Y32738D01*
X358521Y32653D01*
X358550Y32566D01*
X358576Y32477D01*
X358598Y32388D01*
X358615Y32298D01*
X358629Y32208D01*
X358639Y32116D01*
X358645Y32025D01*
X358647Y31933D01*
X357603Y33761D02*
X354731Y35327D01*
X362482Y39243D02*
X362482Y29845D01*
X362482Y36110D02*
X365093Y36110D01*
X365170Y36108D01*
X365246Y36102D01*
X365323Y36093D01*
X365399Y36080D01*
X365474Y36063D01*
X365548Y36043D01*
X365621Y36018D01*
X365692Y35991D01*
X365763Y35960D01*
X365831Y35925D01*
X365898Y35887D01*
X365963Y35846D01*
X366026Y35802D01*
X366086Y35755D01*
X366145Y35704D01*
X366200Y35651D01*
X366253Y35596D01*
X366304Y35537D01*
X366351Y35477D01*
X366395Y35414D01*
X366436Y35349D01*
X366474Y35282D01*
X366509Y35214D01*
X366540Y35143D01*
X366567Y35072D01*
X366592Y34999D01*
X366612Y34925D01*
X366629Y34850D01*
X366642Y34774D01*
X366651Y34698D01*
X366657Y34621D01*
X366659Y34544D01*
X366659Y29845D01*
X372494Y33500D02*
X374843Y33500D01*
X372494Y33499D02*
X372410Y33497D01*
X372325Y33491D01*
X372242Y33481D01*
X372158Y33468D01*
X372076Y33450D01*
X371994Y33429D01*
X371913Y33404D01*
X371834Y33376D01*
X371756Y33343D01*
X371680Y33307D01*
X371605Y33268D01*
X371532Y33225D01*
X371461Y33179D01*
X371393Y33130D01*
X371327Y33078D01*
X371263Y33022D01*
X371202Y32964D01*
X371144Y32903D01*
X371088Y32839D01*
X371036Y32773D01*
X370987Y32705D01*
X370941Y32634D01*
X370898Y32561D01*
X370859Y32486D01*
X370823Y32410D01*
X370790Y32332D01*
X370762Y32253D01*
X370737Y32172D01*
X370716Y32090D01*
X370698Y32008D01*
X370685Y31924D01*
X370675Y31841D01*
X370669Y31756D01*
X370667Y31672D01*
X370669Y31588D01*
X370675Y31503D01*
X370685Y31420D01*
X370698Y31336D01*
X370716Y31254D01*
X370737Y31172D01*
X370762Y31091D01*
X370790Y31012D01*
X370823Y30934D01*
X370859Y30858D01*
X370898Y30783D01*
X370941Y30710D01*
X370987Y30639D01*
X371036Y30571D01*
X371088Y30505D01*
X371144Y30441D01*
X371202Y30380D01*
X371263Y30322D01*
X371327Y30266D01*
X371393Y30214D01*
X371461Y30165D01*
X371532Y30119D01*
X371605Y30076D01*
X371680Y30037D01*
X371756Y30001D01*
X371834Y29968D01*
X371913Y29940D01*
X371994Y29915D01*
X372076Y29894D01*
X372158Y29876D01*
X372242Y29863D01*
X372325Y29853D01*
X372410Y29847D01*
X372494Y29845D01*
X374843Y29845D01*
X374843Y34544D01*
X374841Y34621D01*
X374835Y34697D01*
X374826Y34774D01*
X374813Y34850D01*
X374796Y34925D01*
X374776Y34999D01*
X374751Y35072D01*
X374724Y35143D01*
X374693Y35214D01*
X374658Y35282D01*
X374620Y35349D01*
X374579Y35414D01*
X374535Y35477D01*
X374488Y35537D01*
X374437Y35596D01*
X374384Y35651D01*
X374329Y35704D01*
X374270Y35755D01*
X374210Y35802D01*
X374147Y35846D01*
X374082Y35887D01*
X374015Y35925D01*
X373947Y35960D01*
X373876Y35991D01*
X373805Y36018D01*
X373732Y36043D01*
X373658Y36063D01*
X373583Y36080D01*
X373507Y36093D01*
X373430Y36102D01*
X373354Y36108D01*
X373277Y36110D01*
X371188Y36110D01*
X383073Y39243D02*
X383073Y29845D01*
X380462Y29845D01*
X380385Y29847D01*
X380309Y29853D01*
X380232Y29862D01*
X380156Y29875D01*
X380081Y29892D01*
X380007Y29912D01*
X379934Y29937D01*
X379863Y29964D01*
X379792Y29995D01*
X379724Y30030D01*
X379657Y30068D01*
X379592Y30109D01*
X379529Y30153D01*
X379469Y30200D01*
X379410Y30251D01*
X379355Y30304D01*
X379302Y30359D01*
X379251Y30418D01*
X379204Y30478D01*
X379160Y30541D01*
X379119Y30606D01*
X379081Y30673D01*
X379046Y30741D01*
X379015Y30812D01*
X378988Y30883D01*
X378963Y30956D01*
X378943Y31030D01*
X378926Y31105D01*
X378913Y31181D01*
X378904Y31258D01*
X378898Y31334D01*
X378896Y31411D01*
X378896Y34544D01*
X378898Y34621D01*
X378904Y34697D01*
X378913Y34774D01*
X378926Y34850D01*
X378943Y34925D01*
X378963Y34999D01*
X378988Y35072D01*
X379015Y35143D01*
X379046Y35214D01*
X379081Y35282D01*
X379119Y35349D01*
X379160Y35414D01*
X379204Y35477D01*
X379251Y35537D01*
X379302Y35596D01*
X379355Y35651D01*
X379410Y35704D01*
X379469Y35755D01*
X379529Y35802D01*
X379592Y35846D01*
X379657Y35887D01*
X379724Y35925D01*
X379792Y35960D01*
X379863Y35991D01*
X379934Y36018D01*
X380007Y36043D01*
X380081Y36063D01*
X380156Y36080D01*
X380232Y36093D01*
X380309Y36102D01*
X380385Y36108D01*
X380462Y36110D01*
X383073Y36110D01*
X387171Y34022D02*
X387171Y31933D01*
X387172Y34022D02*
X387174Y34112D01*
X387180Y34201D01*
X387189Y34291D01*
X387203Y34380D01*
X387220Y34468D01*
X387241Y34555D01*
X387266Y34642D01*
X387295Y34727D01*
X387327Y34811D01*
X387362Y34893D01*
X387402Y34974D01*
X387444Y35053D01*
X387490Y35130D01*
X387540Y35205D01*
X387592Y35278D01*
X387648Y35349D01*
X387706Y35417D01*
X387768Y35482D01*
X387832Y35545D01*
X387899Y35605D01*
X387968Y35662D01*
X388040Y35716D01*
X388114Y35767D01*
X388190Y35815D01*
X388268Y35859D01*
X388348Y35900D01*
X388430Y35938D01*
X388513Y35972D01*
X388598Y36002D01*
X388684Y36029D01*
X388770Y36052D01*
X388858Y36071D01*
X388947Y36086D01*
X389036Y36098D01*
X389125Y36106D01*
X389215Y36110D01*
X389305Y36110D01*
X389395Y36106D01*
X389484Y36098D01*
X389573Y36086D01*
X389662Y36071D01*
X389750Y36052D01*
X389836Y36029D01*
X389922Y36002D01*
X390007Y35972D01*
X390090Y35938D01*
X390172Y35900D01*
X390252Y35859D01*
X390330Y35815D01*
X390406Y35767D01*
X390480Y35716D01*
X390552Y35662D01*
X390621Y35605D01*
X390688Y35545D01*
X390752Y35482D01*
X390814Y35417D01*
X390872Y35349D01*
X390928Y35278D01*
X390980Y35205D01*
X391030Y35130D01*
X391076Y35053D01*
X391118Y34974D01*
X391158Y34893D01*
X391193Y34811D01*
X391225Y34727D01*
X391254Y34642D01*
X391279Y34555D01*
X391300Y34468D01*
X391317Y34380D01*
X391331Y34291D01*
X391340Y34201D01*
X391346Y34112D01*
X391348Y34022D01*
X391348Y31933D01*
X391346Y31843D01*
X391340Y31754D01*
X391331Y31664D01*
X391317Y31575D01*
X391300Y31487D01*
X391279Y31400D01*
X391254Y31313D01*
X391225Y31228D01*
X391193Y31144D01*
X391158Y31062D01*
X391118Y30981D01*
X391076Y30902D01*
X391030Y30825D01*
X390980Y30750D01*
X390928Y30677D01*
X390872Y30606D01*
X390814Y30538D01*
X390752Y30473D01*
X390688Y30410D01*
X390621Y30350D01*
X390552Y30293D01*
X390480Y30239D01*
X390406Y30188D01*
X390330Y30140D01*
X390252Y30096D01*
X390172Y30055D01*
X390090Y30017D01*
X390007Y29983D01*
X389922Y29953D01*
X389836Y29926D01*
X389750Y29903D01*
X389662Y29884D01*
X389573Y29869D01*
X389484Y29857D01*
X389395Y29849D01*
X389305Y29845D01*
X389215Y29845D01*
X389125Y29849D01*
X389036Y29857D01*
X388947Y29869D01*
X388858Y29884D01*
X388770Y29903D01*
X388684Y29926D01*
X388598Y29953D01*
X388513Y29983D01*
X388430Y30017D01*
X388348Y30055D01*
X388268Y30096D01*
X388190Y30140D01*
X388114Y30188D01*
X388040Y30239D01*
X387968Y30293D01*
X387899Y30350D01*
X387832Y30410D01*
X387768Y30473D01*
X387706Y30538D01*
X387648Y30606D01*
X387592Y30677D01*
X387540Y30750D01*
X387490Y30825D01*
X387444Y30902D01*
X387402Y30981D01*
X387362Y31062D01*
X387327Y31144D01*
X387295Y31228D01*
X387266Y31313D01*
X387241Y31400D01*
X387220Y31487D01*
X387203Y31575D01*
X387189Y31664D01*
X387180Y31754D01*
X387174Y31843D01*
X387172Y31933D01*
X395600Y29845D02*
X395600Y37677D01*
X395601Y37677D02*
X395603Y37754D01*
X395609Y37830D01*
X395618Y37907D01*
X395631Y37983D01*
X395648Y38058D01*
X395668Y38132D01*
X395693Y38205D01*
X395720Y38276D01*
X395751Y38347D01*
X395786Y38415D01*
X395824Y38482D01*
X395865Y38547D01*
X395909Y38610D01*
X395956Y38670D01*
X396007Y38729D01*
X396060Y38784D01*
X396115Y38837D01*
X396174Y38888D01*
X396234Y38935D01*
X396297Y38979D01*
X396362Y39020D01*
X396429Y39058D01*
X396497Y39093D01*
X396568Y39124D01*
X396639Y39151D01*
X396712Y39176D01*
X396786Y39196D01*
X396861Y39213D01*
X396937Y39226D01*
X397013Y39235D01*
X397090Y39241D01*
X397167Y39243D01*
X397689Y39243D01*
X397689Y36110D02*
X394556Y36110D01*
X400782Y37677D02*
X400782Y29845D01*
X400782Y37677D02*
X400784Y37754D01*
X400790Y37830D01*
X400799Y37907D01*
X400812Y37983D01*
X400829Y38058D01*
X400849Y38132D01*
X400874Y38205D01*
X400901Y38276D01*
X400932Y38347D01*
X400967Y38415D01*
X401005Y38482D01*
X401046Y38547D01*
X401090Y38610D01*
X401137Y38670D01*
X401188Y38729D01*
X401241Y38784D01*
X401296Y38837D01*
X401355Y38888D01*
X401415Y38935D01*
X401478Y38979D01*
X401543Y39020D01*
X401610Y39058D01*
X401678Y39093D01*
X401749Y39124D01*
X401820Y39151D01*
X401893Y39176D01*
X401967Y39196D01*
X402042Y39213D01*
X402118Y39226D01*
X402194Y39235D01*
X402271Y39241D01*
X402348Y39243D01*
X402870Y39243D01*
X402870Y36110D02*
X399738Y36110D01*
D11*
X192420Y80040D02*
X192420Y132040D01*
X51420Y132040D01*
X51420Y80040D01*
X192420Y30040D02*
X192420Y40D01*
X51420Y40D01*
D12*
X51420Y40D03*
D11*
X51420Y30040D01*
D13*
X92585Y37394D02*
X92585Y46482D01*
X92585Y37394D02*
X92583Y37295D01*
X92577Y37195D01*
X92568Y37096D01*
X92555Y36998D01*
X92538Y36900D01*
X92517Y36802D01*
X92492Y36706D01*
X92464Y36611D01*
X92432Y36517D01*
X92397Y36424D01*
X92358Y36332D01*
X92315Y36242D01*
X92270Y36154D01*
X92220Y36067D01*
X92168Y35983D01*
X92112Y35900D01*
X92054Y35820D01*
X91992Y35742D01*
X91927Y35667D01*
X91859Y35594D01*
X91789Y35524D01*
X91716Y35456D01*
X91641Y35391D01*
X91563Y35329D01*
X91483Y35271D01*
X91400Y35215D01*
X91316Y35163D01*
X91229Y35113D01*
X91141Y35068D01*
X91051Y35025D01*
X90959Y34986D01*
X90866Y34951D01*
X90772Y34919D01*
X90677Y34891D01*
X90581Y34866D01*
X90483Y34845D01*
X90385Y34828D01*
X90287Y34815D01*
X90188Y34806D01*
X90088Y34800D01*
X89989Y34798D01*
X88690Y34798D01*
X101429Y46482D02*
X101536Y46480D01*
X101642Y46474D01*
X101748Y46464D01*
X101854Y46451D01*
X101960Y46433D01*
X102064Y46412D01*
X102168Y46387D01*
X102271Y46358D01*
X102372Y46326D01*
X102472Y46289D01*
X102571Y46249D01*
X102669Y46206D01*
X102765Y46159D01*
X102859Y46108D01*
X102951Y46054D01*
X103041Y45997D01*
X103129Y45937D01*
X103214Y45873D01*
X103297Y45806D01*
X103378Y45736D01*
X103456Y45664D01*
X103532Y45588D01*
X103604Y45510D01*
X103674Y45429D01*
X103741Y45346D01*
X103805Y45261D01*
X103865Y45173D01*
X103922Y45083D01*
X103976Y44991D01*
X104027Y44897D01*
X104074Y44801D01*
X104117Y44703D01*
X104157Y44604D01*
X104194Y44504D01*
X104226Y44403D01*
X104255Y44300D01*
X104280Y44196D01*
X104301Y44092D01*
X104319Y43986D01*
X104332Y43880D01*
X104342Y43774D01*
X104348Y43668D01*
X104350Y43561D01*
X101429Y46482D02*
X101308Y46480D01*
X101187Y46474D01*
X101067Y46464D01*
X100946Y46451D01*
X100827Y46433D01*
X100707Y46412D01*
X100589Y46387D01*
X100472Y46358D01*
X100355Y46325D01*
X100240Y46289D01*
X100126Y46248D01*
X100013Y46205D01*
X99901Y46157D01*
X99792Y46106D01*
X99684Y46051D01*
X99577Y45993D01*
X99473Y45932D01*
X99371Y45867D01*
X99271Y45799D01*
X99173Y45728D01*
X99077Y45654D01*
X98984Y45577D01*
X98894Y45496D01*
X98806Y45413D01*
X98721Y45327D01*
X98638Y45238D01*
X98559Y45147D01*
X98482Y45053D01*
X98409Y44957D01*
X98339Y44859D01*
X98272Y44758D01*
X98208Y44655D01*
X98148Y44550D01*
X98091Y44443D01*
X98037Y44335D01*
X97987Y44225D01*
X97941Y44113D01*
X97898Y44000D01*
X97859Y43885D01*
X103376Y41289D02*
X103455Y41366D01*
X103531Y41447D01*
X103604Y41530D01*
X103674Y41615D01*
X103741Y41703D01*
X103805Y41793D01*
X103865Y41885D01*
X103922Y41980D01*
X103976Y42076D01*
X104027Y42174D01*
X104074Y42274D01*
X104118Y42376D01*
X104158Y42479D01*
X104194Y42583D01*
X104226Y42689D01*
X104255Y42795D01*
X104280Y42903D01*
X104302Y43011D01*
X104319Y43121D01*
X104333Y43230D01*
X104342Y43340D01*
X104348Y43451D01*
X104350Y43561D01*
X103376Y41289D02*
X97858Y34798D01*
X104350Y34798D01*
D14*
X359030Y362110D02*
X375030Y362110D01*
X359030Y362110D02*
X359030Y382110D01*
X375030Y382110D01*
X375030Y362110D01*
X378530Y359610D02*
X387030Y359610D01*
D10*
X360442Y391287D02*
X360442Y398653D01*
X359624Y391287D02*
X361261Y391287D01*
X361261Y398653D02*
X359624Y398653D01*
X365862Y391287D02*
X367499Y391287D01*
X365862Y391287D02*
X365784Y391289D01*
X365706Y391294D01*
X365629Y391304D01*
X365552Y391317D01*
X365476Y391333D01*
X365401Y391353D01*
X365327Y391377D01*
X365254Y391404D01*
X365182Y391435D01*
X365112Y391469D01*
X365044Y391506D01*
X364977Y391547D01*
X364912Y391591D01*
X364850Y391637D01*
X364790Y391687D01*
X364732Y391739D01*
X364677Y391794D01*
X364625Y391852D01*
X364575Y391912D01*
X364529Y391974D01*
X364485Y392039D01*
X364444Y392106D01*
X364407Y392174D01*
X364373Y392244D01*
X364342Y392316D01*
X364315Y392389D01*
X364291Y392463D01*
X364271Y392538D01*
X364255Y392614D01*
X364242Y392691D01*
X364232Y392768D01*
X364227Y392846D01*
X364225Y392924D01*
X364225Y397016D01*
X364227Y397096D01*
X364233Y397176D01*
X364243Y397256D01*
X364256Y397335D01*
X364274Y397414D01*
X364295Y397491D01*
X364321Y397567D01*
X364350Y397642D01*
X364382Y397716D01*
X364418Y397788D01*
X364458Y397858D01*
X364501Y397925D01*
X364547Y397991D01*
X364597Y398054D01*
X364649Y398115D01*
X364704Y398174D01*
X364763Y398229D01*
X364823Y398281D01*
X364887Y398331D01*
X364953Y398377D01*
X365020Y398420D01*
X365090Y398460D01*
X365162Y398496D01*
X365236Y398528D01*
X365310Y398557D01*
X365387Y398583D01*
X365464Y398604D01*
X365543Y398622D01*
X365622Y398635D01*
X365702Y398645D01*
X365782Y398651D01*
X365862Y398653D01*
X367499Y398653D01*
X372595Y398654D02*
X372680Y398652D01*
X372765Y398646D01*
X372849Y398636D01*
X372933Y398623D01*
X373017Y398605D01*
X373099Y398584D01*
X373180Y398559D01*
X373260Y398530D01*
X373339Y398497D01*
X373416Y398461D01*
X373491Y398421D01*
X373565Y398378D01*
X373636Y398332D01*
X373705Y398282D01*
X373772Y398229D01*
X373836Y398173D01*
X373897Y398114D01*
X373956Y398053D01*
X374012Y397989D01*
X374065Y397922D01*
X374115Y397853D01*
X374161Y397782D01*
X374204Y397708D01*
X374244Y397633D01*
X374280Y397556D01*
X374313Y397477D01*
X374342Y397397D01*
X374367Y397316D01*
X374388Y397234D01*
X374406Y397150D01*
X374419Y397066D01*
X374429Y396982D01*
X374435Y396897D01*
X374437Y396812D01*
X372595Y398653D02*
X372499Y398651D01*
X372403Y398645D01*
X372308Y398635D01*
X372213Y398622D01*
X372118Y398604D01*
X372025Y398583D01*
X371932Y398558D01*
X371841Y398529D01*
X371750Y398497D01*
X371661Y398461D01*
X371574Y398421D01*
X371488Y398378D01*
X371404Y398332D01*
X371322Y398282D01*
X371242Y398228D01*
X371165Y398172D01*
X371090Y398112D01*
X371017Y398050D01*
X370947Y397984D01*
X370879Y397916D01*
X370814Y397845D01*
X370753Y397772D01*
X370694Y397696D01*
X370638Y397617D01*
X370586Y397537D01*
X370537Y397454D01*
X370491Y397370D01*
X370449Y397284D01*
X370411Y397196D01*
X370376Y397107D01*
X370344Y397016D01*
X373822Y395380D02*
X373882Y395439D01*
X373939Y395501D01*
X373994Y395565D01*
X374045Y395632D01*
X374094Y395701D01*
X374140Y395771D01*
X374183Y395844D01*
X374223Y395918D01*
X374259Y395994D01*
X374292Y396072D01*
X374322Y396151D01*
X374349Y396231D01*
X374372Y396312D01*
X374391Y396394D01*
X374407Y396476D01*
X374420Y396560D01*
X374429Y396644D01*
X374434Y396728D01*
X374436Y396812D01*
X373823Y395379D02*
X370344Y391287D01*
X374436Y391287D01*
D15*
X274122Y88561D02*
X268986Y88561D01*
X274122Y88562D02*
X274196Y88560D01*
X274271Y88554D01*
X274344Y88545D01*
X274418Y88532D01*
X274490Y88515D01*
X274561Y88495D01*
X274632Y88471D01*
X274701Y88443D01*
X274769Y88412D01*
X274834Y88378D01*
X274899Y88340D01*
X274961Y88299D01*
X275021Y88255D01*
X275078Y88208D01*
X275133Y88158D01*
X275186Y88105D01*
X275236Y88050D01*
X275283Y87993D01*
X275327Y87933D01*
X275368Y87871D01*
X275406Y87806D01*
X275440Y87740D01*
X275471Y87673D01*
X275499Y87604D01*
X275523Y87533D01*
X275543Y87462D01*
X275560Y87389D01*
X275573Y87316D01*
X275582Y87242D01*
X275588Y87168D01*
X275590Y87094D01*
X275590Y86360D01*
X275590Y92827D02*
X268986Y92827D01*
X268986Y94661D01*
X268988Y94746D01*
X268994Y94830D01*
X269004Y94914D01*
X269017Y94998D01*
X269035Y95081D01*
X269056Y95163D01*
X269081Y95244D01*
X269110Y95324D01*
X269142Y95402D01*
X269178Y95478D01*
X269218Y95553D01*
X269261Y95626D01*
X269307Y95697D01*
X269356Y95766D01*
X269409Y95833D01*
X269465Y95897D01*
X269523Y95958D01*
X269584Y96016D01*
X269648Y96072D01*
X269715Y96125D01*
X269784Y96174D01*
X269855Y96220D01*
X269928Y96263D01*
X270003Y96303D01*
X270079Y96339D01*
X270157Y96371D01*
X270237Y96400D01*
X270318Y96425D01*
X270400Y96446D01*
X270483Y96464D01*
X270567Y96477D01*
X270651Y96487D01*
X270735Y96493D01*
X270820Y96495D01*
X270905Y96493D01*
X270989Y96487D01*
X271073Y96477D01*
X271157Y96464D01*
X271240Y96446D01*
X271322Y96425D01*
X271403Y96400D01*
X271483Y96371D01*
X271561Y96339D01*
X271637Y96303D01*
X271712Y96263D01*
X271785Y96220D01*
X271856Y96174D01*
X271925Y96125D01*
X271992Y96072D01*
X272056Y96016D01*
X272117Y95958D01*
X272175Y95897D01*
X272231Y95833D01*
X272284Y95766D01*
X272333Y95697D01*
X272379Y95626D01*
X272422Y95553D01*
X272462Y95478D01*
X272498Y95402D01*
X272530Y95324D01*
X272559Y95244D01*
X272584Y95163D01*
X272605Y95081D01*
X272623Y94998D01*
X272636Y94914D01*
X272646Y94830D01*
X272652Y94746D01*
X272654Y94661D01*
X272655Y94661D02*
X272655Y92827D01*
X270454Y99717D02*
X268986Y101551D01*
X275590Y101551D01*
X275590Y99717D02*
X275590Y103386D01*
X435610Y371256D02*
X440746Y371256D01*
X440820Y371254D01*
X440895Y371248D01*
X440968Y371239D01*
X441042Y371226D01*
X441114Y371209D01*
X441185Y371189D01*
X441256Y371165D01*
X441325Y371137D01*
X441393Y371106D01*
X441458Y371072D01*
X441523Y371034D01*
X441585Y370993D01*
X441645Y370949D01*
X441702Y370902D01*
X441757Y370852D01*
X441810Y370799D01*
X441860Y370744D01*
X441907Y370687D01*
X441951Y370627D01*
X441992Y370565D01*
X442030Y370500D01*
X442064Y370434D01*
X442095Y370367D01*
X442123Y370298D01*
X442147Y370227D01*
X442167Y370156D01*
X442184Y370083D01*
X442197Y370010D01*
X442206Y369936D01*
X442212Y369862D01*
X442214Y369788D01*
X442214Y369054D01*
X442214Y375521D02*
X435610Y375521D01*
X435610Y377355D01*
X435612Y377440D01*
X435618Y377524D01*
X435628Y377608D01*
X435641Y377692D01*
X435659Y377775D01*
X435680Y377857D01*
X435705Y377938D01*
X435734Y378018D01*
X435766Y378096D01*
X435802Y378172D01*
X435842Y378247D01*
X435885Y378320D01*
X435931Y378391D01*
X435980Y378460D01*
X436033Y378527D01*
X436089Y378591D01*
X436147Y378652D01*
X436208Y378710D01*
X436272Y378766D01*
X436339Y378819D01*
X436408Y378868D01*
X436479Y378914D01*
X436552Y378957D01*
X436627Y378997D01*
X436703Y379033D01*
X436781Y379065D01*
X436861Y379094D01*
X436942Y379119D01*
X437024Y379140D01*
X437107Y379158D01*
X437191Y379171D01*
X437275Y379181D01*
X437359Y379187D01*
X437444Y379189D01*
X437529Y379187D01*
X437613Y379181D01*
X437697Y379171D01*
X437781Y379158D01*
X437864Y379140D01*
X437946Y379119D01*
X438027Y379094D01*
X438107Y379065D01*
X438185Y379033D01*
X438261Y378997D01*
X438336Y378957D01*
X438409Y378914D01*
X438480Y378868D01*
X438549Y378819D01*
X438616Y378766D01*
X438680Y378710D01*
X438741Y378652D01*
X438799Y378591D01*
X438855Y378527D01*
X438908Y378460D01*
X438957Y378391D01*
X439003Y378320D01*
X439046Y378247D01*
X439086Y378172D01*
X439122Y378096D01*
X439154Y378018D01*
X439183Y377938D01*
X439208Y377857D01*
X439229Y377775D01*
X439247Y377692D01*
X439260Y377608D01*
X439270Y377524D01*
X439276Y377440D01*
X439278Y377355D01*
X439279Y377355D02*
X439279Y375521D01*
X442214Y382411D02*
X442214Y384246D01*
X442212Y384331D01*
X442206Y384415D01*
X442196Y384499D01*
X442183Y384583D01*
X442165Y384666D01*
X442144Y384748D01*
X442119Y384829D01*
X442090Y384909D01*
X442058Y384987D01*
X442022Y385063D01*
X441982Y385138D01*
X441939Y385211D01*
X441893Y385282D01*
X441844Y385351D01*
X441791Y385418D01*
X441735Y385482D01*
X441677Y385543D01*
X441616Y385601D01*
X441552Y385657D01*
X441485Y385710D01*
X441416Y385759D01*
X441345Y385805D01*
X441272Y385848D01*
X441197Y385888D01*
X441121Y385924D01*
X441043Y385956D01*
X440963Y385985D01*
X440882Y386010D01*
X440800Y386031D01*
X440717Y386049D01*
X440633Y386062D01*
X440549Y386072D01*
X440465Y386078D01*
X440380Y386080D01*
X440295Y386078D01*
X440211Y386072D01*
X440127Y386062D01*
X440043Y386049D01*
X439960Y386031D01*
X439878Y386010D01*
X439797Y385985D01*
X439717Y385956D01*
X439639Y385924D01*
X439563Y385888D01*
X439488Y385848D01*
X439415Y385805D01*
X439344Y385759D01*
X439275Y385710D01*
X439208Y385657D01*
X439144Y385601D01*
X439083Y385543D01*
X439025Y385482D01*
X438969Y385418D01*
X438916Y385351D01*
X438867Y385282D01*
X438821Y385211D01*
X438778Y385138D01*
X438738Y385063D01*
X438702Y384987D01*
X438670Y384909D01*
X438641Y384829D01*
X438616Y384748D01*
X438595Y384666D01*
X438577Y384583D01*
X438564Y384499D01*
X438554Y384415D01*
X438548Y384331D01*
X438546Y384246D01*
X435610Y384612D02*
X435610Y382411D01*
X435610Y384612D02*
X435612Y384688D01*
X435618Y384763D01*
X435627Y384838D01*
X435641Y384912D01*
X435658Y384986D01*
X435680Y385058D01*
X435704Y385130D01*
X435733Y385200D01*
X435765Y385268D01*
X435800Y385335D01*
X435839Y385400D01*
X435882Y385463D01*
X435927Y385523D01*
X435975Y385581D01*
X436027Y385637D01*
X436081Y385689D01*
X436138Y385739D01*
X436197Y385786D01*
X436258Y385830D01*
X436322Y385871D01*
X436388Y385908D01*
X436456Y385942D01*
X436525Y385972D01*
X436596Y385999D01*
X436668Y386022D01*
X436741Y386041D01*
X436815Y386056D01*
X436890Y386068D01*
X436965Y386076D01*
X437040Y386080D01*
X437116Y386080D01*
X437191Y386076D01*
X437266Y386068D01*
X437341Y386056D01*
X437415Y386041D01*
X437488Y386022D01*
X437560Y385999D01*
X437631Y385972D01*
X437700Y385942D01*
X437768Y385908D01*
X437834Y385871D01*
X437898Y385830D01*
X437959Y385786D01*
X438018Y385739D01*
X438075Y385689D01*
X438129Y385637D01*
X438181Y385581D01*
X438229Y385523D01*
X438274Y385463D01*
X438317Y385400D01*
X438356Y385335D01*
X438391Y385268D01*
X438423Y385200D01*
X438452Y385130D01*
X438476Y385058D01*
X438498Y384986D01*
X438515Y384912D01*
X438529Y384838D01*
X438538Y384763D01*
X438544Y384688D01*
X438546Y384612D01*
X438545Y384612D02*
X438545Y383145D01*
D11*
X48880Y416600D02*
X48880Y468600D01*
X48880Y416600D02*
X189880Y416600D01*
X189880Y468600D01*
X48880Y518600D02*
X48880Y548600D01*
X189880Y548600D01*
D12*
X189880Y548600D03*
D11*
X189880Y518600D01*
D13*
X84965Y506222D02*
X84965Y497134D01*
X84963Y497035D01*
X84957Y496935D01*
X84948Y496836D01*
X84935Y496738D01*
X84918Y496640D01*
X84897Y496542D01*
X84872Y496446D01*
X84844Y496351D01*
X84812Y496257D01*
X84777Y496164D01*
X84738Y496072D01*
X84695Y495982D01*
X84650Y495894D01*
X84600Y495807D01*
X84548Y495723D01*
X84492Y495640D01*
X84434Y495560D01*
X84372Y495482D01*
X84307Y495407D01*
X84239Y495334D01*
X84169Y495264D01*
X84096Y495196D01*
X84021Y495131D01*
X83943Y495069D01*
X83863Y495011D01*
X83780Y494955D01*
X83696Y494903D01*
X83609Y494853D01*
X83521Y494808D01*
X83431Y494765D01*
X83339Y494726D01*
X83246Y494691D01*
X83152Y494659D01*
X83057Y494631D01*
X82961Y494606D01*
X82863Y494585D01*
X82765Y494568D01*
X82667Y494555D01*
X82568Y494546D01*
X82468Y494540D01*
X82369Y494538D01*
X81070Y494538D01*
X90239Y494538D02*
X93484Y494538D01*
X93597Y494540D01*
X93710Y494546D01*
X93823Y494556D01*
X93936Y494570D01*
X94048Y494587D01*
X94159Y494609D01*
X94269Y494634D01*
X94379Y494664D01*
X94487Y494697D01*
X94594Y494734D01*
X94700Y494774D01*
X94804Y494819D01*
X94907Y494867D01*
X95008Y494918D01*
X95107Y494973D01*
X95204Y495031D01*
X95299Y495093D01*
X95392Y495158D01*
X95482Y495226D01*
X95570Y495297D01*
X95656Y495372D01*
X95739Y495449D01*
X95819Y495529D01*
X95896Y495612D01*
X95971Y495698D01*
X96042Y495786D01*
X96110Y495876D01*
X96175Y495969D01*
X96237Y496064D01*
X96295Y496161D01*
X96350Y496260D01*
X96401Y496361D01*
X96449Y496464D01*
X96494Y496568D01*
X96534Y496674D01*
X96571Y496781D01*
X96604Y496889D01*
X96634Y496999D01*
X96659Y497109D01*
X96681Y497220D01*
X96698Y497332D01*
X96712Y497445D01*
X96722Y497558D01*
X96728Y497671D01*
X96730Y497784D01*
X96728Y497897D01*
X96722Y498010D01*
X96712Y498123D01*
X96698Y498236D01*
X96681Y498348D01*
X96659Y498459D01*
X96634Y498569D01*
X96604Y498679D01*
X96571Y498787D01*
X96534Y498894D01*
X96494Y499000D01*
X96449Y499104D01*
X96401Y499207D01*
X96350Y499308D01*
X96295Y499407D01*
X96237Y499504D01*
X96175Y499599D01*
X96110Y499692D01*
X96042Y499782D01*
X95971Y499870D01*
X95896Y499956D01*
X95819Y500039D01*
X95739Y500119D01*
X95656Y500196D01*
X95570Y500271D01*
X95482Y500342D01*
X95392Y500410D01*
X95299Y500475D01*
X95204Y500537D01*
X95107Y500595D01*
X95008Y500650D01*
X94907Y500701D01*
X94804Y500749D01*
X94700Y500794D01*
X94594Y500834D01*
X94487Y500871D01*
X94379Y500904D01*
X94269Y500934D01*
X94159Y500959D01*
X94048Y500981D01*
X93936Y500998D01*
X93823Y501012D01*
X93710Y501022D01*
X93597Y501028D01*
X93484Y501030D01*
X94133Y506222D02*
X90239Y506222D01*
X94133Y506222D02*
X94234Y506220D01*
X94334Y506214D01*
X94434Y506204D01*
X94534Y506191D01*
X94633Y506173D01*
X94732Y506152D01*
X94829Y506127D01*
X94926Y506098D01*
X95021Y506065D01*
X95115Y506029D01*
X95207Y505989D01*
X95298Y505946D01*
X95387Y505899D01*
X95474Y505849D01*
X95560Y505795D01*
X95643Y505738D01*
X95723Y505678D01*
X95802Y505615D01*
X95878Y505548D01*
X95951Y505479D01*
X96021Y505407D01*
X96089Y505333D01*
X96154Y505256D01*
X96215Y505176D01*
X96274Y505094D01*
X96329Y505010D01*
X96381Y504924D01*
X96430Y504836D01*
X96475Y504746D01*
X96517Y504654D01*
X96555Y504561D01*
X96589Y504466D01*
X96620Y504371D01*
X96647Y504274D01*
X96670Y504176D01*
X96690Y504077D01*
X96705Y503977D01*
X96717Y503877D01*
X96725Y503777D01*
X96729Y503676D01*
X96729Y503576D01*
X96725Y503475D01*
X96717Y503375D01*
X96705Y503275D01*
X96690Y503175D01*
X96670Y503076D01*
X96647Y502978D01*
X96620Y502881D01*
X96589Y502786D01*
X96555Y502691D01*
X96517Y502598D01*
X96475Y502506D01*
X96430Y502416D01*
X96381Y502328D01*
X96329Y502242D01*
X96274Y502158D01*
X96215Y502076D01*
X96154Y501996D01*
X96089Y501919D01*
X96021Y501845D01*
X95951Y501773D01*
X95878Y501704D01*
X95802Y501637D01*
X95723Y501574D01*
X95643Y501514D01*
X95560Y501457D01*
X95474Y501403D01*
X95387Y501353D01*
X95298Y501306D01*
X95207Y501263D01*
X95115Y501223D01*
X95021Y501187D01*
X94926Y501154D01*
X94829Y501125D01*
X94732Y501100D01*
X94633Y501079D01*
X94534Y501061D01*
X94434Y501048D01*
X94334Y501038D01*
X94234Y501032D01*
X94133Y501030D01*
X94133Y501029D02*
X91537Y501029D01*
D14*
X95760Y232440D02*
X127760Y232440D01*
X95760Y232440D02*
X95760Y331440D01*
X127760Y331440D01*
X127760Y232440D01*
X131260Y230490D02*
X146760Y230490D01*
D10*
X103509Y316611D02*
X103509Y326009D01*
X102465Y316611D02*
X104554Y316611D01*
X104554Y326009D02*
X102465Y326009D01*
X110277Y316611D02*
X112365Y316611D01*
X110277Y316611D02*
X110188Y316613D01*
X110100Y316619D01*
X110012Y316628D01*
X109924Y316641D01*
X109837Y316658D01*
X109751Y316678D01*
X109666Y316703D01*
X109581Y316730D01*
X109498Y316762D01*
X109417Y316796D01*
X109337Y316835D01*
X109259Y316876D01*
X109182Y316921D01*
X109108Y316969D01*
X109035Y317020D01*
X108965Y317074D01*
X108898Y317132D01*
X108832Y317192D01*
X108770Y317254D01*
X108710Y317320D01*
X108652Y317387D01*
X108598Y317457D01*
X108547Y317530D01*
X108499Y317604D01*
X108454Y317681D01*
X108413Y317759D01*
X108374Y317839D01*
X108340Y317920D01*
X108308Y318003D01*
X108281Y318088D01*
X108256Y318173D01*
X108236Y318259D01*
X108219Y318346D01*
X108206Y318434D01*
X108197Y318522D01*
X108191Y318610D01*
X108189Y318699D01*
X108188Y318699D02*
X108188Y323921D01*
X108189Y323921D02*
X108191Y324012D01*
X108197Y324103D01*
X108207Y324194D01*
X108221Y324284D01*
X108238Y324373D01*
X108260Y324461D01*
X108286Y324549D01*
X108315Y324635D01*
X108348Y324720D01*
X108385Y324803D01*
X108425Y324885D01*
X108469Y324965D01*
X108516Y325043D01*
X108567Y325119D01*
X108620Y325192D01*
X108677Y325263D01*
X108738Y325332D01*
X108801Y325397D01*
X108866Y325460D01*
X108935Y325520D01*
X109006Y325578D01*
X109079Y325631D01*
X109155Y325682D01*
X109233Y325729D01*
X109313Y325773D01*
X109395Y325813D01*
X109478Y325850D01*
X109563Y325883D01*
X109649Y325912D01*
X109737Y325938D01*
X109825Y325960D01*
X109914Y325977D01*
X110004Y325991D01*
X110095Y326001D01*
X110186Y326007D01*
X110277Y326009D01*
X112365Y326009D01*
X115834Y316611D02*
X118444Y316611D01*
X118545Y316613D01*
X118646Y316619D01*
X118747Y316629D01*
X118847Y316642D01*
X118947Y316660D01*
X119046Y316681D01*
X119144Y316707D01*
X119241Y316736D01*
X119337Y316768D01*
X119431Y316805D01*
X119524Y316845D01*
X119616Y316889D01*
X119705Y316936D01*
X119793Y316987D01*
X119879Y317041D01*
X119962Y317098D01*
X120044Y317158D01*
X120122Y317222D01*
X120199Y317288D01*
X120272Y317358D01*
X120343Y317430D01*
X120411Y317505D01*
X120476Y317583D01*
X120538Y317663D01*
X120597Y317745D01*
X120653Y317830D01*
X120705Y317917D01*
X120754Y318005D01*
X120800Y318096D01*
X120841Y318188D01*
X120880Y318282D01*
X120914Y318377D01*
X120945Y318473D01*
X120972Y318571D01*
X120996Y318669D01*
X121015Y318769D01*
X121031Y318869D01*
X121043Y318969D01*
X121051Y319070D01*
X121055Y319171D01*
X121055Y319273D01*
X121051Y319374D01*
X121043Y319475D01*
X121031Y319575D01*
X121015Y319675D01*
X120996Y319775D01*
X120972Y319873D01*
X120945Y319971D01*
X120914Y320067D01*
X120880Y320162D01*
X120841Y320256D01*
X120800Y320348D01*
X120754Y320439D01*
X120705Y320527D01*
X120653Y320614D01*
X120597Y320699D01*
X120538Y320781D01*
X120476Y320861D01*
X120411Y320939D01*
X120343Y321014D01*
X120272Y321086D01*
X120199Y321156D01*
X120122Y321222D01*
X120044Y321286D01*
X119962Y321346D01*
X119879Y321403D01*
X119793Y321457D01*
X119705Y321508D01*
X119616Y321555D01*
X119524Y321599D01*
X119431Y321639D01*
X119337Y321676D01*
X119241Y321708D01*
X119144Y321737D01*
X119046Y321763D01*
X118947Y321784D01*
X118847Y321802D01*
X118747Y321815D01*
X118646Y321825D01*
X118545Y321831D01*
X118444Y321833D01*
X118967Y326009D02*
X115834Y326009D01*
X118967Y326009D02*
X119057Y326007D01*
X119146Y326001D01*
X119236Y325992D01*
X119325Y325978D01*
X119413Y325961D01*
X119500Y325940D01*
X119587Y325915D01*
X119672Y325886D01*
X119756Y325854D01*
X119838Y325819D01*
X119919Y325779D01*
X119998Y325737D01*
X120075Y325691D01*
X120150Y325641D01*
X120223Y325589D01*
X120294Y325533D01*
X120362Y325475D01*
X120427Y325413D01*
X120490Y325349D01*
X120550Y325282D01*
X120607Y325213D01*
X120661Y325141D01*
X120712Y325067D01*
X120760Y324991D01*
X120804Y324913D01*
X120845Y324833D01*
X120883Y324751D01*
X120917Y324668D01*
X120947Y324583D01*
X120974Y324497D01*
X120997Y324411D01*
X121016Y324323D01*
X121031Y324234D01*
X121043Y324145D01*
X121051Y324056D01*
X121055Y323966D01*
X121055Y323876D01*
X121051Y323786D01*
X121043Y323697D01*
X121031Y323608D01*
X121016Y323519D01*
X120997Y323431D01*
X120974Y323345D01*
X120947Y323259D01*
X120917Y323174D01*
X120883Y323091D01*
X120845Y323009D01*
X120804Y322929D01*
X120760Y322851D01*
X120712Y322775D01*
X120661Y322701D01*
X120607Y322629D01*
X120550Y322560D01*
X120490Y322493D01*
X120427Y322429D01*
X120362Y322367D01*
X120294Y322309D01*
X120223Y322253D01*
X120150Y322201D01*
X120075Y322151D01*
X119998Y322105D01*
X119919Y322063D01*
X119838Y322023D01*
X119756Y321988D01*
X119672Y321956D01*
X119587Y321927D01*
X119500Y321902D01*
X119413Y321881D01*
X119325Y321864D01*
X119236Y321850D01*
X119146Y321841D01*
X119057Y321835D01*
X118967Y321833D01*
X118967Y321832D02*
X116878Y321832D01*
D14*
X359030Y158844D02*
X375030Y158844D01*
X375030Y138844D01*
X359030Y138844D01*
X359030Y158844D01*
X355530Y161344D02*
X347030Y161344D01*
D10*
X360442Y170561D02*
X360442Y177927D01*
X359624Y170561D02*
X361261Y170561D01*
X361261Y177927D02*
X359624Y177927D01*
X365862Y170561D02*
X367499Y170561D01*
X365862Y170561D02*
X365784Y170563D01*
X365706Y170568D01*
X365629Y170578D01*
X365552Y170591D01*
X365476Y170607D01*
X365401Y170627D01*
X365327Y170651D01*
X365254Y170678D01*
X365182Y170709D01*
X365112Y170743D01*
X365044Y170780D01*
X364977Y170821D01*
X364912Y170865D01*
X364850Y170911D01*
X364790Y170961D01*
X364732Y171013D01*
X364677Y171068D01*
X364625Y171126D01*
X364575Y171186D01*
X364529Y171248D01*
X364485Y171313D01*
X364444Y171380D01*
X364407Y171448D01*
X364373Y171518D01*
X364342Y171590D01*
X364315Y171663D01*
X364291Y171737D01*
X364271Y171812D01*
X364255Y171888D01*
X364242Y171965D01*
X364232Y172042D01*
X364227Y172120D01*
X364225Y172198D01*
X364225Y176290D01*
X364227Y176370D01*
X364233Y176450D01*
X364243Y176530D01*
X364256Y176609D01*
X364274Y176688D01*
X364295Y176765D01*
X364321Y176841D01*
X364350Y176916D01*
X364382Y176990D01*
X364418Y177062D01*
X364458Y177132D01*
X364501Y177199D01*
X364547Y177265D01*
X364597Y177328D01*
X364649Y177389D01*
X364704Y177448D01*
X364763Y177503D01*
X364823Y177555D01*
X364887Y177605D01*
X364953Y177651D01*
X365020Y177694D01*
X365090Y177734D01*
X365162Y177770D01*
X365236Y177802D01*
X365310Y177831D01*
X365387Y177857D01*
X365464Y177878D01*
X365543Y177896D01*
X365622Y177909D01*
X365702Y177919D01*
X365782Y177925D01*
X365862Y177927D01*
X367499Y177927D01*
X370344Y176290D02*
X372390Y177927D01*
X372390Y170561D01*
X370344Y170561D02*
X374436Y170561D01*
X338121Y320167D02*
X336485Y320167D01*
X336407Y320169D01*
X336329Y320174D01*
X336252Y320184D01*
X336175Y320197D01*
X336099Y320213D01*
X336024Y320233D01*
X335950Y320257D01*
X335877Y320284D01*
X335805Y320315D01*
X335735Y320349D01*
X335667Y320386D01*
X335600Y320427D01*
X335535Y320471D01*
X335473Y320517D01*
X335413Y320567D01*
X335355Y320619D01*
X335300Y320674D01*
X335248Y320732D01*
X335198Y320792D01*
X335152Y320854D01*
X335108Y320919D01*
X335067Y320986D01*
X335030Y321054D01*
X334996Y321124D01*
X334965Y321196D01*
X334938Y321269D01*
X334914Y321343D01*
X334894Y321418D01*
X334878Y321494D01*
X334865Y321571D01*
X334855Y321648D01*
X334850Y321726D01*
X334848Y321804D01*
X334848Y325896D01*
X334850Y325976D01*
X334856Y326056D01*
X334866Y326136D01*
X334879Y326215D01*
X334897Y326294D01*
X334918Y326371D01*
X334944Y326447D01*
X334973Y326522D01*
X335005Y326596D01*
X335041Y326668D01*
X335081Y326738D01*
X335124Y326805D01*
X335170Y326871D01*
X335220Y326934D01*
X335272Y326995D01*
X335327Y327054D01*
X335386Y327109D01*
X335446Y327161D01*
X335510Y327211D01*
X335576Y327257D01*
X335643Y327300D01*
X335713Y327340D01*
X335785Y327376D01*
X335859Y327408D01*
X335933Y327437D01*
X336010Y327463D01*
X336087Y327484D01*
X336166Y327502D01*
X336245Y327515D01*
X336325Y327525D01*
X336405Y327531D01*
X336485Y327533D01*
X338121Y327533D01*
X340967Y324259D02*
X343422Y324259D01*
X343500Y324257D01*
X343578Y324252D01*
X343655Y324242D01*
X343732Y324229D01*
X343808Y324213D01*
X343883Y324193D01*
X343957Y324169D01*
X344030Y324142D01*
X344102Y324111D01*
X344172Y324077D01*
X344241Y324040D01*
X344307Y323999D01*
X344372Y323955D01*
X344434Y323909D01*
X344494Y323859D01*
X344552Y323807D01*
X344607Y323752D01*
X344659Y323694D01*
X344709Y323634D01*
X344755Y323572D01*
X344799Y323507D01*
X344840Y323441D01*
X344877Y323372D01*
X344911Y323302D01*
X344942Y323230D01*
X344969Y323157D01*
X344993Y323083D01*
X345013Y323008D01*
X345029Y322932D01*
X345042Y322855D01*
X345052Y322778D01*
X345057Y322700D01*
X345059Y322622D01*
X345059Y322213D01*
X345057Y322124D01*
X345051Y322035D01*
X345041Y321946D01*
X345028Y321858D01*
X345011Y321770D01*
X344989Y321683D01*
X344964Y321598D01*
X344936Y321513D01*
X344903Y321430D01*
X344867Y321348D01*
X344828Y321268D01*
X344785Y321190D01*
X344739Y321114D01*
X344689Y321039D01*
X344636Y320967D01*
X344580Y320898D01*
X344521Y320831D01*
X344460Y320766D01*
X344395Y320705D01*
X344328Y320646D01*
X344259Y320590D01*
X344187Y320537D01*
X344112Y320487D01*
X344036Y320441D01*
X343958Y320398D01*
X343878Y320359D01*
X343796Y320323D01*
X343713Y320290D01*
X343628Y320262D01*
X343543Y320237D01*
X343456Y320215D01*
X343368Y320198D01*
X343280Y320185D01*
X343191Y320175D01*
X343102Y320169D01*
X343013Y320167D01*
X342924Y320169D01*
X342835Y320175D01*
X342746Y320185D01*
X342658Y320198D01*
X342570Y320215D01*
X342483Y320237D01*
X342398Y320262D01*
X342313Y320290D01*
X342230Y320323D01*
X342148Y320359D01*
X342068Y320398D01*
X341990Y320441D01*
X341914Y320487D01*
X341839Y320537D01*
X341767Y320590D01*
X341698Y320646D01*
X341631Y320705D01*
X341566Y320766D01*
X341505Y320831D01*
X341446Y320898D01*
X341390Y320967D01*
X341337Y321039D01*
X341287Y321114D01*
X341241Y321190D01*
X341198Y321268D01*
X341159Y321348D01*
X341123Y321430D01*
X341090Y321513D01*
X341062Y321598D01*
X341037Y321683D01*
X341015Y321770D01*
X340998Y321858D01*
X340985Y321946D01*
X340975Y322035D01*
X340969Y322124D01*
X340967Y322213D01*
X340967Y324259D01*
X340969Y324373D01*
X340975Y324487D01*
X340985Y324601D01*
X340999Y324715D01*
X341017Y324828D01*
X341039Y324940D01*
X341064Y325051D01*
X341094Y325161D01*
X341127Y325271D01*
X341164Y325379D01*
X341205Y325485D01*
X341250Y325591D01*
X341298Y325694D01*
X341350Y325796D01*
X341406Y325896D01*
X341464Y325994D01*
X341527Y326090D01*
X341592Y326183D01*
X341661Y326275D01*
X341733Y326363D01*
X341808Y326450D01*
X341886Y326533D01*
X341967Y326614D01*
X342050Y326692D01*
X342137Y326767D01*
X342225Y326839D01*
X342317Y326908D01*
X342410Y326973D01*
X342506Y327035D01*
X342604Y327094D01*
X342704Y327150D01*
X342806Y327202D01*
X342909Y327250D01*
X343015Y327295D01*
X343121Y327336D01*
X343229Y327373D01*
X343339Y327406D01*
X343449Y327436D01*
X343560Y327461D01*
X343672Y327483D01*
X343785Y327501D01*
X343899Y327515D01*
X344013Y327525D01*
X344127Y327531D01*
X344241Y327533D01*
X390638Y319913D02*
X392275Y319913D01*
X390638Y319913D02*
X390560Y319915D01*
X390482Y319920D01*
X390405Y319930D01*
X390328Y319943D01*
X390252Y319959D01*
X390177Y319979D01*
X390103Y320003D01*
X390030Y320030D01*
X389958Y320061D01*
X389888Y320095D01*
X389820Y320132D01*
X389753Y320173D01*
X389688Y320217D01*
X389626Y320263D01*
X389566Y320313D01*
X389508Y320365D01*
X389453Y320420D01*
X389401Y320478D01*
X389351Y320538D01*
X389305Y320600D01*
X389261Y320665D01*
X389220Y320732D01*
X389183Y320800D01*
X389149Y320870D01*
X389118Y320942D01*
X389091Y321015D01*
X389067Y321089D01*
X389047Y321164D01*
X389031Y321240D01*
X389018Y321317D01*
X389008Y321394D01*
X389003Y321472D01*
X389001Y321550D01*
X389001Y325642D01*
X389003Y325722D01*
X389009Y325802D01*
X389019Y325882D01*
X389032Y325961D01*
X389050Y326040D01*
X389071Y326117D01*
X389097Y326193D01*
X389126Y326268D01*
X389158Y326342D01*
X389194Y326414D01*
X389234Y326484D01*
X389277Y326551D01*
X389323Y326617D01*
X389373Y326680D01*
X389425Y326741D01*
X389480Y326800D01*
X389539Y326855D01*
X389599Y326907D01*
X389663Y326957D01*
X389729Y327003D01*
X389796Y327046D01*
X389866Y327086D01*
X389938Y327122D01*
X390012Y327154D01*
X390086Y327183D01*
X390163Y327209D01*
X390240Y327230D01*
X390319Y327248D01*
X390398Y327261D01*
X390478Y327271D01*
X390558Y327277D01*
X390638Y327279D01*
X392275Y327279D01*
X395120Y327279D02*
X395120Y326461D01*
X395120Y327279D02*
X399212Y327279D01*
X397166Y319913D01*
X66341Y220853D02*
X64705Y220853D01*
X64627Y220855D01*
X64549Y220860D01*
X64472Y220870D01*
X64395Y220883D01*
X64319Y220899D01*
X64244Y220919D01*
X64170Y220943D01*
X64097Y220970D01*
X64025Y221001D01*
X63955Y221035D01*
X63887Y221072D01*
X63820Y221113D01*
X63755Y221157D01*
X63693Y221203D01*
X63633Y221253D01*
X63575Y221305D01*
X63520Y221360D01*
X63468Y221418D01*
X63418Y221478D01*
X63372Y221540D01*
X63328Y221605D01*
X63287Y221672D01*
X63250Y221740D01*
X63216Y221810D01*
X63185Y221882D01*
X63158Y221955D01*
X63134Y222029D01*
X63114Y222104D01*
X63098Y222180D01*
X63085Y222257D01*
X63075Y222334D01*
X63070Y222412D01*
X63068Y222490D01*
X63068Y226582D01*
X63070Y226662D01*
X63076Y226742D01*
X63086Y226822D01*
X63099Y226901D01*
X63117Y226980D01*
X63138Y227057D01*
X63164Y227133D01*
X63193Y227208D01*
X63225Y227282D01*
X63261Y227354D01*
X63301Y227424D01*
X63344Y227491D01*
X63390Y227557D01*
X63440Y227620D01*
X63492Y227681D01*
X63547Y227740D01*
X63606Y227795D01*
X63666Y227847D01*
X63730Y227897D01*
X63796Y227943D01*
X63863Y227986D01*
X63933Y228026D01*
X64005Y228062D01*
X64079Y228094D01*
X64153Y228123D01*
X64230Y228149D01*
X64307Y228170D01*
X64386Y228188D01*
X64465Y228201D01*
X64545Y228211D01*
X64625Y228217D01*
X64705Y228219D01*
X66341Y228219D01*
X69187Y222899D02*
X69189Y222988D01*
X69195Y223077D01*
X69205Y223166D01*
X69218Y223254D01*
X69235Y223342D01*
X69257Y223429D01*
X69282Y223514D01*
X69310Y223599D01*
X69343Y223682D01*
X69379Y223764D01*
X69418Y223844D01*
X69461Y223922D01*
X69507Y223998D01*
X69557Y224073D01*
X69610Y224145D01*
X69666Y224214D01*
X69725Y224281D01*
X69786Y224346D01*
X69851Y224407D01*
X69918Y224466D01*
X69987Y224522D01*
X70059Y224575D01*
X70134Y224625D01*
X70210Y224671D01*
X70288Y224714D01*
X70368Y224753D01*
X70450Y224789D01*
X70533Y224822D01*
X70618Y224850D01*
X70703Y224875D01*
X70790Y224897D01*
X70878Y224914D01*
X70966Y224927D01*
X71055Y224937D01*
X71144Y224943D01*
X71233Y224945D01*
X71322Y224943D01*
X71411Y224937D01*
X71500Y224927D01*
X71588Y224914D01*
X71676Y224897D01*
X71763Y224875D01*
X71848Y224850D01*
X71933Y224822D01*
X72016Y224789D01*
X72098Y224753D01*
X72178Y224714D01*
X72256Y224671D01*
X72332Y224625D01*
X72407Y224575D01*
X72479Y224522D01*
X72548Y224466D01*
X72615Y224407D01*
X72680Y224346D01*
X72741Y224281D01*
X72800Y224214D01*
X72856Y224145D01*
X72909Y224073D01*
X72959Y223998D01*
X73005Y223922D01*
X73048Y223844D01*
X73087Y223764D01*
X73123Y223682D01*
X73156Y223599D01*
X73184Y223514D01*
X73209Y223429D01*
X73231Y223342D01*
X73248Y223254D01*
X73261Y223166D01*
X73271Y223077D01*
X73277Y222988D01*
X73279Y222899D01*
X73277Y222810D01*
X73271Y222721D01*
X73261Y222632D01*
X73248Y222544D01*
X73231Y222456D01*
X73209Y222369D01*
X73184Y222284D01*
X73156Y222199D01*
X73123Y222116D01*
X73087Y222034D01*
X73048Y221954D01*
X73005Y221876D01*
X72959Y221800D01*
X72909Y221725D01*
X72856Y221653D01*
X72800Y221584D01*
X72741Y221517D01*
X72680Y221452D01*
X72615Y221391D01*
X72548Y221332D01*
X72479Y221276D01*
X72407Y221223D01*
X72332Y221173D01*
X72256Y221127D01*
X72178Y221084D01*
X72098Y221045D01*
X72016Y221009D01*
X71933Y220976D01*
X71848Y220948D01*
X71763Y220923D01*
X71676Y220901D01*
X71588Y220884D01*
X71500Y220871D01*
X71411Y220861D01*
X71322Y220855D01*
X71233Y220853D01*
X71144Y220855D01*
X71055Y220861D01*
X70966Y220871D01*
X70878Y220884D01*
X70790Y220901D01*
X70703Y220923D01*
X70618Y220948D01*
X70533Y220976D01*
X70450Y221009D01*
X70368Y221045D01*
X70288Y221084D01*
X70210Y221127D01*
X70134Y221173D01*
X70059Y221223D01*
X69987Y221276D01*
X69918Y221332D01*
X69851Y221391D01*
X69786Y221452D01*
X69725Y221517D01*
X69666Y221584D01*
X69610Y221653D01*
X69557Y221725D01*
X69507Y221800D01*
X69461Y221876D01*
X69418Y221954D01*
X69379Y222034D01*
X69343Y222116D01*
X69310Y222199D01*
X69282Y222284D01*
X69257Y222369D01*
X69235Y222456D01*
X69218Y222544D01*
X69205Y222632D01*
X69195Y222721D01*
X69189Y222810D01*
X69187Y222899D01*
X69596Y226582D02*
X69598Y226661D01*
X69604Y226740D01*
X69613Y226819D01*
X69626Y226897D01*
X69644Y226974D01*
X69664Y227050D01*
X69689Y227125D01*
X69717Y227199D01*
X69748Y227272D01*
X69784Y227343D01*
X69822Y227412D01*
X69864Y227479D01*
X69909Y227544D01*
X69957Y227607D01*
X70008Y227668D01*
X70062Y227725D01*
X70118Y227781D01*
X70177Y227833D01*
X70239Y227883D01*
X70303Y227929D01*
X70369Y227973D01*
X70437Y228013D01*
X70507Y228049D01*
X70579Y228083D01*
X70653Y228113D01*
X70727Y228139D01*
X70803Y228162D01*
X70880Y228180D01*
X70957Y228196D01*
X71036Y228207D01*
X71114Y228215D01*
X71193Y228219D01*
X71273Y228219D01*
X71352Y228215D01*
X71430Y228207D01*
X71509Y228196D01*
X71586Y228180D01*
X71663Y228162D01*
X71739Y228139D01*
X71813Y228113D01*
X71887Y228083D01*
X71959Y228049D01*
X72029Y228013D01*
X72097Y227973D01*
X72163Y227929D01*
X72227Y227883D01*
X72289Y227833D01*
X72348Y227781D01*
X72404Y227725D01*
X72458Y227668D01*
X72509Y227607D01*
X72557Y227544D01*
X72602Y227479D01*
X72644Y227412D01*
X72682Y227343D01*
X72718Y227272D01*
X72749Y227199D01*
X72777Y227125D01*
X72802Y227050D01*
X72822Y226974D01*
X72840Y226897D01*
X72853Y226819D01*
X72862Y226740D01*
X72868Y226661D01*
X72870Y226582D01*
X72868Y226503D01*
X72862Y226424D01*
X72853Y226345D01*
X72840Y226267D01*
X72822Y226190D01*
X72802Y226114D01*
X72777Y226039D01*
X72749Y225965D01*
X72718Y225892D01*
X72682Y225821D01*
X72644Y225752D01*
X72602Y225685D01*
X72557Y225620D01*
X72509Y225557D01*
X72458Y225496D01*
X72404Y225439D01*
X72348Y225383D01*
X72289Y225331D01*
X72227Y225281D01*
X72163Y225235D01*
X72097Y225191D01*
X72029Y225151D01*
X71959Y225115D01*
X71887Y225081D01*
X71813Y225051D01*
X71739Y225025D01*
X71663Y225002D01*
X71586Y224984D01*
X71509Y224968D01*
X71430Y224957D01*
X71352Y224949D01*
X71273Y224945D01*
X71193Y224945D01*
X71114Y224949D01*
X71036Y224957D01*
X70957Y224968D01*
X70880Y224984D01*
X70803Y225002D01*
X70727Y225025D01*
X70653Y225051D01*
X70579Y225081D01*
X70507Y225115D01*
X70437Y225151D01*
X70369Y225191D01*
X70303Y225235D01*
X70239Y225281D01*
X70177Y225331D01*
X70118Y225383D01*
X70062Y225439D01*
X70008Y225496D01*
X69957Y225557D01*
X69909Y225620D01*
X69864Y225685D01*
X69822Y225752D01*
X69784Y225821D01*
X69748Y225892D01*
X69717Y225965D01*
X69689Y226039D01*
X69664Y226114D01*
X69644Y226190D01*
X69626Y226267D01*
X69613Y226345D01*
X69604Y226424D01*
X69598Y226503D01*
X69596Y226582D01*
X336485Y190627D02*
X338121Y190627D01*
X336485Y190627D02*
X336407Y190629D01*
X336329Y190634D01*
X336252Y190644D01*
X336175Y190657D01*
X336099Y190673D01*
X336024Y190693D01*
X335950Y190717D01*
X335877Y190744D01*
X335805Y190775D01*
X335735Y190809D01*
X335667Y190846D01*
X335600Y190887D01*
X335535Y190931D01*
X335473Y190977D01*
X335413Y191027D01*
X335355Y191079D01*
X335300Y191134D01*
X335248Y191192D01*
X335198Y191252D01*
X335152Y191314D01*
X335108Y191379D01*
X335067Y191446D01*
X335030Y191514D01*
X334996Y191584D01*
X334965Y191656D01*
X334938Y191729D01*
X334914Y191803D01*
X334894Y191878D01*
X334878Y191954D01*
X334865Y192031D01*
X334855Y192108D01*
X334850Y192186D01*
X334848Y192264D01*
X334848Y196356D01*
X334850Y196436D01*
X334856Y196516D01*
X334866Y196596D01*
X334879Y196675D01*
X334897Y196754D01*
X334918Y196831D01*
X334944Y196907D01*
X334973Y196982D01*
X335005Y197056D01*
X335041Y197128D01*
X335081Y197198D01*
X335124Y197265D01*
X335170Y197331D01*
X335220Y197394D01*
X335272Y197455D01*
X335327Y197514D01*
X335386Y197569D01*
X335446Y197621D01*
X335510Y197671D01*
X335576Y197717D01*
X335643Y197760D01*
X335713Y197800D01*
X335785Y197836D01*
X335859Y197868D01*
X335933Y197897D01*
X336010Y197923D01*
X336087Y197944D01*
X336166Y197962D01*
X336245Y197975D01*
X336325Y197985D01*
X336405Y197991D01*
X336485Y197993D01*
X338121Y197993D01*
X342604Y193901D02*
X345059Y193901D01*
X342604Y193901D02*
X342526Y193903D01*
X342448Y193908D01*
X342371Y193918D01*
X342294Y193931D01*
X342218Y193947D01*
X342143Y193967D01*
X342069Y193991D01*
X341996Y194018D01*
X341924Y194049D01*
X341854Y194083D01*
X341785Y194120D01*
X341719Y194161D01*
X341654Y194205D01*
X341592Y194251D01*
X341532Y194301D01*
X341474Y194353D01*
X341419Y194408D01*
X341367Y194466D01*
X341317Y194526D01*
X341271Y194588D01*
X341227Y194653D01*
X341186Y194720D01*
X341149Y194788D01*
X341115Y194858D01*
X341084Y194930D01*
X341057Y195003D01*
X341033Y195077D01*
X341013Y195152D01*
X340997Y195228D01*
X340984Y195305D01*
X340974Y195382D01*
X340969Y195460D01*
X340967Y195538D01*
X340967Y195947D01*
X340969Y196036D01*
X340975Y196125D01*
X340985Y196214D01*
X340998Y196302D01*
X341015Y196390D01*
X341037Y196477D01*
X341062Y196562D01*
X341090Y196647D01*
X341123Y196730D01*
X341159Y196812D01*
X341198Y196892D01*
X341241Y196970D01*
X341287Y197046D01*
X341337Y197121D01*
X341390Y197193D01*
X341446Y197262D01*
X341505Y197329D01*
X341566Y197394D01*
X341631Y197455D01*
X341698Y197514D01*
X341767Y197570D01*
X341839Y197623D01*
X341914Y197673D01*
X341990Y197719D01*
X342068Y197762D01*
X342148Y197801D01*
X342230Y197837D01*
X342313Y197870D01*
X342398Y197898D01*
X342483Y197923D01*
X342570Y197945D01*
X342658Y197962D01*
X342746Y197975D01*
X342835Y197985D01*
X342924Y197991D01*
X343013Y197993D01*
X343102Y197991D01*
X343191Y197985D01*
X343280Y197975D01*
X343368Y197962D01*
X343456Y197945D01*
X343543Y197923D01*
X343628Y197898D01*
X343713Y197870D01*
X343796Y197837D01*
X343878Y197801D01*
X343958Y197762D01*
X344036Y197719D01*
X344112Y197673D01*
X344187Y197623D01*
X344259Y197570D01*
X344328Y197514D01*
X344395Y197455D01*
X344460Y197394D01*
X344521Y197329D01*
X344580Y197262D01*
X344636Y197193D01*
X344689Y197121D01*
X344739Y197046D01*
X344785Y196970D01*
X344828Y196892D01*
X344867Y196812D01*
X344903Y196730D01*
X344936Y196647D01*
X344964Y196562D01*
X344989Y196477D01*
X345011Y196390D01*
X345028Y196302D01*
X345041Y196214D01*
X345051Y196125D01*
X345057Y196036D01*
X345059Y195947D01*
X345059Y193901D01*
X345057Y193789D01*
X345051Y193678D01*
X345042Y193566D01*
X345029Y193455D01*
X345011Y193345D01*
X344991Y193235D01*
X344966Y193126D01*
X344938Y193018D01*
X344906Y192911D01*
X344870Y192805D01*
X344831Y192700D01*
X344788Y192597D01*
X344742Y192495D01*
X344692Y192395D01*
X344639Y192296D01*
X344582Y192200D01*
X344523Y192105D01*
X344460Y192013D01*
X344394Y191923D01*
X344325Y191835D01*
X344253Y191749D01*
X344178Y191666D01*
X344100Y191586D01*
X344020Y191508D01*
X343937Y191433D01*
X343851Y191361D01*
X343763Y191292D01*
X343673Y191226D01*
X343581Y191163D01*
X343486Y191104D01*
X343390Y191047D01*
X343291Y190994D01*
X343191Y190944D01*
X343089Y190898D01*
X342986Y190855D01*
X342881Y190816D01*
X342775Y190780D01*
X342668Y190748D01*
X342560Y190720D01*
X342451Y190695D01*
X342341Y190675D01*
X342231Y190657D01*
X342120Y190644D01*
X342008Y190635D01*
X341897Y190629D01*
X341785Y190627D01*
X388098Y192405D02*
X389735Y192405D01*
X388098Y192405D02*
X388020Y192407D01*
X387942Y192412D01*
X387865Y192422D01*
X387788Y192435D01*
X387712Y192451D01*
X387637Y192471D01*
X387563Y192495D01*
X387490Y192522D01*
X387418Y192553D01*
X387348Y192587D01*
X387280Y192624D01*
X387213Y192665D01*
X387148Y192709D01*
X387086Y192755D01*
X387026Y192805D01*
X386968Y192857D01*
X386913Y192912D01*
X386861Y192970D01*
X386811Y193030D01*
X386765Y193092D01*
X386721Y193157D01*
X386680Y193224D01*
X386643Y193292D01*
X386609Y193362D01*
X386578Y193434D01*
X386551Y193507D01*
X386527Y193581D01*
X386507Y193656D01*
X386491Y193732D01*
X386478Y193809D01*
X386468Y193886D01*
X386463Y193964D01*
X386461Y194042D01*
X386461Y198134D01*
X386463Y198214D01*
X386469Y198294D01*
X386479Y198374D01*
X386492Y198453D01*
X386510Y198532D01*
X386531Y198609D01*
X386557Y198685D01*
X386586Y198760D01*
X386618Y198834D01*
X386654Y198906D01*
X386694Y198976D01*
X386737Y199043D01*
X386783Y199109D01*
X386833Y199172D01*
X386885Y199233D01*
X386940Y199292D01*
X386999Y199347D01*
X387059Y199399D01*
X387123Y199449D01*
X387189Y199495D01*
X387256Y199538D01*
X387326Y199578D01*
X387398Y199614D01*
X387472Y199646D01*
X387546Y199675D01*
X387623Y199701D01*
X387700Y199722D01*
X387779Y199740D01*
X387858Y199753D01*
X387938Y199763D01*
X388018Y199769D01*
X388098Y199771D01*
X389735Y199771D01*
X392580Y198134D02*
X394626Y199771D01*
X394626Y192405D01*
X392580Y192405D02*
X396672Y192405D01*
X399896Y196088D02*
X399898Y196241D01*
X399904Y196394D01*
X399913Y196546D01*
X399927Y196699D01*
X399944Y196851D01*
X399965Y197002D01*
X399990Y197153D01*
X400019Y197303D01*
X400051Y197453D01*
X400088Y197601D01*
X400128Y197749D01*
X400171Y197896D01*
X400219Y198041D01*
X400270Y198185D01*
X400324Y198328D01*
X400383Y198470D01*
X400444Y198609D01*
X400510Y198748D01*
X400509Y198748D02*
X400535Y198818D01*
X400565Y198888D01*
X400598Y198955D01*
X400634Y199021D01*
X400673Y199085D01*
X400716Y199147D01*
X400762Y199206D01*
X400810Y199264D01*
X400861Y199318D01*
X400915Y199371D01*
X400972Y199420D01*
X401031Y199467D01*
X401092Y199510D01*
X401155Y199551D01*
X401220Y199588D01*
X401287Y199623D01*
X401356Y199653D01*
X401426Y199681D01*
X401497Y199704D01*
X401569Y199725D01*
X401642Y199741D01*
X401716Y199754D01*
X401791Y199764D01*
X401866Y199769D01*
X401941Y199771D01*
X402016Y199769D01*
X402091Y199764D01*
X402166Y199754D01*
X402240Y199741D01*
X402313Y199725D01*
X402385Y199704D01*
X402456Y199681D01*
X402526Y199653D01*
X402595Y199623D01*
X402662Y199588D01*
X402727Y199551D01*
X402790Y199510D01*
X402851Y199467D01*
X402910Y199420D01*
X402967Y199371D01*
X403021Y199318D01*
X403072Y199264D01*
X403121Y199206D01*
X403166Y199147D01*
X403209Y199085D01*
X403248Y199021D01*
X403285Y198955D01*
X403317Y198887D01*
X403347Y198818D01*
X403373Y198748D01*
X403438Y198610D01*
X403500Y198470D01*
X403558Y198328D01*
X403613Y198185D01*
X403664Y198041D01*
X403712Y197896D01*
X403755Y197749D01*
X403795Y197602D01*
X403832Y197453D01*
X403864Y197303D01*
X403893Y197153D01*
X403918Y197002D01*
X403939Y196851D01*
X403956Y196699D01*
X403970Y196546D01*
X403979Y196394D01*
X403985Y196241D01*
X403987Y196088D01*
X399895Y196088D02*
X399897Y195935D01*
X399903Y195782D01*
X399912Y195629D01*
X399926Y195477D01*
X399943Y195325D01*
X399964Y195174D01*
X399989Y195023D01*
X400018Y194872D01*
X400050Y194723D01*
X400087Y194574D01*
X400127Y194427D01*
X400170Y194280D01*
X400218Y194135D01*
X400269Y193990D01*
X400324Y193848D01*
X400382Y193706D01*
X400444Y193566D01*
X400509Y193428D01*
X400535Y193357D01*
X400565Y193288D01*
X400598Y193221D01*
X400634Y193155D01*
X400673Y193091D01*
X400716Y193029D01*
X400762Y192970D01*
X400810Y192912D01*
X400861Y192858D01*
X400915Y192805D01*
X400972Y192756D01*
X401031Y192709D01*
X401092Y192666D01*
X401155Y192625D01*
X401220Y192588D01*
X401287Y192553D01*
X401356Y192523D01*
X401426Y192495D01*
X401497Y192472D01*
X401569Y192451D01*
X401642Y192435D01*
X401716Y192422D01*
X401791Y192412D01*
X401866Y192407D01*
X401941Y192405D01*
X403373Y193428D02*
X403438Y193566D01*
X403500Y193706D01*
X403558Y193848D01*
X403613Y193991D01*
X403664Y194135D01*
X403712Y194280D01*
X403755Y194427D01*
X403795Y194575D01*
X403832Y194723D01*
X403864Y194873D01*
X403893Y195023D01*
X403918Y195174D01*
X403939Y195325D01*
X403956Y195477D01*
X403970Y195630D01*
X403979Y195782D01*
X403985Y195935D01*
X403987Y196088D01*
X403373Y193428D02*
X403347Y193358D01*
X403317Y193288D01*
X403285Y193221D01*
X403248Y193155D01*
X403209Y193091D01*
X403166Y193029D01*
X403120Y192970D01*
X403072Y192912D01*
X403021Y192858D01*
X402967Y192805D01*
X402910Y192756D01*
X402851Y192709D01*
X402790Y192666D01*
X402727Y192625D01*
X402662Y192588D01*
X402595Y192553D01*
X402526Y192523D01*
X402456Y192495D01*
X402385Y192472D01*
X402313Y192451D01*
X402240Y192435D01*
X402166Y192422D01*
X402091Y192412D01*
X402016Y192407D01*
X401941Y192405D01*
X400305Y194042D02*
X403578Y198134D01*
X300863Y176149D02*
X300863Y168783D01*
X300863Y176149D02*
X302909Y176149D01*
X302998Y176147D01*
X303087Y176141D01*
X303176Y176131D01*
X303264Y176118D01*
X303352Y176101D01*
X303439Y176079D01*
X303524Y176054D01*
X303609Y176026D01*
X303692Y175993D01*
X303774Y175957D01*
X303854Y175918D01*
X303932Y175875D01*
X304008Y175829D01*
X304083Y175779D01*
X304155Y175726D01*
X304224Y175670D01*
X304291Y175611D01*
X304356Y175550D01*
X304417Y175485D01*
X304476Y175418D01*
X304532Y175349D01*
X304585Y175277D01*
X304635Y175202D01*
X304681Y175126D01*
X304724Y175048D01*
X304763Y174968D01*
X304799Y174886D01*
X304832Y174803D01*
X304860Y174718D01*
X304885Y174633D01*
X304907Y174546D01*
X304924Y174458D01*
X304937Y174370D01*
X304947Y174281D01*
X304953Y174192D01*
X304955Y174103D01*
X304953Y174014D01*
X304947Y173925D01*
X304937Y173836D01*
X304924Y173748D01*
X304907Y173660D01*
X304885Y173573D01*
X304860Y173488D01*
X304832Y173403D01*
X304799Y173320D01*
X304763Y173238D01*
X304724Y173158D01*
X304681Y173080D01*
X304635Y173004D01*
X304585Y172929D01*
X304532Y172857D01*
X304476Y172788D01*
X304417Y172721D01*
X304356Y172656D01*
X304291Y172595D01*
X304224Y172536D01*
X304155Y172480D01*
X304083Y172427D01*
X304008Y172377D01*
X303932Y172331D01*
X303854Y172288D01*
X303774Y172249D01*
X303692Y172213D01*
X303609Y172180D01*
X303524Y172152D01*
X303439Y172127D01*
X303352Y172105D01*
X303264Y172088D01*
X303176Y172075D01*
X303087Y172065D01*
X302998Y172059D01*
X302909Y172057D01*
X300863Y172057D01*
X303318Y172057D02*
X304955Y168783D01*
X308127Y175331D02*
X308127Y176149D01*
X312219Y176149D01*
X310173Y168783D01*
D14*
X359030Y252570D02*
X375030Y252570D01*
X375030Y232570D01*
X359030Y232570D01*
X359030Y252570D01*
X355530Y255070D02*
X347030Y255070D01*
D10*
X360442Y263017D02*
X360442Y270383D01*
X359624Y263017D02*
X361261Y263017D01*
X361261Y270383D02*
X359624Y270383D01*
X365862Y263017D02*
X367499Y263017D01*
X365862Y263017D02*
X365784Y263019D01*
X365706Y263024D01*
X365629Y263034D01*
X365552Y263047D01*
X365476Y263063D01*
X365401Y263083D01*
X365327Y263107D01*
X365254Y263134D01*
X365182Y263165D01*
X365112Y263199D01*
X365044Y263236D01*
X364977Y263277D01*
X364912Y263321D01*
X364850Y263367D01*
X364790Y263417D01*
X364732Y263469D01*
X364677Y263524D01*
X364625Y263582D01*
X364575Y263642D01*
X364529Y263704D01*
X364485Y263769D01*
X364444Y263836D01*
X364407Y263904D01*
X364373Y263974D01*
X364342Y264046D01*
X364315Y264119D01*
X364291Y264193D01*
X364271Y264268D01*
X364255Y264344D01*
X364242Y264421D01*
X364232Y264498D01*
X364227Y264576D01*
X364225Y264654D01*
X364225Y268746D01*
X364227Y268826D01*
X364233Y268906D01*
X364243Y268986D01*
X364256Y269065D01*
X364274Y269144D01*
X364295Y269221D01*
X364321Y269297D01*
X364350Y269372D01*
X364382Y269446D01*
X364418Y269518D01*
X364458Y269588D01*
X364501Y269655D01*
X364547Y269721D01*
X364597Y269784D01*
X364649Y269845D01*
X364704Y269904D01*
X364763Y269959D01*
X364823Y270011D01*
X364887Y270061D01*
X364953Y270107D01*
X365020Y270150D01*
X365090Y270190D01*
X365162Y270226D01*
X365236Y270258D01*
X365310Y270287D01*
X365387Y270313D01*
X365464Y270334D01*
X365543Y270352D01*
X365622Y270365D01*
X365702Y270375D01*
X365782Y270381D01*
X365862Y270383D01*
X367499Y270383D01*
X371981Y270383D02*
X370344Y264654D01*
X374436Y264654D01*
X373209Y266291D02*
X373209Y263017D01*
X300863Y130175D02*
X300863Y122809D01*
X300863Y130175D02*
X302909Y130175D01*
X302998Y130173D01*
X303087Y130167D01*
X303176Y130157D01*
X303264Y130144D01*
X303352Y130127D01*
X303439Y130105D01*
X303524Y130080D01*
X303609Y130052D01*
X303692Y130019D01*
X303774Y129983D01*
X303854Y129944D01*
X303932Y129901D01*
X304008Y129855D01*
X304083Y129805D01*
X304155Y129752D01*
X304224Y129696D01*
X304291Y129637D01*
X304356Y129576D01*
X304417Y129511D01*
X304476Y129444D01*
X304532Y129375D01*
X304585Y129303D01*
X304635Y129228D01*
X304681Y129152D01*
X304724Y129074D01*
X304763Y128994D01*
X304799Y128912D01*
X304832Y128829D01*
X304860Y128744D01*
X304885Y128659D01*
X304907Y128572D01*
X304924Y128484D01*
X304937Y128396D01*
X304947Y128307D01*
X304953Y128218D01*
X304955Y128129D01*
X304953Y128040D01*
X304947Y127951D01*
X304937Y127862D01*
X304924Y127774D01*
X304907Y127686D01*
X304885Y127599D01*
X304860Y127514D01*
X304832Y127429D01*
X304799Y127346D01*
X304763Y127264D01*
X304724Y127184D01*
X304681Y127106D01*
X304635Y127030D01*
X304585Y126955D01*
X304532Y126883D01*
X304476Y126814D01*
X304417Y126747D01*
X304356Y126682D01*
X304291Y126621D01*
X304224Y126562D01*
X304155Y126506D01*
X304083Y126453D01*
X304008Y126403D01*
X303932Y126357D01*
X303854Y126314D01*
X303774Y126275D01*
X303692Y126239D01*
X303609Y126206D01*
X303524Y126178D01*
X303439Y126153D01*
X303352Y126131D01*
X303264Y126114D01*
X303176Y126101D01*
X303087Y126091D01*
X302998Y126085D01*
X302909Y126083D01*
X300863Y126083D01*
X303318Y126083D02*
X304955Y122809D01*
X308127Y124855D02*
X308129Y124944D01*
X308135Y125033D01*
X308145Y125122D01*
X308158Y125210D01*
X308175Y125298D01*
X308197Y125385D01*
X308222Y125470D01*
X308250Y125555D01*
X308283Y125638D01*
X308319Y125720D01*
X308358Y125800D01*
X308401Y125878D01*
X308447Y125954D01*
X308497Y126029D01*
X308550Y126101D01*
X308606Y126170D01*
X308665Y126237D01*
X308726Y126302D01*
X308791Y126363D01*
X308858Y126422D01*
X308927Y126478D01*
X308999Y126531D01*
X309074Y126581D01*
X309150Y126627D01*
X309228Y126670D01*
X309308Y126709D01*
X309390Y126745D01*
X309473Y126778D01*
X309558Y126806D01*
X309643Y126831D01*
X309730Y126853D01*
X309818Y126870D01*
X309906Y126883D01*
X309995Y126893D01*
X310084Y126899D01*
X310173Y126901D01*
X310262Y126899D01*
X310351Y126893D01*
X310440Y126883D01*
X310528Y126870D01*
X310616Y126853D01*
X310703Y126831D01*
X310788Y126806D01*
X310873Y126778D01*
X310956Y126745D01*
X311038Y126709D01*
X311118Y126670D01*
X311196Y126627D01*
X311272Y126581D01*
X311347Y126531D01*
X311419Y126478D01*
X311488Y126422D01*
X311555Y126363D01*
X311620Y126302D01*
X311681Y126237D01*
X311740Y126170D01*
X311796Y126101D01*
X311849Y126029D01*
X311899Y125954D01*
X311945Y125878D01*
X311988Y125800D01*
X312027Y125720D01*
X312063Y125638D01*
X312096Y125555D01*
X312124Y125470D01*
X312149Y125385D01*
X312171Y125298D01*
X312188Y125210D01*
X312201Y125122D01*
X312211Y125033D01*
X312217Y124944D01*
X312219Y124855D01*
X312217Y124766D01*
X312211Y124677D01*
X312201Y124588D01*
X312188Y124500D01*
X312171Y124412D01*
X312149Y124325D01*
X312124Y124240D01*
X312096Y124155D01*
X312063Y124072D01*
X312027Y123990D01*
X311988Y123910D01*
X311945Y123832D01*
X311899Y123756D01*
X311849Y123681D01*
X311796Y123609D01*
X311740Y123540D01*
X311681Y123473D01*
X311620Y123408D01*
X311555Y123347D01*
X311488Y123288D01*
X311419Y123232D01*
X311347Y123179D01*
X311272Y123129D01*
X311196Y123083D01*
X311118Y123040D01*
X311038Y123001D01*
X310956Y122965D01*
X310873Y122932D01*
X310788Y122904D01*
X310703Y122879D01*
X310616Y122857D01*
X310528Y122840D01*
X310440Y122827D01*
X310351Y122817D01*
X310262Y122811D01*
X310173Y122809D01*
X310084Y122811D01*
X309995Y122817D01*
X309906Y122827D01*
X309818Y122840D01*
X309730Y122857D01*
X309643Y122879D01*
X309558Y122904D01*
X309473Y122932D01*
X309390Y122965D01*
X309308Y123001D01*
X309228Y123040D01*
X309150Y123083D01*
X309074Y123129D01*
X308999Y123179D01*
X308927Y123232D01*
X308858Y123288D01*
X308791Y123347D01*
X308726Y123408D01*
X308665Y123473D01*
X308606Y123540D01*
X308550Y123609D01*
X308497Y123681D01*
X308447Y123756D01*
X308401Y123832D01*
X308358Y123910D01*
X308319Y123990D01*
X308283Y124072D01*
X308250Y124155D01*
X308222Y124240D01*
X308197Y124325D01*
X308175Y124412D01*
X308158Y124500D01*
X308145Y124588D01*
X308135Y124677D01*
X308129Y124766D01*
X308127Y124855D01*
X308536Y128538D02*
X308538Y128617D01*
X308544Y128696D01*
X308553Y128775D01*
X308566Y128853D01*
X308584Y128930D01*
X308604Y129006D01*
X308629Y129081D01*
X308657Y129155D01*
X308688Y129228D01*
X308724Y129299D01*
X308762Y129368D01*
X308804Y129435D01*
X308849Y129500D01*
X308897Y129563D01*
X308948Y129624D01*
X309002Y129681D01*
X309058Y129737D01*
X309117Y129789D01*
X309179Y129839D01*
X309243Y129885D01*
X309309Y129929D01*
X309377Y129969D01*
X309447Y130005D01*
X309519Y130039D01*
X309593Y130069D01*
X309667Y130095D01*
X309743Y130118D01*
X309820Y130136D01*
X309897Y130152D01*
X309976Y130163D01*
X310054Y130171D01*
X310133Y130175D01*
X310213Y130175D01*
X310292Y130171D01*
X310370Y130163D01*
X310449Y130152D01*
X310526Y130136D01*
X310603Y130118D01*
X310679Y130095D01*
X310753Y130069D01*
X310827Y130039D01*
X310899Y130005D01*
X310969Y129969D01*
X311037Y129929D01*
X311103Y129885D01*
X311167Y129839D01*
X311229Y129789D01*
X311288Y129737D01*
X311344Y129681D01*
X311398Y129624D01*
X311449Y129563D01*
X311497Y129500D01*
X311542Y129435D01*
X311584Y129368D01*
X311622Y129299D01*
X311658Y129228D01*
X311689Y129155D01*
X311717Y129081D01*
X311742Y129006D01*
X311762Y128930D01*
X311780Y128853D01*
X311793Y128775D01*
X311802Y128696D01*
X311808Y128617D01*
X311810Y128538D01*
X311808Y128459D01*
X311802Y128380D01*
X311793Y128301D01*
X311780Y128223D01*
X311762Y128146D01*
X311742Y128070D01*
X311717Y127995D01*
X311689Y127921D01*
X311658Y127848D01*
X311622Y127777D01*
X311584Y127708D01*
X311542Y127641D01*
X311497Y127576D01*
X311449Y127513D01*
X311398Y127452D01*
X311344Y127395D01*
X311288Y127339D01*
X311229Y127287D01*
X311167Y127237D01*
X311103Y127191D01*
X311037Y127147D01*
X310969Y127107D01*
X310899Y127071D01*
X310827Y127037D01*
X310753Y127007D01*
X310679Y126981D01*
X310603Y126958D01*
X310526Y126940D01*
X310449Y126924D01*
X310370Y126913D01*
X310292Y126905D01*
X310213Y126901D01*
X310133Y126901D01*
X310054Y126905D01*
X309976Y126913D01*
X309897Y126924D01*
X309820Y126940D01*
X309743Y126958D01*
X309667Y126981D01*
X309593Y127007D01*
X309519Y127037D01*
X309447Y127071D01*
X309377Y127107D01*
X309309Y127147D01*
X309243Y127191D01*
X309179Y127237D01*
X309117Y127287D01*
X309058Y127339D01*
X309002Y127395D01*
X308948Y127452D01*
X308897Y127513D01*
X308849Y127576D01*
X308804Y127641D01*
X308762Y127708D01*
X308724Y127777D01*
X308688Y127848D01*
X308657Y127921D01*
X308629Y127995D01*
X308604Y128070D01*
X308584Y128146D01*
X308566Y128223D01*
X308553Y128301D01*
X308544Y128380D01*
X308538Y128459D01*
X308536Y128538D01*
X298831Y256921D02*
X298831Y264287D01*
X300877Y264287D01*
X300966Y264285D01*
X301055Y264279D01*
X301144Y264269D01*
X301232Y264256D01*
X301320Y264239D01*
X301407Y264217D01*
X301492Y264192D01*
X301577Y264164D01*
X301660Y264131D01*
X301742Y264095D01*
X301822Y264056D01*
X301900Y264013D01*
X301976Y263967D01*
X302051Y263917D01*
X302123Y263864D01*
X302192Y263808D01*
X302259Y263749D01*
X302324Y263688D01*
X302385Y263623D01*
X302444Y263556D01*
X302500Y263487D01*
X302553Y263415D01*
X302603Y263340D01*
X302649Y263264D01*
X302692Y263186D01*
X302731Y263106D01*
X302767Y263024D01*
X302800Y262941D01*
X302828Y262856D01*
X302853Y262771D01*
X302875Y262684D01*
X302892Y262596D01*
X302905Y262508D01*
X302915Y262419D01*
X302921Y262330D01*
X302923Y262241D01*
X302921Y262152D01*
X302915Y262063D01*
X302905Y261974D01*
X302892Y261886D01*
X302875Y261798D01*
X302853Y261711D01*
X302828Y261626D01*
X302800Y261541D01*
X302767Y261458D01*
X302731Y261376D01*
X302692Y261296D01*
X302649Y261218D01*
X302603Y261142D01*
X302553Y261067D01*
X302500Y260995D01*
X302444Y260926D01*
X302385Y260859D01*
X302324Y260794D01*
X302259Y260733D01*
X302192Y260674D01*
X302123Y260618D01*
X302051Y260565D01*
X301976Y260515D01*
X301900Y260469D01*
X301822Y260426D01*
X301742Y260387D01*
X301660Y260351D01*
X301577Y260318D01*
X301492Y260290D01*
X301407Y260265D01*
X301320Y260243D01*
X301232Y260226D01*
X301144Y260213D01*
X301055Y260203D01*
X300966Y260197D01*
X300877Y260195D01*
X298831Y260195D01*
X301286Y260195D02*
X302923Y256921D01*
X306095Y256921D02*
X308550Y256921D01*
X308628Y256923D01*
X308706Y256928D01*
X308783Y256938D01*
X308860Y256951D01*
X308936Y256967D01*
X309011Y256987D01*
X309085Y257011D01*
X309158Y257038D01*
X309230Y257069D01*
X309300Y257103D01*
X309369Y257140D01*
X309435Y257181D01*
X309500Y257225D01*
X309562Y257271D01*
X309622Y257321D01*
X309680Y257373D01*
X309735Y257428D01*
X309787Y257486D01*
X309837Y257546D01*
X309883Y257608D01*
X309927Y257673D01*
X309968Y257740D01*
X310005Y257808D01*
X310039Y257878D01*
X310070Y257950D01*
X310097Y258023D01*
X310121Y258097D01*
X310141Y258172D01*
X310157Y258248D01*
X310170Y258325D01*
X310180Y258402D01*
X310185Y258480D01*
X310187Y258558D01*
X310187Y259376D01*
X310185Y259454D01*
X310180Y259532D01*
X310170Y259609D01*
X310157Y259686D01*
X310141Y259762D01*
X310121Y259837D01*
X310097Y259911D01*
X310070Y259984D01*
X310039Y260056D01*
X310005Y260126D01*
X309968Y260195D01*
X309927Y260261D01*
X309883Y260326D01*
X309837Y260388D01*
X309787Y260448D01*
X309735Y260506D01*
X309680Y260561D01*
X309622Y260613D01*
X309562Y260663D01*
X309500Y260709D01*
X309435Y260753D01*
X309369Y260794D01*
X309300Y260831D01*
X309230Y260865D01*
X309158Y260896D01*
X309085Y260923D01*
X309011Y260947D01*
X308936Y260967D01*
X308860Y260983D01*
X308783Y260996D01*
X308706Y261006D01*
X308628Y261011D01*
X308550Y261013D01*
X306095Y261013D01*
X306095Y264287D01*
X310187Y264287D01*
X298831Y219583D02*
X298831Y212217D01*
X298831Y219583D02*
X300877Y219583D01*
X300966Y219581D01*
X301055Y219575D01*
X301144Y219565D01*
X301232Y219552D01*
X301320Y219535D01*
X301407Y219513D01*
X301492Y219488D01*
X301577Y219460D01*
X301660Y219427D01*
X301742Y219391D01*
X301822Y219352D01*
X301900Y219309D01*
X301976Y219263D01*
X302051Y219213D01*
X302123Y219160D01*
X302192Y219104D01*
X302259Y219045D01*
X302324Y218984D01*
X302385Y218919D01*
X302444Y218852D01*
X302500Y218783D01*
X302553Y218711D01*
X302603Y218636D01*
X302649Y218560D01*
X302692Y218482D01*
X302731Y218402D01*
X302767Y218320D01*
X302800Y218237D01*
X302828Y218152D01*
X302853Y218067D01*
X302875Y217980D01*
X302892Y217892D01*
X302905Y217804D01*
X302915Y217715D01*
X302921Y217626D01*
X302923Y217537D01*
X302921Y217448D01*
X302915Y217359D01*
X302905Y217270D01*
X302892Y217182D01*
X302875Y217094D01*
X302853Y217007D01*
X302828Y216922D01*
X302800Y216837D01*
X302767Y216754D01*
X302731Y216672D01*
X302692Y216592D01*
X302649Y216514D01*
X302603Y216438D01*
X302553Y216363D01*
X302500Y216291D01*
X302444Y216222D01*
X302385Y216155D01*
X302324Y216090D01*
X302259Y216029D01*
X302192Y215970D01*
X302123Y215914D01*
X302051Y215861D01*
X301976Y215811D01*
X301900Y215765D01*
X301822Y215722D01*
X301742Y215683D01*
X301660Y215647D01*
X301577Y215614D01*
X301492Y215586D01*
X301407Y215561D01*
X301320Y215539D01*
X301232Y215522D01*
X301144Y215509D01*
X301055Y215499D01*
X300966Y215493D01*
X300877Y215491D01*
X298831Y215491D01*
X301286Y215491D02*
X302923Y212217D01*
X306095Y216309D02*
X308550Y216309D01*
X308628Y216307D01*
X308706Y216302D01*
X308783Y216292D01*
X308860Y216279D01*
X308936Y216263D01*
X309011Y216243D01*
X309085Y216219D01*
X309158Y216192D01*
X309230Y216161D01*
X309300Y216127D01*
X309369Y216090D01*
X309435Y216049D01*
X309500Y216005D01*
X309562Y215959D01*
X309622Y215909D01*
X309680Y215857D01*
X309735Y215802D01*
X309787Y215744D01*
X309837Y215684D01*
X309883Y215622D01*
X309927Y215557D01*
X309968Y215491D01*
X310005Y215422D01*
X310039Y215352D01*
X310070Y215280D01*
X310097Y215207D01*
X310121Y215133D01*
X310141Y215058D01*
X310157Y214982D01*
X310170Y214905D01*
X310180Y214828D01*
X310185Y214750D01*
X310187Y214672D01*
X310187Y214263D01*
X310185Y214174D01*
X310179Y214085D01*
X310169Y213996D01*
X310156Y213908D01*
X310139Y213820D01*
X310117Y213733D01*
X310092Y213648D01*
X310064Y213563D01*
X310031Y213480D01*
X309995Y213398D01*
X309956Y213318D01*
X309913Y213240D01*
X309867Y213164D01*
X309817Y213089D01*
X309764Y213017D01*
X309708Y212948D01*
X309649Y212881D01*
X309588Y212816D01*
X309523Y212755D01*
X309456Y212696D01*
X309387Y212640D01*
X309315Y212587D01*
X309240Y212537D01*
X309164Y212491D01*
X309086Y212448D01*
X309006Y212409D01*
X308924Y212373D01*
X308841Y212340D01*
X308756Y212312D01*
X308671Y212287D01*
X308584Y212265D01*
X308496Y212248D01*
X308408Y212235D01*
X308319Y212225D01*
X308230Y212219D01*
X308141Y212217D01*
X308052Y212219D01*
X307963Y212225D01*
X307874Y212235D01*
X307786Y212248D01*
X307698Y212265D01*
X307611Y212287D01*
X307526Y212312D01*
X307441Y212340D01*
X307358Y212373D01*
X307276Y212409D01*
X307196Y212448D01*
X307118Y212491D01*
X307042Y212537D01*
X306967Y212587D01*
X306895Y212640D01*
X306826Y212696D01*
X306759Y212755D01*
X306694Y212816D01*
X306633Y212881D01*
X306574Y212948D01*
X306518Y213017D01*
X306465Y213089D01*
X306415Y213164D01*
X306369Y213240D01*
X306326Y213318D01*
X306287Y213398D01*
X306251Y213480D01*
X306218Y213563D01*
X306190Y213648D01*
X306165Y213733D01*
X306143Y213820D01*
X306126Y213908D01*
X306113Y213996D01*
X306103Y214085D01*
X306097Y214174D01*
X306095Y214263D01*
X306095Y216309D01*
X306097Y216423D01*
X306103Y216537D01*
X306113Y216651D01*
X306127Y216765D01*
X306145Y216878D01*
X306167Y216990D01*
X306192Y217101D01*
X306222Y217211D01*
X306255Y217321D01*
X306292Y217429D01*
X306333Y217535D01*
X306378Y217641D01*
X306426Y217744D01*
X306478Y217846D01*
X306534Y217946D01*
X306592Y218044D01*
X306655Y218140D01*
X306720Y218233D01*
X306789Y218325D01*
X306861Y218413D01*
X306936Y218500D01*
X307014Y218583D01*
X307095Y218664D01*
X307178Y218742D01*
X307265Y218817D01*
X307353Y218889D01*
X307445Y218958D01*
X307538Y219023D01*
X307634Y219085D01*
X307732Y219144D01*
X307832Y219200D01*
X307934Y219252D01*
X308037Y219300D01*
X308143Y219345D01*
X308249Y219386D01*
X308357Y219423D01*
X308467Y219456D01*
X308577Y219486D01*
X308688Y219511D01*
X308800Y219533D01*
X308913Y219551D01*
X309027Y219565D01*
X309141Y219575D01*
X309255Y219581D01*
X309369Y219583D01*
X337755Y284099D02*
X339391Y284099D01*
X337755Y284099D02*
X337677Y284101D01*
X337599Y284106D01*
X337522Y284116D01*
X337445Y284129D01*
X337369Y284145D01*
X337294Y284165D01*
X337220Y284189D01*
X337147Y284216D01*
X337075Y284247D01*
X337005Y284281D01*
X336937Y284318D01*
X336870Y284359D01*
X336805Y284403D01*
X336743Y284449D01*
X336683Y284499D01*
X336625Y284551D01*
X336570Y284606D01*
X336518Y284664D01*
X336468Y284724D01*
X336422Y284786D01*
X336378Y284851D01*
X336337Y284918D01*
X336300Y284986D01*
X336266Y285056D01*
X336235Y285128D01*
X336208Y285201D01*
X336184Y285275D01*
X336164Y285350D01*
X336148Y285426D01*
X336135Y285503D01*
X336125Y285580D01*
X336120Y285658D01*
X336118Y285736D01*
X336118Y289828D01*
X336120Y289908D01*
X336126Y289988D01*
X336136Y290068D01*
X336149Y290147D01*
X336167Y290226D01*
X336188Y290303D01*
X336214Y290379D01*
X336243Y290454D01*
X336275Y290528D01*
X336311Y290600D01*
X336351Y290670D01*
X336394Y290737D01*
X336440Y290803D01*
X336490Y290866D01*
X336542Y290927D01*
X336597Y290986D01*
X336656Y291041D01*
X336716Y291093D01*
X336780Y291143D01*
X336846Y291189D01*
X336913Y291232D01*
X336983Y291272D01*
X337055Y291308D01*
X337129Y291340D01*
X337203Y291369D01*
X337280Y291395D01*
X337357Y291416D01*
X337436Y291434D01*
X337515Y291447D01*
X337595Y291457D01*
X337675Y291463D01*
X337755Y291465D01*
X339391Y291465D01*
X342237Y289828D02*
X344283Y291465D01*
X344283Y284099D01*
X342237Y284099D02*
X346329Y284099D01*
X390638Y282321D02*
X392275Y282321D01*
X390638Y282321D02*
X390560Y282323D01*
X390482Y282328D01*
X390405Y282338D01*
X390328Y282351D01*
X390252Y282367D01*
X390177Y282387D01*
X390103Y282411D01*
X390030Y282438D01*
X389958Y282469D01*
X389888Y282503D01*
X389820Y282540D01*
X389753Y282581D01*
X389688Y282625D01*
X389626Y282671D01*
X389566Y282721D01*
X389508Y282773D01*
X389453Y282828D01*
X389401Y282886D01*
X389351Y282946D01*
X389305Y283008D01*
X389261Y283073D01*
X389220Y283140D01*
X389183Y283208D01*
X389149Y283278D01*
X389118Y283350D01*
X389091Y283423D01*
X389067Y283497D01*
X389047Y283572D01*
X389031Y283648D01*
X389018Y283725D01*
X389008Y283802D01*
X389003Y283880D01*
X389001Y283958D01*
X389001Y288050D01*
X389003Y288130D01*
X389009Y288210D01*
X389019Y288290D01*
X389032Y288369D01*
X389050Y288448D01*
X389071Y288525D01*
X389097Y288601D01*
X389126Y288676D01*
X389158Y288750D01*
X389194Y288822D01*
X389234Y288892D01*
X389277Y288959D01*
X389323Y289025D01*
X389373Y289088D01*
X389425Y289149D01*
X389480Y289208D01*
X389539Y289263D01*
X389599Y289315D01*
X389663Y289365D01*
X389729Y289411D01*
X389796Y289454D01*
X389866Y289494D01*
X389938Y289530D01*
X390012Y289562D01*
X390086Y289591D01*
X390163Y289617D01*
X390240Y289638D01*
X390319Y289656D01*
X390398Y289669D01*
X390478Y289679D01*
X390558Y289685D01*
X390638Y289687D01*
X392275Y289687D01*
X397371Y289688D02*
X397456Y289686D01*
X397541Y289680D01*
X397625Y289670D01*
X397709Y289657D01*
X397793Y289639D01*
X397875Y289618D01*
X397956Y289593D01*
X398036Y289564D01*
X398115Y289531D01*
X398192Y289495D01*
X398267Y289455D01*
X398341Y289412D01*
X398412Y289366D01*
X398481Y289316D01*
X398548Y289263D01*
X398612Y289207D01*
X398673Y289148D01*
X398732Y289087D01*
X398788Y289023D01*
X398841Y288956D01*
X398891Y288887D01*
X398937Y288816D01*
X398980Y288742D01*
X399020Y288667D01*
X399056Y288590D01*
X399089Y288511D01*
X399118Y288431D01*
X399143Y288350D01*
X399164Y288268D01*
X399182Y288184D01*
X399195Y288100D01*
X399205Y288016D01*
X399211Y287931D01*
X399213Y287846D01*
X397371Y289687D02*
X397275Y289685D01*
X397179Y289679D01*
X397084Y289669D01*
X396989Y289656D01*
X396894Y289638D01*
X396801Y289617D01*
X396708Y289592D01*
X396617Y289563D01*
X396526Y289531D01*
X396437Y289495D01*
X396350Y289455D01*
X396264Y289412D01*
X396180Y289366D01*
X396098Y289316D01*
X396018Y289262D01*
X395941Y289206D01*
X395866Y289146D01*
X395793Y289084D01*
X395723Y289018D01*
X395655Y288950D01*
X395590Y288879D01*
X395529Y288806D01*
X395470Y288730D01*
X395414Y288651D01*
X395362Y288571D01*
X395313Y288488D01*
X395267Y288404D01*
X395225Y288318D01*
X395187Y288230D01*
X395152Y288141D01*
X395120Y288050D01*
X398598Y286414D02*
X398658Y286473D01*
X398715Y286535D01*
X398770Y286599D01*
X398821Y286666D01*
X398870Y286735D01*
X398916Y286805D01*
X398959Y286878D01*
X398999Y286952D01*
X399035Y287028D01*
X399068Y287106D01*
X399098Y287185D01*
X399125Y287265D01*
X399148Y287346D01*
X399167Y287428D01*
X399183Y287510D01*
X399196Y287594D01*
X399205Y287678D01*
X399210Y287762D01*
X399212Y287846D01*
X398598Y286413D02*
X395120Y282321D01*
X399212Y282321D01*
X8001Y175387D02*
X8001Y168021D01*
X8001Y175387D02*
X10047Y175387D01*
X10136Y175385D01*
X10225Y175379D01*
X10314Y175369D01*
X10402Y175356D01*
X10490Y175339D01*
X10577Y175317D01*
X10662Y175292D01*
X10747Y175264D01*
X10830Y175231D01*
X10912Y175195D01*
X10992Y175156D01*
X11070Y175113D01*
X11146Y175067D01*
X11221Y175017D01*
X11293Y174964D01*
X11362Y174908D01*
X11429Y174849D01*
X11494Y174788D01*
X11555Y174723D01*
X11614Y174656D01*
X11670Y174587D01*
X11723Y174515D01*
X11773Y174440D01*
X11819Y174364D01*
X11862Y174286D01*
X11901Y174206D01*
X11937Y174124D01*
X11970Y174041D01*
X11998Y173956D01*
X12023Y173871D01*
X12045Y173784D01*
X12062Y173696D01*
X12075Y173608D01*
X12085Y173519D01*
X12091Y173430D01*
X12093Y173341D01*
X12091Y173252D01*
X12085Y173163D01*
X12075Y173074D01*
X12062Y172986D01*
X12045Y172898D01*
X12023Y172811D01*
X11998Y172726D01*
X11970Y172641D01*
X11937Y172558D01*
X11901Y172476D01*
X11862Y172396D01*
X11819Y172318D01*
X11773Y172242D01*
X11723Y172167D01*
X11670Y172095D01*
X11614Y172026D01*
X11555Y171959D01*
X11494Y171894D01*
X11429Y171833D01*
X11362Y171774D01*
X11293Y171718D01*
X11221Y171665D01*
X11146Y171615D01*
X11070Y171569D01*
X10992Y171526D01*
X10912Y171487D01*
X10830Y171451D01*
X10747Y171418D01*
X10662Y171390D01*
X10577Y171365D01*
X10490Y171343D01*
X10402Y171326D01*
X10314Y171313D01*
X10225Y171303D01*
X10136Y171297D01*
X10047Y171295D01*
X8001Y171295D01*
X10456Y171295D02*
X12093Y168021D01*
X15265Y169658D02*
X16902Y175387D01*
X15265Y169658D02*
X19357Y169658D01*
X18130Y171295D02*
X18130Y168021D01*
X9271Y260731D02*
X9271Y268097D01*
X11317Y268097D01*
X11406Y268095D01*
X11495Y268089D01*
X11584Y268079D01*
X11672Y268066D01*
X11760Y268049D01*
X11847Y268027D01*
X11932Y268002D01*
X12017Y267974D01*
X12100Y267941D01*
X12182Y267905D01*
X12262Y267866D01*
X12340Y267823D01*
X12416Y267777D01*
X12491Y267727D01*
X12563Y267674D01*
X12632Y267618D01*
X12699Y267559D01*
X12764Y267498D01*
X12825Y267433D01*
X12884Y267366D01*
X12940Y267297D01*
X12993Y267225D01*
X13043Y267150D01*
X13089Y267074D01*
X13132Y266996D01*
X13171Y266916D01*
X13207Y266834D01*
X13240Y266751D01*
X13268Y266666D01*
X13293Y266581D01*
X13315Y266494D01*
X13332Y266406D01*
X13345Y266318D01*
X13355Y266229D01*
X13361Y266140D01*
X13363Y266051D01*
X13361Y265962D01*
X13355Y265873D01*
X13345Y265784D01*
X13332Y265696D01*
X13315Y265608D01*
X13293Y265521D01*
X13268Y265436D01*
X13240Y265351D01*
X13207Y265268D01*
X13171Y265186D01*
X13132Y265106D01*
X13089Y265028D01*
X13043Y264952D01*
X12993Y264877D01*
X12940Y264805D01*
X12884Y264736D01*
X12825Y264669D01*
X12764Y264604D01*
X12699Y264543D01*
X12632Y264484D01*
X12563Y264428D01*
X12491Y264375D01*
X12416Y264325D01*
X12340Y264279D01*
X12262Y264236D01*
X12182Y264197D01*
X12100Y264161D01*
X12017Y264128D01*
X11932Y264100D01*
X11847Y264075D01*
X11760Y264053D01*
X11672Y264036D01*
X11584Y264023D01*
X11495Y264013D01*
X11406Y264007D01*
X11317Y264005D01*
X9271Y264005D01*
X11726Y264005D02*
X13363Y260731D01*
X16535Y266460D02*
X18581Y268097D01*
X18581Y260731D01*
X16535Y260731D02*
X20627Y260731D01*
X8001Y297561D02*
X8001Y304927D01*
X10047Y304927D01*
X10136Y304925D01*
X10225Y304919D01*
X10314Y304909D01*
X10402Y304896D01*
X10490Y304879D01*
X10577Y304857D01*
X10662Y304832D01*
X10747Y304804D01*
X10830Y304771D01*
X10912Y304735D01*
X10992Y304696D01*
X11070Y304653D01*
X11146Y304607D01*
X11221Y304557D01*
X11293Y304504D01*
X11362Y304448D01*
X11429Y304389D01*
X11494Y304328D01*
X11555Y304263D01*
X11614Y304196D01*
X11670Y304127D01*
X11723Y304055D01*
X11773Y303980D01*
X11819Y303904D01*
X11862Y303826D01*
X11901Y303746D01*
X11937Y303664D01*
X11970Y303581D01*
X11998Y303496D01*
X12023Y303411D01*
X12045Y303324D01*
X12062Y303236D01*
X12075Y303148D01*
X12085Y303059D01*
X12091Y302970D01*
X12093Y302881D01*
X12091Y302792D01*
X12085Y302703D01*
X12075Y302614D01*
X12062Y302526D01*
X12045Y302438D01*
X12023Y302351D01*
X11998Y302266D01*
X11970Y302181D01*
X11937Y302098D01*
X11901Y302016D01*
X11862Y301936D01*
X11819Y301858D01*
X11773Y301782D01*
X11723Y301707D01*
X11670Y301635D01*
X11614Y301566D01*
X11555Y301499D01*
X11494Y301434D01*
X11429Y301373D01*
X11362Y301314D01*
X11293Y301258D01*
X11221Y301205D01*
X11146Y301155D01*
X11070Y301109D01*
X10992Y301066D01*
X10912Y301027D01*
X10830Y300991D01*
X10747Y300958D01*
X10662Y300930D01*
X10577Y300905D01*
X10490Y300883D01*
X10402Y300866D01*
X10314Y300853D01*
X10225Y300843D01*
X10136Y300837D01*
X10047Y300835D01*
X8001Y300835D01*
X10456Y300835D02*
X12093Y297561D01*
X19358Y303086D02*
X19356Y303171D01*
X19350Y303256D01*
X19340Y303340D01*
X19327Y303424D01*
X19309Y303508D01*
X19288Y303590D01*
X19263Y303671D01*
X19234Y303751D01*
X19201Y303830D01*
X19165Y303907D01*
X19125Y303982D01*
X19082Y304056D01*
X19036Y304127D01*
X18986Y304196D01*
X18933Y304263D01*
X18877Y304327D01*
X18818Y304388D01*
X18757Y304447D01*
X18693Y304503D01*
X18626Y304556D01*
X18557Y304606D01*
X18486Y304652D01*
X18412Y304695D01*
X18337Y304735D01*
X18260Y304771D01*
X18181Y304804D01*
X18101Y304833D01*
X18020Y304858D01*
X17938Y304879D01*
X17854Y304897D01*
X17770Y304910D01*
X17686Y304920D01*
X17601Y304926D01*
X17516Y304928D01*
X17516Y304927D02*
X17420Y304925D01*
X17324Y304919D01*
X17229Y304909D01*
X17134Y304896D01*
X17039Y304878D01*
X16946Y304857D01*
X16853Y304832D01*
X16762Y304803D01*
X16671Y304771D01*
X16582Y304735D01*
X16495Y304695D01*
X16409Y304652D01*
X16325Y304606D01*
X16243Y304556D01*
X16163Y304502D01*
X16086Y304446D01*
X16011Y304386D01*
X15938Y304324D01*
X15868Y304258D01*
X15800Y304190D01*
X15735Y304119D01*
X15674Y304046D01*
X15615Y303970D01*
X15559Y303891D01*
X15507Y303811D01*
X15458Y303728D01*
X15412Y303644D01*
X15370Y303558D01*
X15332Y303470D01*
X15297Y303381D01*
X15265Y303290D01*
X18743Y301654D02*
X18803Y301713D01*
X18860Y301775D01*
X18915Y301839D01*
X18966Y301906D01*
X19015Y301975D01*
X19061Y302045D01*
X19104Y302118D01*
X19144Y302192D01*
X19180Y302268D01*
X19213Y302346D01*
X19243Y302425D01*
X19270Y302505D01*
X19293Y302586D01*
X19312Y302668D01*
X19328Y302750D01*
X19341Y302834D01*
X19350Y302918D01*
X19355Y303002D01*
X19357Y303086D01*
X18743Y301653D02*
X15265Y297561D01*
X19357Y297561D01*
X8001Y194437D02*
X8001Y187071D01*
X8001Y194437D02*
X10047Y194437D01*
X10136Y194435D01*
X10225Y194429D01*
X10314Y194419D01*
X10402Y194406D01*
X10490Y194389D01*
X10577Y194367D01*
X10662Y194342D01*
X10747Y194314D01*
X10830Y194281D01*
X10912Y194245D01*
X10992Y194206D01*
X11070Y194163D01*
X11146Y194117D01*
X11221Y194067D01*
X11293Y194014D01*
X11362Y193958D01*
X11429Y193899D01*
X11494Y193838D01*
X11555Y193773D01*
X11614Y193706D01*
X11670Y193637D01*
X11723Y193565D01*
X11773Y193490D01*
X11819Y193414D01*
X11862Y193336D01*
X11901Y193256D01*
X11937Y193174D01*
X11970Y193091D01*
X11998Y193006D01*
X12023Y192921D01*
X12045Y192834D01*
X12062Y192746D01*
X12075Y192658D01*
X12085Y192569D01*
X12091Y192480D01*
X12093Y192391D01*
X12091Y192302D01*
X12085Y192213D01*
X12075Y192124D01*
X12062Y192036D01*
X12045Y191948D01*
X12023Y191861D01*
X11998Y191776D01*
X11970Y191691D01*
X11937Y191608D01*
X11901Y191526D01*
X11862Y191446D01*
X11819Y191368D01*
X11773Y191292D01*
X11723Y191217D01*
X11670Y191145D01*
X11614Y191076D01*
X11555Y191009D01*
X11494Y190944D01*
X11429Y190883D01*
X11362Y190824D01*
X11293Y190768D01*
X11221Y190715D01*
X11146Y190665D01*
X11070Y190619D01*
X10992Y190576D01*
X10912Y190537D01*
X10830Y190501D01*
X10747Y190468D01*
X10662Y190440D01*
X10577Y190415D01*
X10490Y190393D01*
X10402Y190376D01*
X10314Y190363D01*
X10225Y190353D01*
X10136Y190347D01*
X10047Y190345D01*
X8001Y190345D01*
X10456Y190345D02*
X12093Y187071D01*
X15265Y187071D02*
X17311Y187071D01*
X17400Y187073D01*
X17489Y187079D01*
X17578Y187089D01*
X17666Y187102D01*
X17754Y187119D01*
X17841Y187141D01*
X17926Y187166D01*
X18011Y187194D01*
X18094Y187227D01*
X18176Y187263D01*
X18256Y187302D01*
X18334Y187345D01*
X18410Y187391D01*
X18485Y187441D01*
X18557Y187494D01*
X18626Y187550D01*
X18693Y187609D01*
X18758Y187670D01*
X18819Y187735D01*
X18878Y187802D01*
X18934Y187871D01*
X18987Y187943D01*
X19037Y188018D01*
X19083Y188094D01*
X19126Y188172D01*
X19165Y188252D01*
X19201Y188334D01*
X19234Y188417D01*
X19262Y188502D01*
X19287Y188587D01*
X19309Y188674D01*
X19326Y188762D01*
X19339Y188850D01*
X19349Y188939D01*
X19355Y189028D01*
X19357Y189117D01*
X19355Y189206D01*
X19349Y189295D01*
X19339Y189384D01*
X19326Y189472D01*
X19309Y189560D01*
X19287Y189647D01*
X19262Y189732D01*
X19234Y189817D01*
X19201Y189900D01*
X19165Y189982D01*
X19126Y190062D01*
X19083Y190140D01*
X19037Y190216D01*
X18987Y190291D01*
X18934Y190363D01*
X18878Y190432D01*
X18819Y190499D01*
X18758Y190564D01*
X18693Y190625D01*
X18626Y190684D01*
X18557Y190740D01*
X18485Y190793D01*
X18410Y190843D01*
X18334Y190889D01*
X18256Y190932D01*
X18176Y190971D01*
X18094Y191007D01*
X18011Y191040D01*
X17926Y191068D01*
X17841Y191093D01*
X17754Y191115D01*
X17666Y191132D01*
X17578Y191145D01*
X17489Y191155D01*
X17400Y191161D01*
X17311Y191163D01*
X17720Y194437D02*
X15265Y194437D01*
X17720Y194437D02*
X17799Y194435D01*
X17878Y194429D01*
X17957Y194420D01*
X18035Y194407D01*
X18112Y194389D01*
X18188Y194369D01*
X18263Y194344D01*
X18337Y194316D01*
X18410Y194285D01*
X18481Y194249D01*
X18550Y194211D01*
X18617Y194169D01*
X18682Y194124D01*
X18745Y194076D01*
X18806Y194025D01*
X18863Y193971D01*
X18919Y193915D01*
X18971Y193856D01*
X19021Y193794D01*
X19067Y193730D01*
X19111Y193664D01*
X19151Y193596D01*
X19187Y193526D01*
X19221Y193454D01*
X19251Y193380D01*
X19277Y193306D01*
X19300Y193230D01*
X19318Y193153D01*
X19334Y193076D01*
X19345Y192997D01*
X19353Y192919D01*
X19357Y192840D01*
X19357Y192760D01*
X19353Y192681D01*
X19345Y192603D01*
X19334Y192524D01*
X19318Y192447D01*
X19300Y192370D01*
X19277Y192294D01*
X19251Y192220D01*
X19221Y192146D01*
X19187Y192074D01*
X19151Y192004D01*
X19111Y191936D01*
X19067Y191870D01*
X19021Y191806D01*
X18971Y191744D01*
X18919Y191685D01*
X18863Y191629D01*
X18806Y191575D01*
X18745Y191524D01*
X18682Y191476D01*
X18617Y191431D01*
X18550Y191389D01*
X18481Y191351D01*
X18410Y191315D01*
X18337Y191284D01*
X18263Y191256D01*
X18188Y191231D01*
X18112Y191211D01*
X18035Y191193D01*
X17957Y191180D01*
X17878Y191171D01*
X17799Y191165D01*
X17720Y191163D01*
X16083Y191163D01*
X116459Y376301D02*
X123825Y376301D01*
X116459Y376301D02*
X116459Y378347D01*
X116461Y378436D01*
X116467Y378525D01*
X116477Y378614D01*
X116490Y378702D01*
X116507Y378790D01*
X116529Y378877D01*
X116554Y378962D01*
X116582Y379047D01*
X116615Y379130D01*
X116651Y379212D01*
X116690Y379292D01*
X116733Y379370D01*
X116779Y379446D01*
X116829Y379521D01*
X116882Y379593D01*
X116938Y379662D01*
X116997Y379729D01*
X117058Y379794D01*
X117123Y379855D01*
X117190Y379914D01*
X117259Y379970D01*
X117331Y380023D01*
X117406Y380073D01*
X117482Y380119D01*
X117560Y380162D01*
X117640Y380201D01*
X117722Y380237D01*
X117805Y380270D01*
X117890Y380298D01*
X117975Y380323D01*
X118062Y380345D01*
X118150Y380362D01*
X118238Y380375D01*
X118327Y380385D01*
X118416Y380391D01*
X118505Y380393D01*
X118594Y380391D01*
X118683Y380385D01*
X118772Y380375D01*
X118860Y380362D01*
X118948Y380345D01*
X119035Y380323D01*
X119120Y380298D01*
X119205Y380270D01*
X119288Y380237D01*
X119370Y380201D01*
X119450Y380162D01*
X119528Y380119D01*
X119604Y380073D01*
X119679Y380023D01*
X119751Y379970D01*
X119820Y379914D01*
X119887Y379855D01*
X119952Y379794D01*
X120013Y379729D01*
X120072Y379662D01*
X120128Y379593D01*
X120181Y379521D01*
X120231Y379446D01*
X120277Y379370D01*
X120320Y379292D01*
X120359Y379212D01*
X120395Y379130D01*
X120428Y379047D01*
X120456Y378962D01*
X120481Y378877D01*
X120503Y378790D01*
X120520Y378702D01*
X120533Y378614D01*
X120543Y378525D01*
X120549Y378436D01*
X120551Y378347D01*
X120551Y376301D01*
X120551Y378756D02*
X123825Y380393D01*
X120551Y385202D02*
X120551Y387657D01*
X120551Y385202D02*
X120549Y385124D01*
X120544Y385046D01*
X120534Y384969D01*
X120521Y384892D01*
X120505Y384816D01*
X120485Y384741D01*
X120461Y384667D01*
X120434Y384594D01*
X120403Y384522D01*
X120369Y384452D01*
X120332Y384384D01*
X120291Y384317D01*
X120247Y384252D01*
X120201Y384190D01*
X120151Y384130D01*
X120099Y384072D01*
X120044Y384017D01*
X119986Y383965D01*
X119926Y383915D01*
X119864Y383869D01*
X119799Y383825D01*
X119733Y383784D01*
X119664Y383747D01*
X119594Y383713D01*
X119522Y383682D01*
X119449Y383655D01*
X119375Y383631D01*
X119300Y383611D01*
X119224Y383595D01*
X119147Y383582D01*
X119070Y383572D01*
X118992Y383567D01*
X118914Y383565D01*
X118505Y383565D01*
X118416Y383567D01*
X118327Y383573D01*
X118238Y383583D01*
X118150Y383596D01*
X118062Y383613D01*
X117975Y383635D01*
X117890Y383660D01*
X117805Y383688D01*
X117722Y383721D01*
X117640Y383757D01*
X117560Y383796D01*
X117482Y383839D01*
X117406Y383885D01*
X117331Y383935D01*
X117259Y383988D01*
X117190Y384044D01*
X117123Y384103D01*
X117058Y384164D01*
X116997Y384229D01*
X116938Y384296D01*
X116882Y384365D01*
X116829Y384437D01*
X116779Y384512D01*
X116733Y384588D01*
X116690Y384666D01*
X116651Y384746D01*
X116615Y384828D01*
X116582Y384911D01*
X116554Y384996D01*
X116529Y385081D01*
X116507Y385168D01*
X116490Y385256D01*
X116477Y385344D01*
X116467Y385433D01*
X116461Y385522D01*
X116459Y385611D01*
X116461Y385700D01*
X116467Y385789D01*
X116477Y385878D01*
X116490Y385966D01*
X116507Y386054D01*
X116529Y386141D01*
X116554Y386226D01*
X116582Y386311D01*
X116615Y386394D01*
X116651Y386476D01*
X116690Y386556D01*
X116733Y386634D01*
X116779Y386710D01*
X116829Y386785D01*
X116882Y386857D01*
X116938Y386926D01*
X116997Y386993D01*
X117058Y387058D01*
X117123Y387119D01*
X117190Y387178D01*
X117259Y387234D01*
X117331Y387287D01*
X117406Y387337D01*
X117482Y387383D01*
X117560Y387426D01*
X117640Y387465D01*
X117722Y387501D01*
X117805Y387534D01*
X117890Y387562D01*
X117975Y387587D01*
X118062Y387609D01*
X118150Y387626D01*
X118238Y387639D01*
X118327Y387649D01*
X118416Y387655D01*
X118505Y387657D01*
X120551Y387657D01*
X120663Y387655D01*
X120774Y387649D01*
X120886Y387640D01*
X120997Y387627D01*
X121107Y387609D01*
X121217Y387589D01*
X121326Y387564D01*
X121434Y387536D01*
X121541Y387504D01*
X121647Y387468D01*
X121752Y387429D01*
X121855Y387386D01*
X121957Y387340D01*
X122057Y387290D01*
X122156Y387237D01*
X122252Y387180D01*
X122347Y387121D01*
X122439Y387058D01*
X122529Y386992D01*
X122617Y386923D01*
X122703Y386851D01*
X122786Y386776D01*
X122866Y386698D01*
X122944Y386618D01*
X123019Y386535D01*
X123091Y386449D01*
X123160Y386361D01*
X123226Y386271D01*
X123289Y386179D01*
X123348Y386084D01*
X123405Y385988D01*
X123458Y385889D01*
X123508Y385789D01*
X123554Y385687D01*
X123597Y385584D01*
X123636Y385479D01*
X123672Y385373D01*
X123704Y385266D01*
X123732Y385158D01*
X123757Y385049D01*
X123777Y384939D01*
X123795Y384829D01*
X123808Y384718D01*
X123817Y384606D01*
X123823Y384495D01*
X123825Y384383D01*
X137541Y375031D02*
X144907Y375031D01*
X137541Y375031D02*
X137541Y377077D01*
X137543Y377166D01*
X137549Y377255D01*
X137559Y377344D01*
X137572Y377432D01*
X137589Y377520D01*
X137611Y377607D01*
X137636Y377692D01*
X137664Y377777D01*
X137697Y377860D01*
X137733Y377942D01*
X137772Y378022D01*
X137815Y378100D01*
X137861Y378176D01*
X137911Y378251D01*
X137964Y378323D01*
X138020Y378392D01*
X138079Y378459D01*
X138140Y378524D01*
X138205Y378585D01*
X138272Y378644D01*
X138341Y378700D01*
X138413Y378753D01*
X138488Y378803D01*
X138564Y378849D01*
X138642Y378892D01*
X138722Y378931D01*
X138804Y378967D01*
X138887Y379000D01*
X138972Y379028D01*
X139057Y379053D01*
X139144Y379075D01*
X139232Y379092D01*
X139320Y379105D01*
X139409Y379115D01*
X139498Y379121D01*
X139587Y379123D01*
X139676Y379121D01*
X139765Y379115D01*
X139854Y379105D01*
X139942Y379092D01*
X140030Y379075D01*
X140117Y379053D01*
X140202Y379028D01*
X140287Y379000D01*
X140370Y378967D01*
X140452Y378931D01*
X140532Y378892D01*
X140610Y378849D01*
X140686Y378803D01*
X140761Y378753D01*
X140833Y378700D01*
X140902Y378644D01*
X140969Y378585D01*
X141034Y378524D01*
X141095Y378459D01*
X141154Y378392D01*
X141210Y378323D01*
X141263Y378251D01*
X141313Y378176D01*
X141359Y378100D01*
X141402Y378022D01*
X141441Y377942D01*
X141477Y377860D01*
X141510Y377777D01*
X141538Y377692D01*
X141563Y377607D01*
X141585Y377520D01*
X141602Y377432D01*
X141615Y377344D01*
X141625Y377255D01*
X141631Y377166D01*
X141633Y377077D01*
X141633Y375031D01*
X141633Y377486D02*
X144907Y379123D01*
X139178Y382295D02*
X137541Y384341D01*
X144907Y384341D01*
X144907Y382295D02*
X144907Y386387D01*
X141224Y389611D02*
X141071Y389613D01*
X140918Y389619D01*
X140766Y389628D01*
X140613Y389642D01*
X140461Y389659D01*
X140310Y389680D01*
X140159Y389705D01*
X140009Y389734D01*
X139859Y389766D01*
X139711Y389803D01*
X139563Y389843D01*
X139416Y389886D01*
X139271Y389934D01*
X139127Y389985D01*
X138984Y390039D01*
X138842Y390098D01*
X138703Y390159D01*
X138564Y390225D01*
X138564Y390224D02*
X138494Y390250D01*
X138424Y390280D01*
X138357Y390313D01*
X138291Y390349D01*
X138227Y390388D01*
X138165Y390431D01*
X138106Y390477D01*
X138048Y390525D01*
X137994Y390576D01*
X137941Y390630D01*
X137892Y390687D01*
X137845Y390746D01*
X137802Y390807D01*
X137761Y390870D01*
X137724Y390935D01*
X137689Y391002D01*
X137659Y391071D01*
X137631Y391141D01*
X137608Y391212D01*
X137587Y391284D01*
X137571Y391357D01*
X137558Y391431D01*
X137548Y391506D01*
X137543Y391581D01*
X137541Y391656D01*
X137543Y391731D01*
X137548Y391806D01*
X137558Y391881D01*
X137571Y391955D01*
X137587Y392028D01*
X137608Y392100D01*
X137631Y392171D01*
X137659Y392241D01*
X137689Y392310D01*
X137724Y392377D01*
X137761Y392442D01*
X137802Y392505D01*
X137845Y392566D01*
X137892Y392625D01*
X137941Y392682D01*
X137994Y392736D01*
X138048Y392787D01*
X138106Y392836D01*
X138165Y392881D01*
X138227Y392924D01*
X138291Y392963D01*
X138357Y393000D01*
X138425Y393032D01*
X138494Y393062D01*
X138564Y393088D01*
X138702Y393153D01*
X138842Y393215D01*
X138984Y393273D01*
X139127Y393328D01*
X139271Y393379D01*
X139416Y393427D01*
X139563Y393470D01*
X139710Y393510D01*
X139859Y393547D01*
X140009Y393579D01*
X140159Y393608D01*
X140310Y393633D01*
X140461Y393654D01*
X140613Y393671D01*
X140766Y393685D01*
X140918Y393694D01*
X141071Y393700D01*
X141224Y393702D01*
X141224Y389611D02*
X141377Y389613D01*
X141530Y389619D01*
X141682Y389628D01*
X141835Y389642D01*
X141987Y389659D01*
X142138Y389680D01*
X142289Y389705D01*
X142439Y389734D01*
X142589Y389766D01*
X142737Y389803D01*
X142885Y389843D01*
X143032Y389886D01*
X143177Y389934D01*
X143321Y389985D01*
X143464Y390039D01*
X143606Y390098D01*
X143745Y390159D01*
X143884Y390225D01*
X143884Y390224D02*
X143955Y390250D01*
X144024Y390280D01*
X144091Y390313D01*
X144157Y390349D01*
X144221Y390388D01*
X144283Y390431D01*
X144342Y390477D01*
X144400Y390525D01*
X144454Y390576D01*
X144507Y390630D01*
X144556Y390687D01*
X144603Y390746D01*
X144646Y390807D01*
X144687Y390870D01*
X144724Y390935D01*
X144759Y391002D01*
X144789Y391071D01*
X144817Y391141D01*
X144840Y391212D01*
X144861Y391284D01*
X144877Y391357D01*
X144890Y391431D01*
X144900Y391506D01*
X144905Y391581D01*
X144907Y391656D01*
X143884Y393088D02*
X143746Y393153D01*
X143606Y393215D01*
X143464Y393273D01*
X143321Y393328D01*
X143177Y393379D01*
X143032Y393427D01*
X142885Y393470D01*
X142738Y393510D01*
X142589Y393547D01*
X142439Y393579D01*
X142289Y393608D01*
X142138Y393633D01*
X141987Y393654D01*
X141835Y393671D01*
X141682Y393685D01*
X141530Y393694D01*
X141377Y393700D01*
X141224Y393702D01*
X143884Y393088D02*
X143954Y393062D01*
X144024Y393032D01*
X144091Y392999D01*
X144157Y392963D01*
X144221Y392924D01*
X144283Y392881D01*
X144342Y392835D01*
X144400Y392787D01*
X144454Y392736D01*
X144507Y392682D01*
X144556Y392625D01*
X144603Y392566D01*
X144646Y392505D01*
X144687Y392442D01*
X144724Y392377D01*
X144759Y392310D01*
X144789Y392241D01*
X144817Y392171D01*
X144840Y392100D01*
X144861Y392028D01*
X144877Y391955D01*
X144890Y391881D01*
X144900Y391806D01*
X144905Y391731D01*
X144907Y391656D01*
X143270Y390019D02*
X139178Y393293D01*
X81915Y376301D02*
X74549Y376301D01*
X74549Y378347D01*
X74551Y378436D01*
X74557Y378525D01*
X74567Y378614D01*
X74580Y378702D01*
X74597Y378790D01*
X74619Y378877D01*
X74644Y378962D01*
X74672Y379047D01*
X74705Y379130D01*
X74741Y379212D01*
X74780Y379292D01*
X74823Y379370D01*
X74869Y379446D01*
X74919Y379521D01*
X74972Y379593D01*
X75028Y379662D01*
X75087Y379729D01*
X75148Y379794D01*
X75213Y379855D01*
X75280Y379914D01*
X75349Y379970D01*
X75421Y380023D01*
X75496Y380073D01*
X75572Y380119D01*
X75650Y380162D01*
X75730Y380201D01*
X75812Y380237D01*
X75895Y380270D01*
X75980Y380298D01*
X76065Y380323D01*
X76152Y380345D01*
X76240Y380362D01*
X76328Y380375D01*
X76417Y380385D01*
X76506Y380391D01*
X76595Y380393D01*
X76684Y380391D01*
X76773Y380385D01*
X76862Y380375D01*
X76950Y380362D01*
X77038Y380345D01*
X77125Y380323D01*
X77210Y380298D01*
X77295Y380270D01*
X77378Y380237D01*
X77460Y380201D01*
X77540Y380162D01*
X77618Y380119D01*
X77694Y380073D01*
X77769Y380023D01*
X77841Y379970D01*
X77910Y379914D01*
X77977Y379855D01*
X78042Y379794D01*
X78103Y379729D01*
X78162Y379662D01*
X78218Y379593D01*
X78271Y379521D01*
X78321Y379446D01*
X78367Y379370D01*
X78410Y379292D01*
X78449Y379212D01*
X78485Y379130D01*
X78518Y379047D01*
X78546Y378962D01*
X78571Y378877D01*
X78593Y378790D01*
X78610Y378702D01*
X78623Y378614D01*
X78633Y378525D01*
X78639Y378436D01*
X78641Y378347D01*
X78641Y376301D01*
X78641Y378756D02*
X81915Y380393D01*
X76186Y383565D02*
X74549Y385611D01*
X81915Y385611D01*
X81915Y383565D02*
X81915Y387657D01*
X76186Y390880D02*
X74549Y392926D01*
X81915Y392926D01*
X81915Y390880D02*
X81915Y394972D01*
X94107Y375031D02*
X101473Y375031D01*
X94107Y375031D02*
X94107Y377077D01*
X94109Y377166D01*
X94115Y377255D01*
X94125Y377344D01*
X94138Y377432D01*
X94155Y377520D01*
X94177Y377607D01*
X94202Y377692D01*
X94230Y377777D01*
X94263Y377860D01*
X94299Y377942D01*
X94338Y378022D01*
X94381Y378100D01*
X94427Y378176D01*
X94477Y378251D01*
X94530Y378323D01*
X94586Y378392D01*
X94645Y378459D01*
X94706Y378524D01*
X94771Y378585D01*
X94838Y378644D01*
X94907Y378700D01*
X94979Y378753D01*
X95054Y378803D01*
X95130Y378849D01*
X95208Y378892D01*
X95288Y378931D01*
X95370Y378967D01*
X95453Y379000D01*
X95538Y379028D01*
X95623Y379053D01*
X95710Y379075D01*
X95798Y379092D01*
X95886Y379105D01*
X95975Y379115D01*
X96064Y379121D01*
X96153Y379123D01*
X96242Y379121D01*
X96331Y379115D01*
X96420Y379105D01*
X96508Y379092D01*
X96596Y379075D01*
X96683Y379053D01*
X96768Y379028D01*
X96853Y379000D01*
X96936Y378967D01*
X97018Y378931D01*
X97098Y378892D01*
X97176Y378849D01*
X97252Y378803D01*
X97327Y378753D01*
X97399Y378700D01*
X97468Y378644D01*
X97535Y378585D01*
X97600Y378524D01*
X97661Y378459D01*
X97720Y378392D01*
X97776Y378323D01*
X97829Y378251D01*
X97879Y378176D01*
X97925Y378100D01*
X97968Y378022D01*
X98007Y377942D01*
X98043Y377860D01*
X98076Y377777D01*
X98104Y377692D01*
X98129Y377607D01*
X98151Y377520D01*
X98168Y377432D01*
X98181Y377344D01*
X98191Y377255D01*
X98197Y377166D01*
X98199Y377077D01*
X98199Y375031D01*
X98199Y377486D02*
X101473Y379123D01*
X95744Y382295D02*
X94107Y384341D01*
X101473Y384341D01*
X101473Y382295D02*
X101473Y386387D01*
X95949Y393703D02*
X95864Y393701D01*
X95779Y393695D01*
X95695Y393685D01*
X95611Y393672D01*
X95527Y393654D01*
X95445Y393633D01*
X95364Y393608D01*
X95284Y393579D01*
X95205Y393546D01*
X95128Y393510D01*
X95053Y393470D01*
X94979Y393427D01*
X94908Y393381D01*
X94839Y393331D01*
X94772Y393278D01*
X94708Y393222D01*
X94647Y393163D01*
X94588Y393102D01*
X94532Y393038D01*
X94479Y392971D01*
X94429Y392902D01*
X94383Y392831D01*
X94340Y392757D01*
X94300Y392682D01*
X94264Y392605D01*
X94231Y392526D01*
X94202Y392446D01*
X94177Y392365D01*
X94156Y392283D01*
X94138Y392199D01*
X94125Y392115D01*
X94115Y392031D01*
X94109Y391946D01*
X94107Y391861D01*
X94109Y391765D01*
X94115Y391669D01*
X94125Y391574D01*
X94138Y391479D01*
X94156Y391384D01*
X94177Y391291D01*
X94202Y391198D01*
X94231Y391107D01*
X94263Y391016D01*
X94299Y390927D01*
X94339Y390840D01*
X94382Y390754D01*
X94428Y390670D01*
X94478Y390588D01*
X94532Y390508D01*
X94588Y390431D01*
X94648Y390356D01*
X94710Y390283D01*
X94776Y390213D01*
X94844Y390145D01*
X94915Y390080D01*
X94988Y390019D01*
X95064Y389960D01*
X95143Y389904D01*
X95223Y389852D01*
X95306Y389803D01*
X95390Y389757D01*
X95476Y389715D01*
X95564Y389677D01*
X95653Y389642D01*
X95744Y389610D01*
X97381Y393089D02*
X97322Y393149D01*
X97260Y393206D01*
X97196Y393261D01*
X97129Y393312D01*
X97060Y393361D01*
X96990Y393407D01*
X96917Y393450D01*
X96843Y393490D01*
X96767Y393526D01*
X96689Y393559D01*
X96610Y393589D01*
X96530Y393616D01*
X96449Y393639D01*
X96367Y393658D01*
X96285Y393674D01*
X96201Y393687D01*
X96117Y393696D01*
X96033Y393701D01*
X95949Y393703D01*
X97381Y393089D02*
X101473Y389610D01*
X101473Y393702D01*
M02*
