G04 EAGLE Gerber RS-274X export*
G75*
%MOMM*%
%FSLAX34Y34*%
%LPD*%
%INSolderpaste Top*%
%IPPOS*%
%AMOC8*
5,1,8,0,0,1.08239X$1,22.5*%
G01*
%ADD10R,1.000000X0.300000*%
%ADD11R,1.550000X0.700000*%
%ADD12R,1.100000X1.000000*%
%ADD13R,1.000000X1.100000*%


D10*
X383530Y364610D03*
X383530Y369610D03*
X383530Y374610D03*
X383530Y379610D03*
X350530Y379610D03*
X350530Y374610D03*
X350530Y369610D03*
X350530Y364610D03*
D11*
X139010Y237490D03*
X139010Y250190D03*
X139010Y262890D03*
X139010Y275590D03*
X139010Y288290D03*
X139010Y300990D03*
X139010Y313690D03*
X139010Y326390D03*
X84510Y326390D03*
X84510Y313690D03*
X84510Y300990D03*
X84510Y288290D03*
X84510Y275590D03*
X84510Y262890D03*
X84510Y250190D03*
X84510Y237490D03*
D10*
X350530Y156344D03*
X350530Y151344D03*
X350530Y146344D03*
X350530Y141344D03*
X383530Y141344D03*
X383530Y146344D03*
X383530Y151344D03*
X383530Y156344D03*
D12*
X347590Y336804D03*
X330590Y336804D03*
X386470Y336042D03*
X403470Y336042D03*
X80890Y214630D03*
X63890Y214630D03*
X347590Y181864D03*
X330590Y181864D03*
X387740Y181864D03*
X404740Y181864D03*
D13*
X298332Y160782D03*
X315332Y160782D03*
D10*
X350530Y250070D03*
X350530Y245070D03*
X350530Y240070D03*
X350530Y235070D03*
X383530Y235070D03*
X383530Y240070D03*
X383530Y245070D03*
X383530Y250070D03*
D13*
X298332Y140208D03*
X315332Y140208D03*
X296300Y248920D03*
X313300Y248920D03*
X296300Y228346D03*
X313300Y228346D03*
D12*
X347590Y275336D03*
X330590Y275336D03*
X386470Y274320D03*
X403470Y274320D03*
D13*
X29600Y170180D03*
X46600Y170180D03*
X29600Y262890D03*
X46600Y262890D03*
X29600Y300990D03*
X46600Y300990D03*
X29600Y191770D03*
X46600Y191770D03*
D12*
X121666Y348370D03*
X121666Y365370D03*
X142748Y348370D03*
X142748Y365370D03*
X79756Y348370D03*
X79756Y365370D03*
X100584Y348370D03*
X100584Y365370D03*
M02*
