G04 EAGLE Gerber RS-274X export*
G75*
%MOMM*%
%FSLAX34Y34*%
%LPD*%
%INSoldermask Bottom*%
%IPPOS*%
%AMOC8*
5,1,8,0,0,1.08239X$1,22.5*%
G01*
%ADD10C,1.712800*%
%ADD11C,3.767800*%
%ADD12C,1.981200*%


D10*
X134920Y85040D03*
X108920Y85040D03*
X155920Y85040D03*
X134920Y110040D03*
X87920Y85040D03*
X155920Y110040D03*
X112920Y110040D03*
X87920Y110040D03*
D11*
X121920Y47040D03*
X189420Y55040D03*
X54420Y55040D03*
D12*
X254000Y99060D03*
X254000Y124460D03*
X254000Y149860D03*
X254000Y175260D03*
X254000Y200660D03*
X254000Y226060D03*
X254000Y251460D03*
X254000Y276860D03*
X254000Y302260D03*
X254000Y327660D03*
X254000Y353060D03*
X254000Y378460D03*
X254000Y403860D03*
X254000Y429260D03*
X254000Y454660D03*
X254000Y480060D03*
X457200Y378460D03*
X457200Y353060D03*
X457200Y327660D03*
X457200Y302260D03*
X457200Y276860D03*
X457200Y251460D03*
X457200Y226060D03*
X457200Y200660D03*
X457200Y175260D03*
X457200Y149860D03*
X457200Y124460D03*
X457200Y99060D03*
D10*
X106380Y463600D03*
X132380Y463600D03*
X85380Y463600D03*
X106380Y438600D03*
X153380Y463600D03*
X85380Y438600D03*
X128380Y438600D03*
X153380Y438600D03*
D11*
X119380Y501600D03*
X51880Y493600D03*
X186880Y493600D03*
M02*
